<svg xmlns="http://www.w3.org/2000/svg" viewBox="0 0 117.94 207.11"><defs><style>.cls-1{isolation:isolate;}.cls-2{fill:#d7d0c0;}.cls-3{fill:#e2ded3;}.cls-4{fill:#ecebe5;}.cls-5{fill:#f7f8f8;}.cls-6{fill:#dcdddd;}.cls-7{fill:#ccc3ad;}</style></defs><title>資產 2</title><g id="圖層_2" data-name="圖層 2"><g id="圖層_2-2" data-name="圖層 2"><g id="Bag"><g class="cls-1"><polygon class="cls-2" points="46.61 50.08 47.97 49.28 47.95 55.44 46.59 56.23 46.61 50.08"/><polygon class="cls-2" points="46.69 20.8 48.05 20.01 47.97 49.28 46.61 50.08 46.69 20.8"/><path class="cls-2" d="M51.77,9.7l1.36-.79C50,10.72,48.07,14.57,48.05,20l-1.36.79C46.71,15.36,48.65,11.51,51.77,9.7Z"/><path class="cls-2" d="M47,2.26l1.36-.79c4-2.29,9.42-2,15.42,1.48l-1.36.79C56.42.28,51,0,47,2.26Z"/><polygon class="cls-2" points="101.11 51.06 102.47 50.27 102.37 86.86 101.01 87.65 101.11 51.06"/><polygon class="cls-2" points="62.42 3.74 63.78 2.95 80.84 12.8 79.48 13.59 62.42 3.74"/><path class="cls-2" d="M79.48,13.59l1.36-.79c11.94,6.89,21.67,23.76,21.63,37.47l-1.36.79C101.15,37.35,91.42,20.48,79.48,13.59Z"/><path class="cls-3" d="M79.48,13.59c11.94,6.89,21.67,23.76,21.63,37.47L101,87.65,95,84.16,95,78l.08-29.27c0-11-7.75-24.46-17.3-30L64.11,10.88c-9.55-5.51-17.39-1-17.42,9.92l-.08,29.28,0,6.15-6-3.49.1-36.59c0-13.71,9.84-19.3,21.77-12.41Z"/></g><path id="Circular" class="cls-3" d="M110.06,92.17V196.84a9.67,9.67,0,0,1-4,7.92l-.18.09,0,0a14.09,14.09,0,0,1-3.06,1c-1,.21-2,.41-3.15.55-5,.68-10.44,1.23-13-.2L85,205.3a9.82,9.82,0,0,0,14.59-8.47c0-26.17,0-104.66,0-104.66a11.69,11.69,0,0,0,10.48,0Z"/><path id="Side" class="cls-2" d="M117.94,192.28a9.69,9.69,0,0,1-4.45,8.21l-1.32.75L106,204.75a9.65,9.65,0,0,0,4-7.92V90.43a10.88,10.88,0,0,0,5.24-1.24l.46-.27a3.65,3.65,0,0,0,2.17-3Z"/><path id="Front" class="cls-4" d="M99.58,92.17V196.83A9.76,9.76,0,0,1,85,205.3l-80-45.76A9.74,9.74,0,0,1,0,151.07V58H0V34H0a3.82,3.82,0,0,0,2.15,2.68Z"/><path id="TopBase" class="cls-5" d="M99.58,92.17,2.18,36.66c-2.89-1.65-2.89-4.32,0-6l5.62-3.2a11.74,11.74,0,0,1,10.48,0l97.47,55.46c2.9,1.65,2.91,4.33,0,6l-5.7,3.25A11.71,11.71,0,0,1,99.58,92.17Z"/><path class="cls-6" d="M13.19,27.89V41.14l-8-4.57C2.39,35,2,32.62,4.29,31.31l4.53-2.58A8.17,8.17,0,0,1,13.19,27.89Z"/><path id="Top" class="cls-3" d="M99.7,90.44,5.18,36.57c-2.8-1.59-3.19-4-.89-5.26l4.54-2.58c2.3-1.32,6.43-1.09,9.22.5l94.59,53.83c2.8,1.59,3.2,4,.89,5.27L108.93,91C106.63,92.26,102.49,92,99.7,90.44Z"/><path class="cls-7" d="M13.19,27.89V41.14l-8-4.57C2.39,35,2,32.62,4.29,31.31l4.53-2.58A8.17,8.17,0,0,1,13.19,27.89Z"/><g class="cls-1"><polygon class="cls-7" points="26.95 57.29 28.31 56.5 28.29 62.66 26.93 63.45 26.95 57.29"/><polygon class="cls-7" points="27.03 28.02 28.39 27.23 28.31 56.5 26.95 57.29 27.03 28.02"/><path class="cls-7" d="M32.11,16.92l1.36-.79c-3.12,1.81-5.07,5.65-5.08,11.1L27,28C27,22.57,29,18.73,32.11,16.92Z"/><path class="cls-7" d="M27.34,9.48l1.36-.79c3.95-2.3,9.41-2,15.42,1.48L42.76,11C36.75,7.49,31.29,7.19,27.34,9.48Z"/><polygon class="cls-7" points="81.45 58.28 82.81 57.49 82.71 94.07 81.35 94.86 81.45 58.28"/><polygon class="cls-7" points="42.76 10.96 44.12 10.17 61.18 20.02 59.82 20.81 42.76 10.96"/><path class="cls-7" d="M59.82,20.81,61.18,20c11.93,6.89,21.67,23.75,21.63,37.47l-1.36.79C81.49,44.56,71.75,27.7,59.82,20.81Z"/><path class="cls-2" d="M59.82,20.81C71.75,27.7,81.49,44.56,81.45,58.28l-.1,36.59-6-3.5,0-6.15L75.4,56c0-11-7.76-24.46-17.31-30L44.45,18.1C34.9,12.59,27.06,17.05,27,28L27,57.29l0,6.16L20.88,60,21,23.37C21,9.65,30.82,4.07,42.76,11Z"/></g></g></g></g></svg>