<svg xmlns="http://www.w3.org/2000/svg" xmlns:xlink="http://www.w3.org/1999/xlink" viewBox="0 0 189.53 113.96"><defs><style>.cls-1{fill:none;}.cls-2{fill:#503d26;}.cls-3{fill:#d7d0c0;}.cls-4{fill:#ccc3ad;}.cls-5{isolation:isolate;}.cls-6{clip-path:url(#clip-path);}.cls-7{fill:#332d25;}.cls-8{fill:#352e26;}.cls-9{fill:#373028;}.cls-10{fill:#393229;}.cls-11{fill:#3b342b;}.cls-12{fill:#3d352c;}.cls-13{fill:#3f372d;}.cls-14{fill:#41392f;}.cls-15{fill:#433a30;}.cls-16{fill:#453c32;}.cls-17{fill:#473e33;}.cls-18{clip-path:url(#clip-path-2);}.cls-19{clip-path:url(#clip-path-3);}.cls-20{fill:#4c4237;}.cls-21{clip-path:url(#clip-path-4);}.cls-22{clip-path:url(#clip-path-5);}.cls-23{fill:#635647;}.cls-24{clip-path:url(#clip-path-6);}.cls-25{clip-path:url(#clip-path-7);}.cls-26{clip-path:url(#clip-path-8);}.cls-27{clip-path:url(#clip-path-9);}.cls-28{clip-path:url(#clip-path-10);}.cls-29{clip-path:url(#clip-path-11);}.cls-30{fill:#ecebe5;}.cls-31{fill:#e2ded3;}</style><clipPath id="clip-path"><path class="cls-1" d="M57.25,5.26V9.34c4.24-2.45,11.15-2.45,15.35,0V5.26C68.4,2.82,61.49,2.82,57.25,5.26Z"/></clipPath><clipPath id="clip-path-2"><path class="cls-1" d="M5.92,37.53v4.08C5.93,40,7,38.36,9.12,37.13V33.05C7,34.28,5.92,35.91,5.92,37.53Z"/></clipPath><clipPath id="clip-path-3"><path class="cls-2" d="M0,37.67v4.08c0,1.67,1.06,3.3,3.19,4.54V42.21C1.06,41,0,39.34,0,37.67Z"/></clipPath><clipPath id="clip-path-4"><path class="cls-1" d="M183.61,76.43V72.35c0-1.6-1-3.2-3.14-4.41V72C182.56,73.23,183.61,74.83,183.61,76.43Z"/></clipPath><clipPath id="clip-path-5"><path class="cls-1" d="M189.53,76.29V72.21c0,1.8-1.21,3.63-3.63,5v4.08C188.32,79.91,189.53,78.08,189.53,76.29Z"/></clipPath><clipPath id="clip-path-6"><path class="cls-1" d="M116.44,108v4.07c4.41,2.57,11.84,2.47,16.5-.22V107.8C128.28,110.49,120.85,110.59,116.44,108Z"/></clipPath><clipPath id="clip-path-7"><path class="cls-3" d="M72,18.9l0-4.07a3.53,3.53,0,0,0-2.06-2.9,11.12,11.12,0,0,0-10.08,0V16A11.12,11.12,0,0,1,70,16,3.56,3.56,0,0,1,72,18.9Z"/></clipPath><clipPath id="clip-path-8"><path class="cls-4" d="M43.59,23.05v4.07a3.57,3.57,0,0,1,2.1-2.93V20.11A3.58,3.58,0,0,0,43.59,23.05Z"/></clipPath><clipPath id="clip-path-9"><path class="cls-3" d="M60.27,41.72V45.8c0-1.74,1.15-3.49,3.45-4.82,4.57-2.63,12-2.64,16.5,0,2.25,1.31,3.38,3,3.38,4.75V41.65c0-1.72-1.13-3.43-3.39-4.74-4.54-2.64-11.93-2.64-16.49,0C61.42,38.24,60.27,40,60.27,41.72Z"/></clipPath><clipPath id="clip-path-10"><path class="cls-3" d="M164.81,77.88V82a6.55,6.55,0,0,1,6,0V77.88A6.61,6.61,0,0,0,164.81,77.88Z"/></clipPath><clipPath id="clip-path-11"><path class="cls-1" d="M132.88,97.34v4.07a2.08,2.08,0,0,1,1.24-1.73V95.6A2.11,2.11,0,0,0,132.88,97.34Z"/></clipPath></defs><title>資產 3</title><g id="圖層_2" data-name="圖層 2"><g id="case"><g class="cls-5"><g class="cls-5"><g class="cls-6"><g class="cls-5"><path class="cls-7" d="M57.25,5.26V9.34a13.05,13.05,0,0,1,1.55-.75V4.52a11.62,11.62,0,0,0-1.55.74"/><path class="cls-8" d="M58.8,4.52V8.59c.43-.16.86-.31,1.32-.44l0-4.08a13.45,13.45,0,0,0-1.31.45"/><path class="cls-9" d="M60.11,4.07l0,4.08c.37-.11.74-.2,1.13-.28V3.8q-.59.12-1.14.27"/><path class="cls-10" d="M61.25,3.8V7.87l1.08-.19V3.61c-.37.05-.73.11-1.08.19"/><path class="cls-11" d="M62.33,3.61V7.68c.35,0,.7-.08,1.06-.11V3.49c-.36,0-.71.07-1.06.12"/><path class="cls-12" d="M63.39,3.49V7.57q.54,0,1.08-.06V3.43c-.37,0-.72,0-1.08.06"/><path class="cls-13" d="M64.47,3.43V7.51H65.6V3.44c-.38,0-.75,0-1.12,0"/><path class="cls-14" d="M65.59,3.44V7.51c.4,0,.81,0,1.21.08V3.52c-.4,0-.81-.07-1.21-.08"/><path class="cls-15" d="M66.8,3.52V7.59c.47,0,.93.12,1.39.2V3.71c-.46-.08-.92-.15-1.39-.19"/><path class="cls-16" d="M68.19,3.71V7.79a16.76,16.76,0,0,1,2.06.51l0-4.08a16.16,16.16,0,0,0-2-.51"/><path class="cls-17" d="M70.24,4.22l0,4.08a11.63,11.63,0,0,1,2.35,1V5.26a12,12,0,0,0-2.36-1"/></g></g></g><polygon class="cls-8" points="9.11 33.05 9.12 37.13 57.26 9.34 57.25 5.26 9.11 33.05"/><g class="cls-5"><g class="cls-18"><g class="cls-5"><path class="cls-7" d="M5.92,37.53v4.08C5.93,40,7,38.36,9.12,37.13V33.05C7,34.28,5.92,35.91,5.92,37.53"/></g></g></g><path class="cls-2" d="M0,37.67v4.08c0,1.67,1.06,3.3,3.19,4.54V42.21C1.06,41,0,39.34,0,37.67Z"/><g class="cls-19"><g class="cls-5"><path class="cls-2" d="M0,37.67v0"/><path class="cls-2" d="M0,37.78v4.07a3.72,3.72,0,0,0,.08.67V38.44A3.72,3.72,0,0,1,0,37.78"/><path class="cls-2" d="M.08,38.44v4.08a3.58,3.58,0,0,0,.18.64V39.09a3.69,3.69,0,0,1-.18-.65"/><path class="cls-2" d="M.26,39.09v4.07c.09.22.19.43.3.65V39.73a4.6,4.6,0,0,1-.3-.64"/><path class="cls-2" d="M.56,39.73v4.08a6.44,6.44,0,0,0,.45.66V40.39a6.44,6.44,0,0,1-.45-.66"/><path class="cls-2" d="M1,40.39v4.08a7.65,7.65,0,0,0,.68.73V41.13A6.61,6.61,0,0,1,1,40.39"/><path class="cls-2" d="M1.69,41.13V45.2a8.24,8.24,0,0,0,1.37,1V42.14a9,9,0,0,1-1.37-1"/><path class="cls-2" d="M3.06,42.14v4.07l.13.08V42.21l-.13-.07"/></g></g><polygon class="cls-20" points="72.6 5.26 72.61 9.34 180.47 72.02 180.46 67.94 72.6 5.26"/><g class="cls-5"><g class="cls-21"><g class="cls-5"><path class="cls-17" d="M180.46,67.94V72l.13.07V68l-.13-.08"/><path class="cls-16" d="M180.59,68v4.07a8.29,8.29,0,0,1,1.36,1V69a8.26,8.26,0,0,0-1.36-1"/><path class="cls-15" d="M182,69V73.1a6.48,6.48,0,0,1,.68.72l0-4.07A6.43,6.43,0,0,0,182,69"/><path class="cls-14" d="M182.62,69.75l0,4.07a5.21,5.21,0,0,1,.43.65V70.4a4.38,4.38,0,0,0-.44-.65"/><path class="cls-13" d="M183.06,70.4v4.07a4.32,4.32,0,0,1,.29.62V71a3.87,3.87,0,0,0-.29-.62"/><path class="cls-12" d="M183.35,71v4.07a3.62,3.62,0,0,1,.18.62V71.63a3.28,3.28,0,0,0-.18-.61"/><path class="cls-11" d="M183.53,71.63v4.08a4.36,4.36,0,0,1,.07.62V72.26a4.5,4.5,0,0,0-.07-.63"/><path class="cls-10" d="M183.6,72.26v0"/></g></g></g><g class="cls-5"><g class="cls-22"><g class="cls-5"><path class="cls-7" d="M185.89,77.23v4.08c2.42-1.4,3.63-3.23,3.63-5V72.21c0,1.8-1.21,3.63-3.63,5"/></g></g></g><polygon class="cls-8" points="132.94 107.8 132.95 111.88 185.9 81.31 185.89 77.23 132.94 107.8"/><polygon class="cls-2" points="3.19 42.21 3.2 46.29 116.45 112.1 116.44 108.03 3.19 42.21"/><path class="cls-23" d="M3.63,32.65c-4.66,2.7-4.86,7-.44,9.56L116.44,108c4.41,2.56,11.84,2.46,16.5-.23l52.95-30.57c4.66-2.69,4.86-7,.44-9.56L73.08,1.86C68.66-.7,61.24-.61,56.58,2.09Zm113.29,72L9.06,41.94c-4.2-2.44-4.19-6.44,0-8.89L57.25,5.26c4.24-2.44,11.15-2.44,15.35,0L180.46,67.94c4.21,2.44,4.18,6.45-.05,8.89l-48.14,27.8c-4.24,2.44-11.14,2.44-15.35,0"/><g class="cls-5"><g class="cls-24"><g class="cls-5"><path class="cls-17" d="M116.44,108v4.07a12.25,12.25,0,0,0,2.38,1.05v-4.08a12.23,12.23,0,0,1-2.38-1"/><path class="cls-16" d="M118.82,109.07v4.08a16.63,16.63,0,0,0,2.08.51v-4.07a15.06,15.06,0,0,1-2.08-.52"/><path class="cls-15" d="M120.9,109.59v4.07c.47.09,1,.16,1.45.21v-4.08c-.49-.05-1-.12-1.45-.2"/><path class="cls-14" d="M122.35,109.79v4.08c.42,0,.85.07,1.28.08v-4.07c-.43,0-.86,0-1.28-.09"/><path class="cls-13" d="M123.63,109.88V114c.4,0,.8,0,1.2,0v-4.08q-.6,0-1.2,0"/><path class="cls-12" d="M124.83,109.88V114c.39,0,.78,0,1.17-.07v-4.07q-.59,0-1.17.06"/><path class="cls-11" d="M126,109.82v4.07c.39,0,.78-.07,1.17-.13v-4.07c-.39,0-.78.1-1.17.13"/><path class="cls-10" d="M127.17,109.69v4.07a12.23,12.23,0,0,0,1.21-.21l0-4.07q-.59.12-1.2.21"/><path class="cls-9" d="M128.37,109.48l0,4.07c.43-.09.86-.19,1.28-.31v-4.08c-.42.12-.85.23-1.29.32"/><path class="cls-8" d="M129.66,109.16v4.08q.78-.22,1.5-.51v-4.07a15.51,15.51,0,0,1-1.5.5"/><path class="cls-7" d="M131.16,108.66v4.07a12.69,12.69,0,0,0,1.78-.85V107.8a14.63,14.63,0,0,1-1.78.86"/></g></g></g></g><g class="cls-5"><path class="cls-3" d="M72,18.9l0-4.07a3.53,3.53,0,0,0-2.06-2.9,11.12,11.12,0,0,0-10.08,0V16A11.12,11.12,0,0,1,70,16,3.56,3.56,0,0,1,72,18.9Z"/><g class="cls-25"><g class="cls-5"><path class="cls-3" d="M59.86,11.93V16a6.85,6.85,0,0,1,1-.49V11.44a8,8,0,0,0-1,.49"/><path class="cls-3" d="M60.88,11.44v4.08a8.07,8.07,0,0,1,.87-.29V11.15a8.07,8.07,0,0,0-.87.29"/><path class="cls-3" d="M61.75,11.15v4.08L62.5,15V11c-.25,0-.5.11-.74.18"/><path class="cls-3" d="M62.49,11V15c.24,0,.47-.09.71-.12V10.84l-.71.13"/><path class="cls-3" d="M63.2,10.84v4.08l.69-.08V10.77l-.69.07"/><path class="cls-3" d="M63.89,10.77v4.07l.71,0V10.73c-.24,0-.47,0-.71,0"/><path class="cls-3" d="M64.6,10.73V14.8h.73V10.73H64.6"/><path class="cls-3" d="M65.33,10.73v4.08c.26,0,.53,0,.79,0V10.79c-.26,0-.53,0-.79-.06"/><path class="cls-3" d="M66.12,10.79v4.07A9.06,9.06,0,0,1,67,15V10.91c-.3-.05-.6-.09-.91-.12"/><path class="cls-3" d="M67,10.91V15a9.85,9.85,0,0,1,1.35.33V11.25A11.58,11.58,0,0,0,67,10.91"/><path class="cls-3" d="M68.38,11.25v4.07A7.86,7.86,0,0,1,70,16l.09,0L70,12l-.08-.05a8.45,8.45,0,0,0-1.56-.68"/><path class="cls-3" d="M70,12l0,4.08a5.85,5.85,0,0,1,.9.67l0-4.08A5.54,5.54,0,0,0,70,12"/><path class="cls-3" d="M70.92,12.65l0,4.08a4.81,4.81,0,0,1,.44.47l0-4.07a2.81,2.81,0,0,0-.44-.48"/><path class="cls-3" d="M71.36,13.13l0,4.07a2.87,2.87,0,0,1,.28.43V13.55a2.86,2.86,0,0,0-.29-.42"/><path class="cls-3" d="M71.65,13.55v4.08a2.09,2.09,0,0,1,.19.4V14a2.42,2.42,0,0,0-.19-.4"/><path class="cls-3" d="M71.84,14V18a3,3,0,0,1,.12.4V14.36a3.17,3.17,0,0,0-.12-.41"/><path class="cls-3" d="M72,14.36v4.07a2.85,2.85,0,0,1,0,.41V14.76a2.71,2.71,0,0,0,0-.4"/><path class="cls-3" d="M72,14.76V18.9l0-4.07v-.07"/></g></g><polygon class="cls-4" points="45.69 20.11 45.7 24.19 59.87 16.01 59.86 11.93 45.69 20.11"/><path class="cls-4" d="M43.59,23.05v4.07a3.57,3.57,0,0,1,2.1-2.93V20.11A3.58,3.58,0,0,0,43.59,23.05Z"/><g class="cls-26"><g class="cls-5"><path class="cls-4" d="M43.59,23.05v4.07a3.57,3.57,0,0,1,2.1-2.93V20.11a3.58,3.58,0,0,0-2.1,2.94"/></g></g><path class="cls-3" d="M60.27,41.72V45.8c0-1.74,1.15-3.49,3.45-4.82,4.57-2.63,12-2.64,16.5,0,2.25,1.31,3.38,3,3.38,4.75V41.65c0-1.72-1.13-3.43-3.39-4.74-4.54-2.64-11.93-2.64-16.49,0C61.42,38.24,60.27,40,60.27,41.72Z"/><g class="cls-27"><g class="cls-5"><path class="cls-3" d="M60.27,41.72V45.8c0-1.74,1.15-3.49,3.45-4.82a13,13,0,0,1,1.68-.8V36.1a12.42,12.42,0,0,0-1.68.81c-2.3,1.33-3.45,3.07-3.45,4.81"/><path class="cls-3" d="M65.4,36.1v4.08c.46-.18.93-.34,1.42-.48V35.62c-.49.14-1,.3-1.42.48"/><path class="cls-3" d="M66.82,35.62V39.7c.4-.11.8-.21,1.21-.3V35.33c-.41.08-.82.18-1.21.29"/><path class="cls-3" d="M68,35.33V39.4c.39-.08.77-.15,1.16-.2V35.12c-.39.06-.78.13-1.16.21"/><path class="cls-3" d="M69.19,35.12V39.2c.38-.05.76-.1,1.14-.13l0-4.07c-.38,0-.75.07-1.13.12"/><path class="cls-3" d="M70.32,35l0,4.07c.38,0,.76,0,1.15-.06l0-4.07L70.32,35"/><path class="cls-3" d="M71.47,34.94l0,4.07c.39,0,.79,0,1.19,0V34.94h-1.2"/><path class="cls-3" d="M72.67,34.94V39c.43,0,.87,0,1.3.08L74,35c-.42-.05-.86-.07-1.29-.09"/><path class="cls-3" d="M74,35l0,4.07c.5,0,1,.12,1.48.21V35.23c-.49-.08-1-.15-1.49-.2"/><path class="cls-3" d="M75.45,35.23v4.08a17.41,17.41,0,0,1,2.21.55V35.78a17.41,17.41,0,0,0-2.21-.55"/><path class="cls-3" d="M77.66,35.78v4.08A13.48,13.48,0,0,1,80.23,41l.14.09V37l-.15-.08a13.13,13.13,0,0,0-2.55-1.13"/><path class="cls-3" d="M80.36,37v4.08a8.63,8.63,0,0,1,1.47,1.09V38.08A9.67,9.67,0,0,0,80.36,37"/><path class="cls-3" d="M81.83,38.08v4.08a5.88,5.88,0,0,1,.73.78V38.86a7.44,7.44,0,0,0-.73-.78"/><path class="cls-3" d="M82.56,38.86v4.08a7,7,0,0,1,.47.69V39.56a6.12,6.12,0,0,0-.47-.7"/><path class="cls-3" d="M83,39.56v4.07a5.79,5.79,0,0,1,.31.67V40.22a6.53,6.53,0,0,0-.31-.66"/><path class="cls-3" d="M83.34,40.22V44.3a5.31,5.31,0,0,1,.19.65l0-4.07a4,4,0,0,0-.18-.66"/><path class="cls-3" d="M83.52,40.88l0,4.07a3.91,3.91,0,0,1,.07.67V41.55a3.72,3.72,0,0,0-.08-.67"/><path class="cls-3" d="M83.6,41.55v0"/></g></g><g class="cls-5"><path class="cls-3" d="M164.81,77.88V82a6.55,6.55,0,0,1,6,0V77.88A6.61,6.61,0,0,0,164.81,77.88Z"/><g class="cls-28"><g class="cls-5"><path class="cls-3" d="M164.81,77.88V82a4.15,4.15,0,0,1,.6-.29V77.59a4.15,4.15,0,0,0-.6.29"/><path class="cls-3" d="M165.41,77.59v4.08a5.17,5.17,0,0,1,.51-.18V77.42l-.51.17"/><path class="cls-3" d="M165.92,77.42v4.07l.44-.1V77.31l-.44.11"/><path class="cls-3" d="M166.36,77.31v4.08l.42-.08V77.24l-.42.07"/><path class="cls-3" d="M166.78,77.24v4.07l.42,0,0-4.08-.41,0"/><path class="cls-3" d="M167.19,77.19l0,4.08.41,0V77.17l-.42,0"/><path class="cls-3" d="M167.61,77.17v4.07h.44V77.17h-.44"/><path class="cls-3" d="M168.05,77.17v4.08a3.59,3.59,0,0,1,.47,0V77.2l-.47,0"/><path class="cls-3" d="M168.52,77.2v4.08l.54.07V77.28l-.54-.08"/><path class="cls-3" d="M169.06,77.28v4.07a6.23,6.23,0,0,1,.8.2V77.48a5.2,5.2,0,0,0-.8-.2"/><path class="cls-3" d="M169.86,77.48v4.07a4.51,4.51,0,0,1,.92.41V77.88a4.49,4.49,0,0,0-.92-.4"/></g></g></g><polygon class="cls-4" points="134.12 95.6 134.13 99.67 164.82 81.96 164.81 77.88 134.12 95.6"/><g class="cls-5"><g class="cls-29"><path class="cls-4" d="M132.88,97.34v4.07a2.08,2.08,0,0,1,1.24-1.73V95.6a2.11,2.11,0,0,0-1.24,1.74"/></g></g><path class="cls-30" d="M9.11,33.06C4.87,35.5,4.85,39.5,9.06,42l107.86,62.68c4.2,2.44,11.11,2.44,15.35,0l5.73-3.31-3.9-2.27c-1.63-1-1.62-2.5,0-3.45l30.69-17.72a6.61,6.61,0,0,1,6,0l3.89,2.26,5.74-3.31c4.23-2.44,4.25-6.44.05-8.89L72.6,5.26c-4.21-2.44-11.12-2.44-15.35,0Zm71.05,13.4c-4.57,2.64-12,2.65-16.5,0s-4.51-6.92.06-9.56,12-2.64,16.49,0,4.52,6.92,0,9.55M69.9,17.77,55.73,26a11.1,11.1,0,0,1-10.07,0c-2.77-1.61-2.76-4.23,0-5.84l14.17-8.18a11.12,11.12,0,0,1,10.08,0c2.77,1.61,2.75,4.23,0,5.84"/></g><polygon class="cls-31" points="171.16 82.17 174.67 80.14 174.67 80.14 170.78 77.88 170.79 81.96 171.16 82.17"/></g></g></svg>