<svg xmlns="http://www.w3.org/2000/svg" viewBox="0 0 94.68 187.56"><defs><style>.cls-1{isolation:isolate;}.cls-2{opacity:0.75;mix-blend-mode:multiply;}.cls-3{fill:#503d26;}.cls-4{fill:#3d2304;}.cls-5{fill:#d7d0c0;}.cls-6{fill:#e9ae4c;}.cls-7{fill:#ebcd98;}.cls-8{fill:#f7f8f8;}</style></defs><title>p7_chat</title><g class="cls-1"><g id="圖層_2" data-name="圖層 2"><g id="p7"><g class="cls-2"><path d="M4.52,6a17.53,17.53,0,0,1,16.83.37L66.27,32.28a18.08,18.08,0,0,1,9,15.65V178.17a6.24,6.24,0,0,1-3.15,5.43l-5.32,3a5.76,5.76,0,0,1-6,.15L10.05,157.51a18.07,18.07,0,0,1-9-15.66V11.29A5.75,5.75,0,0,1,4.52,6Z" transform="translate(0 0)"/><path d="M69.49,181.78V51.27a18,18,0,0,0-9-15.65L9.66,6.29A5.7,5.7,0,0,0,4.52,6a17.53,17.53,0,0,1,16.83.37L66.27,32.28a18.08,18.08,0,0,1,9,15.65V178.17a6.24,6.24,0,0,1-3.15,5.43l-5.32,3A5.71,5.71,0,0,0,69.49,181.78Z" transform="translate(0 0)"/><polygon points="6.65 17.45 64.16 50.45 64.16 167.44 6.65 134.32 6.65 17.45"/><path d="M33.42,154.66l-3.17-1.83a3.38,3.38,0,0,0-5.07,2.93V157a7.45,7.45,0,0,0,3.72,6.44l3.17,1.82a3.38,3.38,0,0,0,5.07-2.92V161.1A7.43,7.43,0,0,0,33.42,154.66Z" transform="translate(0 0)"/></g><path class="cls-3" d="M3.52,2a17.53,17.53,0,0,1,16.83.37L65.27,28.28a18.08,18.08,0,0,1,9,15.65V174.17a6.24,6.24,0,0,1-3.15,5.43l-5.32,3a5.76,5.76,0,0,1-6,.15L9.05,153.51a18.07,18.07,0,0,1-9-15.66V7.29A5.75,5.75,0,0,1,3.52,2Z" transform="translate(0 0)"/><path class="cls-4" d="M68.49,177.78V47.27a18,18,0,0,0-9-15.65L8.66,2.29A5.7,5.7,0,0,0,3.52,2a17.53,17.53,0,0,1,16.83.37L65.27,28.28a18.08,18.08,0,0,1,9,15.65V174.17a6.24,6.24,0,0,1-3.15,5.43l-5.32,3A5.71,5.71,0,0,0,68.49,177.78Z" transform="translate(0 0)"/><polygon class="cls-5" points="5.65 13.45 63.16 46.45 63.16 163.44 5.65 130.32 5.65 13.45"/><path class="cls-5" d="M32.42,150.66l-3.17-1.83a3.38,3.38,0,0,0-5.07,2.93V153a7.45,7.45,0,0,0,3.72,6.44l3.17,1.82a3.38,3.38,0,0,0,5.07-2.92V157.1A7.43,7.43,0,0,0,32.42,150.66Z" transform="translate(0 0)"/><polygon class="cls-6" points="56.95 72.99 56.94 77.22 27.18 60.04 27.19 55.8 56.95 72.99"/><polygon class="cls-6" points="70.1 72.01 70.08 76.24 27.2 51.48 27.22 47.26 70.1 72.01"/><path class="cls-7" d="M22.53,38.59,94.68,80.25l-.07,24.5L22.46,63.1ZM70.08,76.24l0-4.23L27.22,47.26l0,4.22L70.08,76.24m-13.14,1V73L27.19,55.81V60L56.94,77.22" transform="translate(0 0)"/><polygon class="cls-8" points="58.51 138.51 58.47 151.11 10.29 123.29 10.32 110.69 58.51 138.51"/></g></g></g></svg>