<svg xmlns="http://www.w3.org/2000/svg" viewBox="0 0 187.43 114.33"><defs><style>.cls-1{isolation:isolate;}.cls-2{opacity:0.75;mix-blend-mode:multiply;}.cls-3{fill:#60718e;}.cls-4{fill:#939eb2;}.cls-5{fill:#c5cbd5;}.cls-6{fill:#acabb1;}.cls-7{fill:#c6c5cb;}.cls-8{fill:#eebf00;}.cls-9{fill:#ecebe5;}.cls-10{fill:#f7f8f8;}.cls-11{fill:#e0e0e2;}</style></defs><title>p7_note</title><g class="cls-1"><g id="圖層_2" data-name="圖層 2"><g id="p7"><g class="cls-2"><path d="M4.55,50.15,3,49.25V47.93L82.55,2,187.42,62.94v4.14h0V68.4l-79.55,45.93L3,53.38V52.06l1.55-.89Z"/><polygon points="3 52.06 3 53.38 107.88 114.33 107.87 113.01 3 52.06"/><polygon points="107.87 113.01 107.88 114.33 187.43 68.4 187.43 67.08 107.87 113.01"/><polygon points="3 47.93 107.87 108.88 187.43 62.95 82.55 2 3 47.93"/><polygon points="4.55 49.33 4.56 52.4 107.66 112.32 107.66 109.25 4.55 49.33"/><polygon points="107.66 109.25 107.66 112.32 185.88 67.17 185.87 64.09 107.66 109.25"/><polygon points="3 47.93 3 49.25 107.88 110.19 107.87 108.88 3 47.93"/><polygon points="107.87 108.88 107.88 110.19 187.43 64.26 187.43 62.95 107.87 108.88"/></g><path class="cls-3" d="M1.55,48.15,0,47.25V45.93L79.55,0,184.42,60.94v4.14h0V66.4l-79.55,45.93L0,51.38V50.06l1.55-.89Z"/><polygon class="cls-4" points="0 50.06 0 51.38 104.88 112.33 104.87 111.01 0 50.06"/><polygon class="cls-4" points="104.87 111.01 104.88 112.33 184.43 66.4 184.43 65.08 104.87 111.01"/><polygon class="cls-5" points="0 45.93 104.87 106.88 184.43 60.95 79.55 0 0 45.93"/><polygon class="cls-6" points="1.55 47.33 1.56 50.4 104.66 110.32 104.66 107.25 1.55 47.33"/><polygon class="cls-7" points="104.66 107.25 104.66 110.32 182.88 65.17 182.87 62.09 104.66 107.25"/><polygon class="cls-4" points="0 45.93 0 47.25 104.88 108.19 104.87 106.88 0 45.93"/><polygon class="cls-4" points="104.87 106.88 104.88 108.19 184.43 62.26 184.43 60.95 104.87 106.88"/><g class="cls-2"><path d="M153.85,58.35a6.52,6.52,0,0,1,.66,5.86c-.76,1.72-2.28,1.88-3.4.36a6.48,6.48,0,0,1-.65-5.86C151.22,57,152.74,56.83,153.85,58.35Z"/><path d="M159.87,63.1A5.06,5.06,0,0,0,154.81,56h-.18l-74.2,8.62h0a2.5,2.5,0,0,0-1.89,1.69,7.89,7.89,0,0,0,.79,7.12,2.51,2.51,0,0,0,2.31,1.24h-.07l3.62-.42-.09,0,70.42-8.19A5.06,5.06,0,0,0,159.87,63.1Z"/><path d="M156.85,57.26a5.22,5.22,0,0,1,1.84.1,5.29,5.29,0,0,0-1.42-.93,5,5,0,0,0-2.46-.41h-.24L80.43,64.65a2.55,2.55,0,0,1,2.24,1.26s74.19-8.64,74.18-8.65Z"/><path d="M147.59,56.84l4.73-.54a2.57,2.57,0,0,1,2.27,1.26l-4.75.54A2.57,2.57,0,0,0,147.59,56.84Z"/><path d="M153.51,66.36l-4.76.54a2.5,2.5,0,0,0,1.88-1.69,7.87,7.87,0,0,0-.8-7.11l4.76-.54a7.87,7.87,0,0,1,.8,7.11A2.5,2.5,0,0,1,153.51,66.36Z"/><path d="M82.67,65.91a7.87,7.87,0,0,1,.8,7.11c-.92,2.09-2.77,2.28-4.13.44a7.89,7.89,0,0,1-.79-7.12C79.47,64.26,81.31,64.06,82.67,65.91Z"/><path d="M83.46,73a7.89,7.89,0,0,0-.79-7.12,2.55,2.55,0,0,0-2.25-1.26h0a1.8,1.8,0,0,0-.62.2h0s-9.34,4.86-9.2,6.46c.12,1.31,10.07,3.3,10.07,3.3h0a2,2,0,0,0,1,.11l-.15,0A2.5,2.5,0,0,0,83.46,73Z"/><path d="M75.08,73.27A7.33,7.33,0,0,0,74.32,68c-2,1.27-3.77,2.61-3.7,3.31S72.79,72.64,75.08,73.27Z"/></g><path class="cls-8" d="M150.85,57.35a6.52,6.52,0,0,1,.66,5.86c-.76,1.72-2.28,1.88-3.4.36a6.48,6.48,0,0,1-.65-5.86C148.22,56,149.74,55.83,150.85,57.35Z"/><path class="cls-9" d="M156.87,62.1A5.06,5.06,0,0,0,151.81,55h-.18l-74.2,8.62h0a2.5,2.5,0,0,0-1.89,1.69,7.89,7.89,0,0,0,.79,7.12,2.51,2.51,0,0,0,2.31,1.24h-.07l3.62-.42-.09,0,70.42-8.19A5.06,5.06,0,0,0,156.87,62.1Z"/><path class="cls-10" d="M153.85,56.26a5.22,5.22,0,0,1,1.84.1,5.29,5.29,0,0,0-1.42-.93,5,5,0,0,0-2.46-.41h-.24L77.43,63.65a2.55,2.55,0,0,1,2.24,1.26s74.19-8.64,74.18-8.65Z"/><path class="cls-4" d="M144.59,55.84l4.73-.54a2.57,2.57,0,0,1,2.27,1.26l-4.75.54A2.57,2.57,0,0,0,144.59,55.84Z"/><path class="cls-3" d="M150.51,65.36l-4.76.54a2.5,2.5,0,0,0,1.88-1.69,7.87,7.87,0,0,0-.8-7.11l4.76-.54a7.87,7.87,0,0,1,.8,7.11A2.5,2.5,0,0,1,150.51,65.36Z"/><path class="cls-11" d="M79.67,64.91a7.87,7.87,0,0,1,.8,7.11c-.92,2.09-2.77,2.28-4.13.44a7.89,7.89,0,0,1-.79-7.12C76.47,63.26,78.31,63.06,79.67,64.91Z"/><path class="cls-10" d="M80.46,72a7.89,7.89,0,0,0-.79-7.12,2.55,2.55,0,0,0-2.25-1.26h0a1.8,1.8,0,0,0-.62.2h0s-9.34,4.86-9.2,6.46c.12,1.31,10.07,3.3,10.07,3.3h0a2,2,0,0,0,1,.11l-.15,0A2.5,2.5,0,0,0,80.46,72Z"/><path class="cls-3" d="M72.08,72.27A7.33,7.33,0,0,0,71.32,67c-2,1.27-3.77,2.61-3.7,3.31S69.79,71.64,72.08,72.27Z"/></g></g></g></svg>