<svg xmlns="http://www.w3.org/2000/svg" viewBox="0 0 195.78 124.55"><defs><style>.cls-1{isolation:isolate;}.cls-2{opacity:0.75;mix-blend-mode:multiply;}.cls-3{fill:#635647;}.cls-4{fill:#503d26;}.cls-5{fill:#d7d0c0;}.cls-6{fill:#ecebe5;}.cls-7{fill:#ebcd98;}.cls-8{fill:#e9ae4c;}</style></defs><title>p7_post</title><g class="cls-1"><g id="圖層_2" data-name="圖層 2"><g id="p7"><g class="cls-2"><path d="M1,80.18a18.21,18.21,0,0,0,9.07,14.94L56.73,122a18.77,18.77,0,0,0,18.76,0L192.54,54.45a6.45,6.45,0,0,0,3.24-5.65l0-6.36a5.94,5.94,0,0,0-3-5.46L140.11,6.52a18.76,18.76,0,0,0-18.77,0L4,74.26A6,6,0,0,0,1,80.18Z" transform="translate(0)"/><path d="M192.77,47.35,75.47,115.07a18.77,18.77,0,0,1-18.76,0L4,84.64A6,6,0,0,1,1,80.18a18.21,18.21,0,0,0,9.07,14.94L56.73,122a18.77,18.77,0,0,0,18.76,0L192.54,54.45a6.45,6.45,0,0,0,3.24-5.65l0-6.36A5.93,5.93,0,0,1,192.77,47.35Z" transform="translate(0)"/><path d="M42.23,88.2l3.28,1.9a3.5,3.5,0,0,1,0,6.07l-1.13.65a7.72,7.72,0,0,1-7.72,0l-3.28-1.89a3.51,3.51,0,0,1,0-6.08l1.13-.65A7.72,7.72,0,0,1,42.23,88.2Z" transform="translate(0)"/><polygon points="22.11 70.44 81.62 105.01 186.77 44.3 127.15 9.8 22.11 70.44"/><polygon points="178.97 48.8 171.85 52.91 113.34 86.7 81.62 105.01 22.11 70.44 53.66 52.24 112.17 18.45 119.3 14.34 178.97 48.8"/><polygon points="171.85 52.91 121.07 82.23 61.39 47.77 112.17 18.45 171.85 52.91"/><polygon points="79.25 80.88 75.45 83.09 43.76 64.79 47.56 62.58 79.25 80.88"/><polygon points="76.31 71.34 72.52 73.55 50.53 60.86 54.33 58.65 76.31 71.34"/><polygon points="92.41 73.23 88.61 75.44 56.92 57.14 60.72 54.93 92.41 73.23"/></g><path class="cls-3" d="M0,76.18A18.21,18.21,0,0,0,9.11,91.12L55.73,118a18.77,18.77,0,0,0,18.76,0L191.54,50.45a6.45,6.45,0,0,0,3.24-5.65l0-6.36a5.94,5.94,0,0,0-3-5.46L139.11,2.52a18.76,18.76,0,0,0-18.77,0L3,70.26A6,6,0,0,0,0,76.18Z" transform="translate(0)"/><path class="cls-4" d="M191.77,43.35,74.47,111.07a18.77,18.77,0,0,1-18.76,0L3,80.64A6,6,0,0,1,0,76.18,18.21,18.21,0,0,0,9.11,91.12L55.73,118a18.77,18.77,0,0,0,18.76,0L191.54,50.45a6.45,6.45,0,0,0,3.24-5.65l0-6.36A5.93,5.93,0,0,1,191.77,43.35Z" transform="translate(0)"/><path class="cls-5" d="M41.23,84.2l3.28,1.9a3.5,3.5,0,0,1,0,6.07l-1.13.65a7.72,7.72,0,0,1-7.72,0l-3.28-1.89a3.51,3.51,0,0,1,0-6.08l1.13-.65A7.72,7.72,0,0,1,41.23,84.2Z" transform="translate(0)"/><polygon class="cls-5" points="21.11 66.44 80.62 101.01 185.77 40.3 126.15 5.8 21.11 66.44"/><polygon class="cls-6" points="177.97 44.8 170.85 48.91 112.34 82.7 80.62 101.01 21.11 66.44 52.66 48.24 111.17 14.45 118.3 10.34 177.97 44.8"/><polygon class="cls-7" points="170.85 48.91 120.07 78.23 60.39 43.77 111.17 14.45 170.85 48.91"/><polygon class="cls-8" points="78.25 76.88 74.45 79.09 42.76 60.79 46.56 58.58 78.25 76.88"/><polygon class="cls-8" points="75.31 67.34 71.52 69.55 49.53 56.86 53.33 54.65 75.31 67.34"/><polygon class="cls-8" points="91.41 69.23 87.61 71.44 55.92 53.14 59.72 50.93 91.41 69.23"/><polygon class="cls-8" points="169 69.83 165.35 71.95 135.59 54.77 139.24 52.65 169 69.83"/><polygon class="cls-8" points="176.4 65.53 172.74 67.66 129.86 42.9 133.52 40.78 176.4 65.53"/><path class="cls-6" d="M123.07,28.79l63.17,36.47L165.06,77.58,101.89,41.1Zm49.67,38.87,3.66-2.13L133.52,40.78l-3.66,2.12,42.88,24.76M165.35,72,169,69.83,139.24,52.65l-3.65,2.12L165.35,72" transform="translate(0)"/></g></g></g></svg>