<svg xmlns="http://www.w3.org/2000/svg" viewBox="0 0 128.08 227.39"><defs><style>.cls-1{opacity:0.45;}.cls-2{fill:#d7d0c0;}.cls-3{fill:#e2ded3;}.cls-4{fill:#ecebe5;}.cls-5{fill:#f7f8f8;}.cls-6{fill:#dcdddd;}.cls-7{fill:#ccc3ad;}.cls-8{fill:#503d26;}</style></defs><title>p8_bag</title><g id="圖層_2" data-name="圖層 2"><g id="p8"><g id="bag"><g class="cls-1"><polygon points="78.25 59.54 76.8 58.69 76.82 65.27 78.27 66.11 78.25 59.54"/><polygon points="78.17 28.24 76.71 27.4 76.8 58.69 78.25 59.54 78.17 28.24"/><path d="M72.74,16.37l-1.46-.84c3.35,1.94,5.41,6,5.43,11.86l1.46.84C78.15,22.43,76.07,18.31,72.74,16.37Z" transform="translate(0 0)"/><path d="M77.84,8.42l-1.46-.84C72.11,5.13,66.31,5.44,59.9,9.16l1.45.84C67.77,6.3,73.56,6,77.84,8.42Z" transform="translate(0 0)"/><polygon points="19.99 60.59 18.54 59.74 18.64 98.86 20.1 99.7 19.99 60.59"/><polygon points="61.35 10 59.9 9.16 41.66 19.69 43.11 20.53 61.35 10"/><path d="M43.11,20.53l-1.45-.84C28.9,27.05,18.49,45.09,18.54,59.74l1.45.85C20,45.93,30.35,27.9,43.11,20.53Z" transform="translate(0 0)"/><path d="M43.11,20.53C30.35,27.9,20,45.93,20,60.59l.12,39.11L26.52,96V89.39L26.44,58.1C26.44,46.34,34.72,32,44.93,26l14.61-8.39c10.21-5.89,18.59-1.07,18.63,10.6l.08,31.3v6.58l6.42-3.74-.11-39.11C84.56,8.61,74,2.64,61.29,10Z" transform="translate(0 0)"/><path id="Circular" d="M10.42,104.54V216.43a10.33,10.33,0,0,0,4.28,8.46l.19.1h0a15.26,15.26,0,0,0,3.27,1.07c1.07.22,2.14.44,3.37.59,5.35.72,11.16,1.31,13.9-.22l1.78-1a10.49,10.49,0,0,1-15.59-9.05V104.54a12.56,12.56,0,0,1-11.21,0Z" transform="translate(0 0)"/><path id="Side" d="M2,211.55a10.36,10.36,0,0,0,4.76,8.78l1.41.8,6.59,3.75a10.29,10.29,0,0,1-4.27-8.46V102.68a11.71,11.71,0,0,1-5.6-1.33l-.5-.29a3.89,3.89,0,0,1-2.31-3.21Z" transform="translate(0 0)"/><path id="Front" d="M21.63,104.54V216.42a10.43,10.43,0,0,0,15.58,9.05l85.52-48.92a10.41,10.41,0,0,0,5.35-9.05V68h0V42.35h0a4.08,4.08,0,0,1-2.3,2.87Z" transform="translate(0 0)"/><path id="TopBase" d="M21.63,104.54,125.75,45.2c3.09-1.77,3.09-4.62,0-6.42l-6-3.42a12.54,12.54,0,0,0-11.2,0L4.34,94.65c-3.1,1.76-3.11,4.63,0,6.41l6.09,3.48A12.54,12.54,0,0,0,21.63,104.54Z" transform="translate(0 0)"/><path d="M114,35.82V50l8.55-4.88c3-1.68,3.41-4.22,1-5.62l-4.84-2.76A8.67,8.67,0,0,0,114,35.82Z" transform="translate(0 0)"/><path id="Top" d="M21.5,102.69l101-57.59c3-1.7,3.41-4.28.95-5.62l-4.85-2.76c-2.46-1.41-6.87-1.17-9.86.53L7.67,94.8c-3,1.7-3.42,4.27-1,5.63l4.92,2.85C14.09,104.63,18.52,104.35,21.5,102.69Z" transform="translate(0 0)"/><path d="M114,35.82V50l8.55-4.88c3-1.68,3.41-4.22,1-5.62l-4.84-2.76A8.67,8.67,0,0,0,114,35.82Z" transform="translate(0 0)"/><polygon points="99.27 67.25 97.81 66.4 97.84 72.99 99.29 73.83 99.27 67.25"/><polygon points="99.18 35.96 97.73 35.11 97.81 66.4 99.27 67.25 99.18 35.96"/><path d="M93.75,24.09l-1.45-.84c3.33,1.93,5.42,6,5.43,11.86l1.49.83C99.22,30.13,97.08,26,93.75,24.09Z" transform="translate(0 0)"/><path d="M98.85,16.14l-1.45-.85c-4.22-2.45-10.06-2.13-16.49,1.59l1.46.88C88.79,14,94.63,13.69,98.85,16.14Z" transform="translate(0 0)"/><polygon points="41.01 68.31 39.55 67.46 39.66 106.57 41.12 107.41 41.01 68.31"/><polygon points="82.37 17.72 80.91 16.88 62.68 27.41 64.13 28.25 82.37 17.72"/><path d="M64.13,28.25l-1.45-.86C49.92,34.75,39.51,52.77,39.55,67.44l1.46.85C41,53.64,51.38,35.62,64.13,28.25Z" transform="translate(0 0)"/><path d="M64.13,28.25C51.38,35.62,41,53.64,41,68.31l.11,39.11,6.41-3.74V97.11l-.05-31.24c0-11.76,8.29-26.15,18.5-32.07l14.58-8.45c10.21-5.89,18.59-1.12,18.66,10.59V73.83l6.54-3.68L105.63,31c0-14.67-10.5-20.63-23.26-13.23Z" transform="translate(0 0)"/><path d="M104.79,107.93a5.09,5.09,0,0,1-.72,4.47,11.65,11.65,0,0,0-1.41,3.56c-.41,1.66-.82,3.32-1.28,5q-2.5,9.08-5,18.14Q93.2,150.31,90,161.51c-.53,1.88-1.06,3.75-1.57,5.62a4.2,4.2,0,0,0-.14,1,6.82,6.82,0,0,1-1.61,4.07,21.63,21.63,0,0,1-2.44,2.52,18.59,18.59,0,0,1-3.06,2.18c-.63.36-1.26.69-1.88,1A37,37,0,0,1,70.05,181c-5.21.84-8.54.94-11.62.35a10,10,0,0,1-4.76-2.05,4.18,4.18,0,0,1-1.48-2.41,5.68,5.68,0,0,1,.75-4.09,5.75,5.75,0,0,0,.45-1.11q2-7.26,4-14.52c1.27-4.55,2.54-9.09,3.84-13.65q2.19-7.75,4.45-15.53c.93-3.21,1.93-6.44,2.89-9.65a3.24,3.24,0,0,0,.14-.73,23.09,23.09,0,0,1,1.53-7,41.88,41.88,0,0,1,2.63-5.55A23,23,0,0,1,78.5,98a12.54,12.54,0,0,1,2-1.49,6.8,6.8,0,0,1,1.57-.67,12,12,0,0,1,5-.48c3.8.65,6.25,3.22,7.51,7.48.14.46.32.72.78.72a17.36,17.36,0,0,1,2.53.24,12.08,12.08,0,0,1,5.08,1.8A4.57,4.57,0,0,1,104.79,107.93Zm-33.91,4.86c-.07.25-.13.5-.24.9l23.82,2.77c-.69-2.59-.55-5.59-.63-8.47-.16-6.76-2.89-10.37-8-11a9.92,9.92,0,0,0-4.19.59,7.52,7.52,0,0,0-1.42.65,16,16,0,0,0-5.09,5.34,33.37,33.37,0,0,0-4.3,9.18m15,58.74A3.89,3.89,0,0,0,87,168.74a.91.91,0,0,0-.17.08,17.29,17.29,0,0,1-5.21,4.49c-.48.27-1,.53-1.45.78a34.54,34.54,0,0,1-12,3.57,27.75,27.75,0,0,1-6.56.05c-3.14-.4-6-1.24-7.83-4.16a2.65,2.65,0,0,0-.24,2.58A6.72,6.72,0,0,0,55,177.87a9.87,9.87,0,0,0,4.76,1.71c5.81.82,12.09-.1,18.89-3.09a24.46,24.46,0,0,0,2.21-1.14c.82-.48,1.65-1,2.46-1.54a14.68,14.68,0,0,0,2.51-2.28M101,117.38l.65-1.89c-.11.06-.2.08-.27.12a25.75,25.75,0,0,1-3.74,2.63A32.56,32.56,0,0,1,92,120.75,37.39,37.39,0,0,1,79.32,123a15.73,15.73,0,0,1-7-1.27,31.66,31.66,0,0,1-3-1.89,1.91,1.91,0,0,0-.07,1.46A4.12,4.12,0,0,0,71,123.42a13.63,13.63,0,0,0,6.79,1.73,36.42,36.42,0,0,0,9.7-1.09,36,36,0,0,0,8.83-3.3l.9-.49a18.09,18.09,0,0,0,3.81-2.89m-30.74-2a1.87,1.87,0,0,0-.14,1.85,5.87,5.87,0,0,0,1.24,1.69,9.33,9.33,0,0,0,4.83,1.92q8.37,1.27,18.16-2.59c.12-.07.22-.15.4-.28l-24.49-2.59m32.63-3a3.06,3.06,0,0,0,.66-2.87,5.41,5.41,0,0,0-1.21-1.83A8.28,8.28,0,0,0,98,105.67c-.91-.17-1.86-.28-3-.44.09,2.83.21,5.34.27,7.88,0,2.39,1.06,3.27,3.09,2.74a5.78,5.78,0,0,0,1.41-.59,11.13,11.13,0,0,0,3.13-3" transform="translate(0 0)"/></g><g id="圖層_2-2" data-name="圖層 2-2"><g id="Bag-2" data-name="Bag"><polygon class="cls-2" points="76.25 53.54 74.8 52.69 74.82 59.27 76.27 60.12 76.25 53.54"/><polygon class="cls-2" points="76.17 22.24 74.71 21.4 74.8 52.69 76.25 53.54 76.17 22.24"/><path class="cls-2" d="M70.74,10.37l-1.46-.84c3.35,1.94,5.41,6.05,5.43,11.86l1.46.84C76.15,16.43,74.07,12.31,70.74,10.37Z" transform="translate(0 0)"/><path class="cls-2" d="M75.84,2.42l-1.46-.84C70.11-.87,64.31-.56,57.9,3.16L59.35,4C65.77.3,71.56,0,75.84,2.42Z" transform="translate(0 0)"/><polygon class="cls-2" points="17.99 54.59 16.54 53.74 16.64 92.86 18.1 93.7 17.99 54.59"/><polygon class="cls-2" points="59.35 4 57.9 3.16 39.66 13.69 41.11 14.53 59.35 4"/><path class="cls-2" d="M41.11,14.53l-1.45-.84C26.9,21.05,16.49,39.09,16.54,53.74l1.45.85C18,39.93,28.35,21.9,41.11,14.53Z" transform="translate(0 0)"/><path class="cls-3" d="M41.11,14.53C28.35,21.9,18,39.93,18,54.59l.12,39.11L24.52,90V83.39L24.44,52.1C24.44,40.34,32.72,26,42.93,20l14.61-8.39c10.21-5.89,18.59-1.07,18.63,10.6l.08,31.3v6.58l6.42-3.74-.11-39.11C82.56,2.61,72-3.36,59.29,4Z" transform="translate(0 0)"/><path id="Circular-2" data-name="Circular" class="cls-3" d="M8.42,98.54V210.43a10.33,10.33,0,0,0,4.28,8.46l.19.1h0a15.26,15.26,0,0,0,3.27,1.07c1.07.22,2.14.44,3.37.59,5.35.72,11.16,1.31,13.9-.22l1.78-1a10.49,10.49,0,0,1-15.59-9.05V98.54a12.56,12.56,0,0,1-11.21,0Z" transform="translate(0 0)"/><path id="Side-2" data-name="Side" class="cls-2" d="M0,205.55a10.36,10.36,0,0,0,4.76,8.78l1.41.8,6.59,3.75a10.29,10.29,0,0,1-4.27-8.46V96.68a11.71,11.71,0,0,1-5.6-1.33l-.5-.29A3.89,3.89,0,0,1,.08,91.85Z" transform="translate(0 0)"/><path id="Front-2" data-name="Front" class="cls-4" d="M19.63,98.54V210.42a10.43,10.43,0,0,0,15.58,9.05l85.52-48.92a10.41,10.41,0,0,0,5.35-9.05V62h0V36.35h0a4.08,4.08,0,0,1-2.3,2.87Z" transform="translate(0 0)"/><path id="TopBase-2" data-name="TopBase" class="cls-5" d="M19.63,98.54,123.75,39.2c3.09-1.77,3.09-4.62,0-6.42l-6-3.42a12.54,12.54,0,0,0-11.2,0L2.34,88.65c-3.1,1.76-3.11,4.63,0,6.41l6.09,3.48A12.54,12.54,0,0,0,19.63,98.54Z" transform="translate(0 0)"/><path class="cls-6" d="M112,29.82V44l8.55-4.88c3-1.68,3.41-4.22,1-5.62l-4.84-2.76A8.67,8.67,0,0,0,112,29.82Z" transform="translate(0 0)"/><path id="Top-2" data-name="Top" class="cls-3" d="M19.5,96.69l101-57.59c3-1.7,3.41-4.28.95-5.62l-4.85-2.76c-2.46-1.41-6.87-1.17-9.86.53L5.67,88.8c-3,1.7-3.42,4.27-1,5.63l4.92,2.85C12.09,98.63,16.52,98.35,19.5,96.69Z" transform="translate(0 0)"/><path class="cls-7" d="M112,29.82V44l8.55-4.88c3-1.68,3.41-4.22,1-5.62l-4.84-2.76A8.67,8.67,0,0,0,112,29.82Z" transform="translate(0 0)"/><polygon class="cls-7" points="97.27 61.25 95.81 60.4 95.84 66.99 97.29 67.83 97.27 61.25"/><polygon class="cls-7" points="97.18 29.96 95.73 29.11 95.81 60.4 97.27 61.25 97.18 29.96"/><path class="cls-7" d="M91.75,18.09l-1.45-.84c3.33,1.93,5.42,6,5.43,11.86l1.49.83C97.22,24.13,95.08,20,91.75,18.09Z" transform="translate(0 0)"/><path class="cls-7" d="M96.85,10.14,95.4,9.29c-4.22-2.45-10.06-2.13-16.49,1.59l1.46.88C86.79,8,92.63,7.69,96.85,10.14Z" transform="translate(0 0)"/><polygon class="cls-7" points="39.01 62.31 37.55 61.46 37.66 100.57 39.12 101.41 39.01 62.31"/><polygon class="cls-7" points="80.37 11.72 78.91 10.88 60.68 21.41 62.13 22.25 80.37 11.72"/><path class="cls-7" d="M62.13,22.25l-1.45-.86C47.92,28.75,37.51,46.77,37.55,61.44l1.46.85C39,47.64,49.38,29.62,62.13,22.25Z" transform="translate(0 0)"/><path class="cls-2" d="M62.13,22.25C49.38,29.62,39,47.64,39,62.31l.11,39.11,6.41-3.74V91.11l-.05-31.24c0-11.76,8.29-26.15,18.5-32.07l14.58-8.45c10.21-5.89,18.59-1.12,18.66,10.59V67.83l6.54-3.68L103.63,25c0-14.67-10.5-20.63-23.26-13.23Z" transform="translate(0 0)"/></g></g><path class="cls-8" d="M102.79,101.93a5.09,5.09,0,0,1-.72,4.47,11.65,11.65,0,0,0-1.41,3.56c-.41,1.66-.82,3.32-1.28,5q-2.5,9.08-5,18.14Q91.2,144.31,88,155.51c-.53,1.88-1.06,3.75-1.57,5.62a4.2,4.2,0,0,0-.14,1,6.82,6.82,0,0,1-1.61,4.07,21.63,21.63,0,0,1-2.44,2.52,18.59,18.59,0,0,1-3.06,2.18c-.63.36-1.26.69-1.88,1A37,37,0,0,1,68.05,175c-5.21.84-8.54.94-11.62.35a10,10,0,0,1-4.76-2.05,4.18,4.18,0,0,1-1.48-2.41,5.68,5.68,0,0,1,.75-4.09,5.75,5.75,0,0,0,.45-1.11q2-7.26,4-14.52c1.27-4.55,2.54-9.09,3.84-13.65q2.19-7.75,4.45-15.53c.93-3.21,1.93-6.44,2.89-9.65a3.24,3.24,0,0,0,.14-.73,23.09,23.09,0,0,1,1.53-7,41.88,41.88,0,0,1,2.63-5.55A23,23,0,0,1,76.5,92a12.54,12.54,0,0,1,2-1.49,6.8,6.8,0,0,1,1.57-.67,12,12,0,0,1,5-.48c3.8.65,6.25,3.22,7.51,7.48.14.46.32.72.78.72a17.36,17.36,0,0,1,2.53.24,12.08,12.08,0,0,1,5.08,1.8A4.57,4.57,0,0,1,102.79,101.93Zm-33.91,4.86c-.07.25-.13.5-.24.9l23.82,2.77c-.69-2.59-.55-5.59-.63-8.47-.16-6.76-2.89-10.37-8-11a9.92,9.92,0,0,0-4.19.59,7.52,7.52,0,0,0-1.42.65,16,16,0,0,0-5.09,5.34,33.37,33.37,0,0,0-4.3,9.18m15,58.74A3.89,3.89,0,0,0,85,162.74a.91.91,0,0,0-.17.08,17.29,17.29,0,0,1-5.21,4.49c-.48.27-1,.53-1.45.78a34.54,34.54,0,0,1-12,3.57,27.75,27.75,0,0,1-6.56.05c-3.14-.4-6-1.24-7.83-4.16a2.65,2.65,0,0,0-.24,2.58A6.72,6.72,0,0,0,53,171.87a9.87,9.87,0,0,0,4.76,1.71c5.81.82,12.09-.1,18.89-3.09a24.46,24.46,0,0,0,2.21-1.14c.82-.48,1.65-1,2.46-1.54a14.68,14.68,0,0,0,2.51-2.28M99,111.38l.65-1.89c-.11.06-.2.08-.27.12a25.75,25.75,0,0,1-3.74,2.63A32.56,32.56,0,0,1,90,114.75,37.39,37.39,0,0,1,77.32,117a15.73,15.73,0,0,1-7-1.27,31.66,31.66,0,0,1-3-1.89,1.91,1.91,0,0,0-.07,1.46A4.12,4.12,0,0,0,69,117.42a13.63,13.63,0,0,0,6.79,1.73,36.42,36.42,0,0,0,9.7-1.09,36,36,0,0,0,8.83-3.3l.9-.49A18.09,18.09,0,0,0,99,111.38m-30.74-2a1.87,1.87,0,0,0-.14,1.85,5.87,5.87,0,0,0,1.24,1.69,9.33,9.33,0,0,0,4.83,1.92q8.37,1.27,18.16-2.59c.12-.07.22-.15.4-.28l-24.49-2.59m32.63-3a3.06,3.06,0,0,0,.66-2.87,5.41,5.41,0,0,0-1.21-1.83A8.28,8.28,0,0,0,96,99.67c-.91-.17-1.86-.28-3-.44.09,2.83.21,5.34.27,7.88,0,2.39,1.06,3.27,3.09,2.74a5.78,5.78,0,0,0,1.41-.59,11.13,11.13,0,0,0,3.13-3" transform="translate(0 0)"/></g></g></g></svg>