<svg xmlns="http://www.w3.org/2000/svg" xmlns:xlink="http://www.w3.org/1999/xlink" viewBox="0 0 161.48 98.93"><defs><style>.cls-1{fill:none;}.cls-2{opacity:0.45;}.cls-3{clip-path:url(#clip-path);}.cls-4{clip-path:url(#clip-path-2);}.cls-5{clip-path:url(#clip-path-3);}.cls-6{clip-path:url(#clip-path-4);}.cls-7{clip-path:url(#clip-path-5);}.cls-8{clip-path:url(#clip-path-6);}.cls-9{clip-path:url(#clip-path-7);}.cls-10{clip-path:url(#clip-path-8);}.cls-11{clip-path:url(#clip-path-9);}.cls-12{clip-path:url(#clip-path-10);}.cls-13{clip-path:url(#clip-path-11);}.cls-14{clip-path:url(#clip-path-12);}.cls-15{fill:#332d25;}.cls-16{fill:#352e26;}.cls-17{fill:#373028;}.cls-18{fill:#393229;}.cls-19{fill:#3b342b;}.cls-20{fill:#3d352c;}.cls-21{fill:#3f372d;}.cls-22{fill:#41392f;}.cls-23{fill:#433a30;}.cls-24{fill:#453c32;}.cls-25{fill:#473e33;}.cls-26{clip-path:url(#clip-path-13);}.cls-27{fill:#503d26;}.cls-28{clip-path:url(#clip-path-14);}.cls-29{fill:#4c4237;}.cls-30{clip-path:url(#clip-path-15);}.cls-31{clip-path:url(#clip-path-16);}.cls-32{fill:#635647;}.cls-33{clip-path:url(#clip-path-17);}.cls-34{fill:#d7d0c0;}.cls-35{clip-path:url(#clip-path-18);}.cls-36{fill:#ccc3ad;}.cls-37{clip-path:url(#clip-path-19);}.cls-38{clip-path:url(#clip-path-20);}.cls-39{clip-path:url(#clip-path-21);}.cls-40{clip-path:url(#clip-path-22);}.cls-41{fill:#ecebe5;}.cls-42{fill:#e2ded3;}</style><clipPath id="clip-path" transform="translate(-0.01)"><path class="cls-1" d="M113.31,7.43v3.43a14.26,14.26,0,0,0-12.91,0V7.43A14.26,14.26,0,0,1,113.31,7.43Z"/></clipPath><clipPath id="clip-path-2" transform="translate(-0.01)"><path class="cls-1" d="M156.51,34.58V38c0-1.35-.91-2.73-2.7-3.77V30.81C155.6,31.85,156.51,33.22,156.51,34.58Z"/></clipPath><clipPath id="clip-path-3" transform="translate(-0.01)"><path class="cls-1" d="M161.49,34.7v3.43c0,1.41-.89,2.78-2.69,3.82V38.52C160.6,37.5,161.49,36.1,161.49,34.7Z"/></clipPath><clipPath id="clip-path-4" transform="translate(-0.01)"><path class="cls-1" d="M7,67.31V63.88c0-1.34.84-2.69,2.64-3.71v3.42C7.87,64.62,7,66,7,67.31Z"/></clipPath><clipPath id="clip-path-5" transform="translate(-0.01)"><path class="cls-1" d="M2,67.2V63.76C2,65.28,3,66.82,5.05,68V71.4C3,70.24,2,68.7,2,67.2Z"/></clipPath><clipPath id="clip-path-6" transform="translate(-0.01)"><path class="cls-1" d="M63.5,93.88v3.43c-3.71,2.16-10,2.07-13.88-.19V93.71C53.54,96,59.79,96.06,63.5,93.88Z"/></clipPath><clipPath id="clip-path-7" transform="translate(-0.01)"><path class="cls-1" d="M100.9,18.9V15.48A3,3,0,0,1,102.63,13a9.34,9.34,0,0,1,8.49,0v3.42a9.39,9.39,0,0,0-8.54,0A3,3,0,0,0,100.9,18.9Z"/></clipPath><clipPath id="clip-path-8" transform="translate(-0.01)"><path class="cls-1" d="M124.81,22.4v3.42A3,3,0,0,0,123,23.36V19.92A3,3,0,0,1,124.81,22.4Z"/></clipPath><clipPath id="clip-path-9" transform="translate(-0.01)"><path class="cls-1" d="M110.77,38.11v3.43c0-1.46-1-2.94-2.9-4.06a15.35,15.35,0,0,0-13.89,0c-1.89,1.11-2.84,2.53-2.84,4V38.05c0-1.45,1-2.89,2.85-4a15.3,15.3,0,0,1,13.88,0C109.8,35.18,110.77,36.66,110.77,38.11Z"/></clipPath><clipPath id="clip-path-10" transform="translate(-0.01)"><path class="cls-1" d="M22.8,68.53V72a5.55,5.55,0,0,0-5.05,0V68.53A5.61,5.61,0,0,1,22.8,68.53Z"/></clipPath><clipPath id="clip-path-11" transform="translate(-0.01)"><path class="cls-1" d="M49.67,84.91v3.43a1.75,1.75,0,0,0-1-1.46V83.45A1.78,1.78,0,0,1,49.67,84.91Z"/></clipPath><clipPath id="clip-path-12" transform="translate(-0.01)"><path class="cls-1" d="M111.31,4.43V7.86a14.26,14.26,0,0,0-12.91,0V4.43A14.26,14.26,0,0,1,111.31,4.43Z"/></clipPath><clipPath id="clip-path-13" transform="translate(-0.01)"><path class="cls-1" d="M154.51,31.58V35c0-1.35-.91-2.73-2.7-3.77V27.81C153.6,28.85,154.51,30.22,154.51,31.58Z"/></clipPath><clipPath id="clip-path-14" transform="translate(-0.01)"><path class="cls-1" d="M159.49,31.7v3.43c0,1.41-.89,2.78-2.69,3.82V35.52C158.6,34.5,159.49,33.1,159.49,31.7Z"/></clipPath><clipPath id="clip-path-15" transform="translate(-0.01)"><path class="cls-1" d="M5,64.31V60.88c0-1.34.84-2.69,2.64-3.71v3.42C5.87,61.62,5,63,5,64.31Z"/></clipPath><clipPath id="clip-path-16" transform="translate(-0.01)"><path class="cls-1" d="M0,64.2V60.76C0,62.28,1,63.82,3.05,65V68.4C1,67.24,0,65.7,0,64.2Z"/></clipPath><clipPath id="clip-path-17" transform="translate(-0.01)"><path class="cls-1" d="M61.5,90.88v3.43c-3.71,2.16-10,2.07-13.88-.19V90.71C51.54,93,57.79,93.06,61.5,90.88Z"/></clipPath><clipPath id="clip-path-18" transform="translate(-0.01)"><path class="cls-1" d="M98.9,15.9V12.48A3,3,0,0,1,100.63,10a9.34,9.34,0,0,1,8.49,0v3.42a9.39,9.39,0,0,0-8.54,0A3,3,0,0,0,98.9,15.9Z"/></clipPath><clipPath id="clip-path-19" transform="translate(-0.01)"><path class="cls-1" d="M122.81,19.4v3.42A3,3,0,0,0,121,20.36V16.92A3,3,0,0,1,122.81,19.4Z"/></clipPath><clipPath id="clip-path-20" transform="translate(-0.01)"><path class="cls-1" d="M108.77,35.11v3.43c0-1.46-1-2.94-2.9-4.06a15.35,15.35,0,0,0-13.89,0c-1.89,1.11-2.84,2.53-2.84,4V35.05c0-1.45,1-2.89,2.85-4a15.3,15.3,0,0,1,13.88,0C107.8,32.18,108.77,33.66,108.77,35.11Z"/></clipPath><clipPath id="clip-path-21" transform="translate(-0.01)"><path class="cls-1" d="M20.8,65.53V69a5.55,5.55,0,0,0-5.05,0V65.53A5.61,5.61,0,0,1,20.8,65.53Z"/></clipPath><clipPath id="clip-path-22" transform="translate(-0.01)"><path class="cls-1" d="M47.67,81.91v3.43a1.75,1.75,0,0,0-1-1.46V80.45A1.78,1.78,0,0,1,47.67,81.91Z"/></clipPath></defs><title>p8_case</title><g id="圖層_2" data-name="圖層 2"><g id="p8"><g id="圖層_2-2" data-name="圖層 2"><g class="cls-2"><g class="cls-3"><path d="M113.31,7.43v3.43a10.38,10.38,0,0,0-1.3-.63V6.8a10.38,10.38,0,0,1,1.3.63" transform="translate(-0.01)"/><path d="M112,6.8v3.43c-.36-.14-.73-.26-1.11-.37V6.42c.37.11.74.24,1.1.38" transform="translate(-0.01)"/><path d="M110.91,6.42V9.86c-.32-.09-.63-.17-1-.24V6.2c.33.06.65.14,1,.22" transform="translate(-0.01)"/><path d="M110,6.2V9.62L109,9.46V6a9.1,9.1,0,0,1,.91.16" transform="translate(-0.01)"/><path d="M109,6V9.46c-.3,0-.59-.07-.89-.09V5.94A6.73,6.73,0,0,1,109,6" transform="translate(-0.01)"/><path d="M108.15,5.94V9.37a9.08,9.08,0,0,1-.91,0V5.89a5.56,5.56,0,0,1,.91.05" transform="translate(-0.01)"/><path d="M107.24,5.89V9.32h-.95V5.89h.94" transform="translate(-0.01)"/><path d="M106.29,5.89V9.32a4.91,4.91,0,0,0-1,.07V6c.33,0,.68-.06,1-.07" transform="translate(-0.01)"/><path d="M105.28,6V9.39a7.49,7.49,0,0,0-1.17.16V6.12c.38-.07.77-.12,1.17-.16" transform="translate(-0.01)"/><path d="M104.11,6.12V9.55a14.73,14.73,0,0,0-1.74.43V6.55a13.94,13.94,0,0,1,1.69-.43" transform="translate(-0.01)"/><path d="M102.38,6.55V10a9.61,9.61,0,0,0-2,.85V7.43a10.28,10.28,0,0,1,2-.85" transform="translate(-0.01)"/></g><polygon points="153.81 30.81 153.81 34.24 113.3 10.86 113.3 7.43 153.81 30.81"/><g class="cls-4"><path d="M156.51,34.58V38c0-1.35-.91-2.73-2.7-3.77V30.81c1.79,1,2.7,2.41,2.7,3.77" transform="translate(-0.01)"/></g><path d="M161.49,34.7v3.43c0,1.41-.89,2.78-2.69,3.82V38.52C160.6,37.5,161.49,36.1,161.49,34.7Z" transform="translate(-0.01)"/><g class="cls-5"><path d="M161.49,34.79v3.43a3.57,3.57,0,0,1-.07.56V35.35a3.57,3.57,0,0,0,.07-.56" transform="translate(-0.01)"/><path d="M161.42,35.35v3.43a2.72,2.72,0,0,1-.15.54V35.89a2.55,2.55,0,0,0,.15-.54" transform="translate(-0.01)"/><path d="M161.27,35.89v3.43l-.25.55V36.43a4.45,4.45,0,0,0,.25-.54" transform="translate(-0.01)"/><path d="M161,36.43v3.44c-.12.19-.24.37-.38.55V37c.14-.18.26-.37.38-.56" transform="translate(-0.01)"/><path d="M160.65,37v3.43a5.58,5.58,0,0,1-.58.61V37.61a5.67,5.67,0,0,0,.58-.62" transform="translate(-0.01)"/><path d="M160.07,37.61V41a6.91,6.91,0,0,1-1.16.85V38.46a8,8,0,0,0,1.16-.84" transform="translate(-0.01)"/><path d="M158.91,38.46v3.42l-.11.07V38.52l.11-.06" transform="translate(-0.01)"/></g><polygon points="100.39 7.43 100.38 10.86 9.62 63.6 9.62 60.17 100.39 7.43"/><g class="cls-6"><path d="M9.63,60.17v3.42l-.11.06V60.22l.11-.07" transform="translate(-0.01)"/><path d="M9.52,60.22v3.43a6.7,6.7,0,0,0-1.14.84V61.06a6.7,6.7,0,0,1,1.14-.84" transform="translate(-0.01)"/><path d="M8.34,61.06v3.45a5.58,5.58,0,0,0-.58.61V61.69a6.87,6.87,0,0,1,.58-.63" transform="translate(-0.01)"/><path d="M7.81,61.69v3.43a4.35,4.35,0,0,0-.36.55V62.24a4.07,4.07,0,0,1,.37-.55" transform="translate(-0.01)"/><path d="M7.44,62.24v3.43a4.12,4.12,0,0,0-.24.52V62.75a4.27,4.27,0,0,1,.24-.53" transform="translate(-0.01)"/><path d="M7.2,62.75v3.42a2.38,2.38,0,0,0-.15.52V63.28a2.38,2.38,0,0,1,.15-.52" transform="translate(-0.01)"/><path d="M7.05,63.28v3.43a4.6,4.6,0,0,0-.06.52V63.81a4.52,4.52,0,0,1,.06-.53" transform="translate(-0.01)"/></g><g class="cls-7"><path d="M5.06,68v3.43c-2-1.18-3-2.72-3-4.21V63.76C2,65.28,3,66.82,5.06,68" transform="translate(-0.01)"/></g><polygon points="49.61 93.71 49.6 97.15 5.05 71.42 5.05 67.99 49.61 93.71"/><polygon points="158.79 38.52 158.79 41.95 63.49 97.33 63.5 93.91 158.79 38.52"/><path d="M158.43,30.47c3.92,2.28,4.09,5.89.37,8.05L63.5,93.88c-3.71,2.15-10,2.07-13.88-.19L5.06,68c-3.92-2.26-4.09-5.89-.37-8L100,4.56c3.72-2.15,10-2.07,13.89.2ZM63.1,91.06l90.76-52.77c3.54-2,3.53-5.42,0-7.48L113.31,7.43a14.26,14.26,0,0,0-12.91,0L9.63,60.17c-3.54,2-3.52,5.43,0,7.48L50.18,91A14.28,14.28,0,0,0,63.1,91" transform="translate(-0.01)"/><g class="cls-8"><path d="M63.5,93.88v3.43a10.21,10.21,0,0,1-2,.88V94.76a10.11,10.11,0,0,0,2-.85" transform="translate(-0.01)"/><path d="M61.5,94.78v3.43a13.14,13.14,0,0,1-1.75.43V95.22a13.18,13.18,0,0,0,1.75-.44" transform="translate(-0.01)"/><path d="M59.75,95.22v3.42c-.39.08-.84.14-1.22.18V95.39c.41,0,.84-.1,1.22-.17" transform="translate(-0.01)"/><path d="M58.53,95.39v3.43c-.35,0-.71.06-1.08.07V95.46a5.5,5.5,0,0,0,1.08-.07" transform="translate(-0.01)"/><path d="M57.45,95.46v3.47h-1V95.5h1" transform="translate(-0.01)"/><path d="M56.44,95.46v3.47a5.43,5.43,0,0,1-1-.06V95.45a7.94,7.94,0,0,1,1,0" transform="translate(-0.01)"/><path d="M55.46,95.41v3.43a6.39,6.39,0,0,1-1-.11V95.3c.32,0,.65.09,1,.11" transform="translate(-0.01)"/><path d="M54.48,95.3v3.43a8.35,8.35,0,0,1-1-.18V95.13l1,.17" transform="translate(-0.01)"/><path d="M53.47,95.13v3.42c-.37-.07-.73-.16-1.08-.26V94.86q.53.15,1.08.27" transform="translate(-0.01)"/><path d="M52.38,94.86v3.43a11.64,11.64,0,0,1-1.26-.43V94.44q.62.24,1.26.42" transform="translate(-0.01)"/><path d="M51.12,94.44v3.42a11.44,11.44,0,0,1-1.5-.71V93.71a11.55,11.55,0,0,0,1.5.73" transform="translate(-0.01)"/></g><path d="M100.9,18.9V15.48A3,3,0,0,1,102.63,13a9.34,9.34,0,0,1,8.49,0v3.42a9.39,9.39,0,0,0-8.54,0A3,3,0,0,0,100.9,18.9Z" transform="translate(-0.01)"/><g class="cls-9"><path d="M111.12,13v3.42a6.06,6.06,0,0,0-.85-.41V12.63a5.54,5.54,0,0,1,.85.41" transform="translate(-0.01)"/><path d="M110.26,12.63v3.43a5.19,5.19,0,0,0-.73-.24V12.38a7,7,0,0,1,.73.25" transform="translate(-0.01)"/><path d="M109.53,12.38v3.44l-.64-.2V12.26a2.23,2.23,0,0,1,.63.15" transform="translate(-0.01)"/><path d="M108.9,12.26v3.36a4,4,0,0,1-.59-.1v-3.4l.59.11" transform="translate(-0.01)"/><path d="M108.31,12.12v3.43l-.58-.06V12.06l.58.06" transform="translate(-0.01)"/><path d="M107.73,12.06v3.43h-.6V12h.6" transform="translate(-0.01)"/><path d="M107.13,12v3.42h-.62V12h.62" transform="translate(-0.01)"/><path d="M106.51,12v3.43h-.66V12.08a2.94,2.94,0,0,0,.66-.05" transform="translate(-0.01)"/><path d="M105.85,12.08V15.5c-.25,0-.5.07-.74.12V12.18c.25,0,.5-.08.76-.1" transform="translate(-0.01)"/><path d="M105.11,12.18v3.44a8.62,8.62,0,0,0-1.14.28V12.47a8.65,8.65,0,0,1,1.14-.29" transform="translate(-0.01)"/><path d="M104,12.47v3.42a6.84,6.84,0,0,0-1.37.57h-.07l.07-3.36.07,0a7.26,7.26,0,0,1,1.31-.58" transform="translate(-0.01)"/><path d="M102.58,13.1v3.43a4.58,4.58,0,0,0-.75.56V13.66a4.58,4.58,0,0,1,.75-.56" transform="translate(-0.01)"/><path d="M101.81,13.64v3.44a3.41,3.41,0,0,0-.37.39V14.05a2.41,2.41,0,0,1,.37-.41" transform="translate(-0.01)"/><path d="M101.44,14.05v3.42a3.75,3.75,0,0,0-.24.36V14.4a2.8,2.8,0,0,1,.25-.35" transform="translate(-0.01)"/><path d="M101.2,14.4v3.43a1.5,1.5,0,0,0-.16.34V14.78a1.5,1.5,0,0,1,.16-.34" transform="translate(-0.01)"/><path d="M101,14.78v3.37a2.13,2.13,0,0,0-.11.33v-3.4a2.24,2.24,0,0,1,.11-.34" transform="translate(-0.01)"/><path d="M100.9,15.08v3.43a1.93,1.93,0,0,0,0,.34V15.42a1.93,1.93,0,0,1,0-.34" transform="translate(-0.01)"/><path d="M100.9,15.42v0" transform="translate(-0.01)"/></g><polygon points="123.03 19.92 123.02 23.36 111.1 16.47 111.11 13.04 123.03 19.92"/><path d="M124.81,22.4v3.42A3,3,0,0,0,123,23.36V19.92A3,3,0,0,1,124.81,22.4Z" transform="translate(-0.01)"/><g class="cls-10"><path d="M124.81,22.4v3.42A3,3,0,0,0,123,23.36V19.92a3,3,0,0,1,1.77,2.48" transform="translate(-0.01)"/></g><path d="M110.77,38.11v3.43c0-1.46-1-2.94-2.9-4.06a15.35,15.35,0,0,0-13.89,0c-1.89,1.11-2.84,2.53-2.84,4V38.05c0-1.45,1-2.89,2.85-4a15.3,15.3,0,0,1,13.88,0C109.8,35.18,110.77,36.66,110.77,38.11Z" transform="translate(-0.01)"/><g class="cls-11"><path d="M110.77,38.11v3.43c0-1.46-1-2.94-2.9-4.06a12.27,12.27,0,0,0-1.42-.67V33.38a10.87,10.87,0,0,1,1.42.68c1.93,1.12,2.9,2.58,2.9,4" transform="translate(-0.01)"/><path d="M106.45,33.38v3.43a11.07,11.07,0,0,0-1.19-.4V33a11,11,0,0,1,1.19.41" transform="translate(-0.01)"/><path d="M105.26,33v3.44c-.34-.1-.67-.18-1-.26V32.73q.53.1,1,.24" transform="translate(-0.01)"/><path d="M104.27,32.73v3.42c-.33-.06-.65-.12-1-.16V32.55c.33.05.66.11,1,.18" transform="translate(-0.01)"/><path d="M103.27,32.55V36c-.32-.05-.64-.09-1-.11V32.45a7.65,7.65,0,0,1,1,.1" transform="translate(-0.01)"/><path d="M102.31,32.45v3.43a6.18,6.18,0,0,1-1-.05V32.4l1,.05" transform="translate(-0.01)"/><path d="M101.35,32.4v3.43h-1V32.4h1" transform="translate(-0.01)"/><path d="M100.34,32.4v3.42a6.7,6.7,0,0,0-1.1.06l0-3.43c.35,0,.72-.06,1.08-.07" transform="translate(-0.01)"/><path d="M99.22,32.45v3.43a7.52,7.52,0,0,0-1.25.17v-3.4c.41-.07.84-.13,1.26-.17" transform="translate(-0.01)"/><path d="M98,32.65v3.43a14.86,14.86,0,0,0-1.86.46V33.11A13.29,13.29,0,0,1,98,32.65" transform="translate(-0.01)"/><path d="M96.14,33.11v3.43a11.28,11.28,0,0,0-2.16,1l-.12.08V34.13l.12-.06a11.16,11.16,0,0,1,2.15-1" transform="translate(-0.01)"/><path d="M93.87,34.13v3.44a7,7,0,0,0-1.24.92V35a8.59,8.59,0,0,1,1.24-.91" transform="translate(-0.01)"/><path d="M92.63,35v3.44a5.43,5.43,0,0,0-.62.65V35.7a7.69,7.69,0,0,1,.62-.66" transform="translate(-0.01)"/><path d="M92,35.7v3.43c-.14.19-.27.38-.39.58V36.29A6,6,0,0,1,92,35.7" transform="translate(-0.01)"/><path d="M91.64,36.29v3.42c-.09.19-.18.37-.26.57V36.84c.08-.19.17-.37.26-.55" transform="translate(-0.01)"/><path d="M91.36,36.84v3.44a3.68,3.68,0,0,0-.16.54V37.4a2.73,2.73,0,0,1,.15-.56" transform="translate(-0.01)"/><path d="M91.21,37.4v3.42a2.76,2.76,0,0,0-.06.57V38a2.68,2.68,0,0,1,.07-.56" transform="translate(-0.01)"/></g><path d="M22.8,68.53V72a5.55,5.55,0,0,0-5.05,0V68.53A5.61,5.61,0,0,1,22.8,68.53Z" transform="translate(-0.01)"/><g class="cls-12"><path d="M22.8,68.53V72a4.59,4.59,0,0,0-.5-.24V68.29a4.59,4.59,0,0,1,.5.24" transform="translate(-0.01)"/><path d="M22.3,68.29v3.43l-.43-.15V68.15l.43.14" transform="translate(-0.01)"/><path d="M21.87,68.15v3.42l-.37-.08V68.06l.37.09" transform="translate(-0.01)"/><path d="M21.5,68.06v3.43l-.36-.07V68l.36.06" transform="translate(-0.01)"/><path d="M21.14,68v3.42h-.35V68h.35" transform="translate(-0.01)"/><path d="M20.8,68v3.44h-.35V67.94h.36" transform="translate(-0.01)"/><path d="M20.45,67.94v3.42h-.37V67.94h.37" transform="translate(-0.01)"/><path d="M20.08,67.94v3.43a2.67,2.67,0,0,0-.4,0V68h.4" transform="translate(-0.01)"/><path d="M19.68,68V71.4l-.45,0V68l.45-.07" transform="translate(-0.01)"/><path d="M19.23,68v3.42c-.23,0-.46.1-.68.17V68.2a4,4,0,0,1,.68-.17" transform="translate(-0.01)"/><path d="M18.55,68.2v3.42a3.57,3.57,0,0,0-.77.35V68.53a3.51,3.51,0,0,1,.77-.33" transform="translate(-0.01)"/></g><polygon points="48.62 83.45 48.61 86.87 22.79 71.97 22.79 68.53 48.62 83.45"/><g class="cls-13"><path d="M49.67,84.91v3.43a1.75,1.75,0,0,0-1-1.46V83.45a1.78,1.78,0,0,1,1,1.46" transform="translate(-0.01)"/></g><path d="M153.82,30.82c3.57,2,3.59,5.42,0,7.52L63.1,91.09a14.34,14.34,0,0,1-12.92,0L45.36,88.3l3.28-1.91c1.38-.84,1.37-2.1,0-2.9L22.82,68.58a5.55,5.55,0,0,0-5.05,0l-3.27,1.9L9.67,67.69c-3.56-2-3.58-5.42-.05-7.48L100.4,7.43a14.26,14.26,0,0,1,12.91,0ZM94,42.1a15.29,15.29,0,0,0,13.89,0c3.79-2.23,3.79-5.83,0-8.05a15.3,15.3,0,0,0-13.88,0c-3.78,2.22-3.8,5.82,0,8M102.67,18l11.92,6.93a9.38,9.38,0,0,0,8.48,0c2.33-1.36,2.32-3.56,0-4.92l-11.93-6.88a9.38,9.38,0,0,0-8.48,0c-2.33,1.36-2.31,3.56,0,4.91" transform="translate(-0.01)"/><polygon points="17.45 72.14 14.5 70.44 14.5 70.44 17.77 68.53 17.76 71.97 17.45 72.14"/></g><g id="case-2" data-name="case"><g class="cls-14"><path class="cls-15" d="M111.31,4.43V7.86a10.38,10.38,0,0,0-1.3-.63V3.8a10.38,10.38,0,0,1,1.3.63" transform="translate(-0.01)"/><path class="cls-16" d="M110,3.8V7.23c-.36-.14-.73-.26-1.11-.37V3.42c.37.11.74.24,1.1.38" transform="translate(-0.01)"/><path class="cls-17" d="M108.91,3.42V6.86c-.32-.09-.63-.17-1-.24V3.2c.33.06.65.14,1,.22" transform="translate(-0.01)"/><path class="cls-18" d="M108,3.2V6.62L107,6.46V3a9.1,9.1,0,0,1,.91.16" transform="translate(-0.01)"/><path class="cls-19" d="M107,3V6.46c-.3,0-.59-.07-.89-.09V2.94A6.73,6.73,0,0,1,107,3" transform="translate(-0.01)"/><path class="cls-20" d="M106.15,2.94V6.37a9.08,9.08,0,0,1-.91,0V2.89a5.56,5.56,0,0,1,.91,0" transform="translate(-0.01)"/><path class="cls-21" d="M105.24,2.89V6.32h-.95V2.89h.94" transform="translate(-0.01)"/><path class="cls-22" d="M104.29,2.89V6.32a4.91,4.91,0,0,0-1,.07V3c.33,0,.68-.06,1-.07" transform="translate(-0.01)"/><path class="cls-23" d="M103.28,3V6.39a7.49,7.49,0,0,0-1.17.16V3.12c.38-.07.77-.12,1.17-.16" transform="translate(-0.01)"/><path class="cls-24" d="M102.11,3.12V6.55a14.73,14.73,0,0,0-1.74.43V3.55a13.94,13.94,0,0,1,1.69-.43" transform="translate(-0.01)"/><path class="cls-25" d="M100.38,3.55V7a9.61,9.61,0,0,0-2,.85V4.43a10.28,10.28,0,0,1,2-.85" transform="translate(-0.01)"/></g><polygon class="cls-16" points="151.81 27.81 151.81 31.24 111.3 7.86 111.3 4.43 151.81 27.81"/><g class="cls-26"><path class="cls-15" d="M154.51,31.58V35c0-1.35-.91-2.73-2.7-3.77V27.81c1.79,1,2.7,2.41,2.7,3.77" transform="translate(-0.01)"/></g><path class="cls-27" d="M159.49,31.7v3.43c0,1.41-.89,2.78-2.69,3.82V35.52C158.6,34.5,159.49,33.1,159.49,31.7Z" transform="translate(-0.01)"/><g class="cls-28"><path class="cls-27" d="M159.49,31.79v3.43a3.57,3.57,0,0,1-.07.56V32.35a3.57,3.57,0,0,0,.07-.56" transform="translate(-0.01)"/><path class="cls-27" d="M159.42,32.35v3.43a2.72,2.72,0,0,1-.15.54V32.89a2.55,2.55,0,0,0,.15-.54" transform="translate(-0.01)"/><path class="cls-27" d="M159.27,32.89v3.43l-.25.55V33.43a4.45,4.45,0,0,0,.25-.54" transform="translate(-0.01)"/><path class="cls-27" d="M159,33.43v3.44c-.12.19-.24.37-.38.55V34c.14-.18.26-.37.38-.56" transform="translate(-0.01)"/><path class="cls-27" d="M158.65,34v3.43a5.58,5.58,0,0,1-.58.61V34.61a5.67,5.67,0,0,0,.58-.62" transform="translate(-0.01)"/><path class="cls-27" d="M158.07,34.61V38a6.91,6.91,0,0,1-1.16.85V35.46a8,8,0,0,0,1.16-.84" transform="translate(-0.01)"/><path class="cls-27" d="M156.91,35.46v3.42l-.11.07V35.52l.11-.06" transform="translate(-0.01)"/></g><polygon class="cls-29" points="98.39 4.43 98.38 7.86 7.62 60.6 7.62 57.17 98.39 4.43"/><g class="cls-30"><path class="cls-25" d="M7.63,57.17v3.42l-.11.06V57.22l.11-.07" transform="translate(-0.01)"/><path class="cls-24" d="M7.52,57.22v3.43a6.7,6.7,0,0,0-1.14.84V58.06a6.7,6.7,0,0,1,1.14-.84" transform="translate(-0.01)"/><path class="cls-23" d="M6.34,58.06v3.45a5.58,5.58,0,0,0-.58.61V58.69a6.87,6.87,0,0,1,.58-.63" transform="translate(-0.01)"/><path class="cls-22" d="M5.81,58.69v3.43a4.35,4.35,0,0,0-.36.55V59.24a4.07,4.07,0,0,1,.37-.55" transform="translate(-0.01)"/><path class="cls-21" d="M5.44,59.24v3.43a4.12,4.12,0,0,0-.24.52V59.75a4.27,4.27,0,0,1,.24-.53" transform="translate(-0.01)"/><path class="cls-20" d="M5.2,59.75v3.42a2.38,2.38,0,0,0-.15.52V60.28a2.38,2.38,0,0,1,.15-.52" transform="translate(-0.01)"/><path class="cls-19" d="M5.05,60.28v3.43a4.6,4.6,0,0,0-.06.52V60.81a4.52,4.52,0,0,1,.06-.53" transform="translate(-0.01)"/></g><g class="cls-31"><path class="cls-15" d="M3.06,65v3.43C1,67.24,0,65.7,0,64.21V60.76C0,62.28,1,63.82,3.06,65" transform="translate(-0.01)"/></g><polygon class="cls-16" points="47.61 90.71 47.6 94.15 3.05 68.42 3.06 64.99 47.61 90.71"/><polygon class="cls-27" points="156.79 35.52 156.79 38.95 61.49 94.33 61.5 90.91 156.79 35.52"/><path class="cls-32" d="M156.43,27.47c3.92,2.28,4.09,5.89.37,8.05L61.5,90.88c-3.71,2.15-10,2.07-13.88-.19L3.06,65c-3.92-2.26-4.09-5.89-.37-8L98,1.56c3.72-2.15,10-2.07,13.89.2ZM61.1,88.06l90.76-52.77c3.54-2,3.53-5.42,0-7.48L111.31,4.43a14.26,14.26,0,0,0-12.91,0L7.63,57.17c-3.54,2-3.52,5.43,0,7.48L48.18,88A14.28,14.28,0,0,0,61.1,88" transform="translate(-0.01)"/><g class="cls-33"><path class="cls-25" d="M61.5,90.88v3.43a10.21,10.21,0,0,1-2,.88V91.76a10.11,10.11,0,0,0,2-.85" transform="translate(-0.01)"/><path class="cls-24" d="M59.5,91.78v3.43a13.14,13.14,0,0,1-1.75.43V92.22a13.18,13.18,0,0,0,1.75-.44" transform="translate(-0.01)"/><path class="cls-23" d="M57.75,92.22v3.42c-.39.08-.84.14-1.22.18V92.39c.41,0,.84-.1,1.22-.17" transform="translate(-0.01)"/><path class="cls-22" d="M56.53,92.39v3.43c-.35,0-.71.06-1.08.07V92.46a5.5,5.5,0,0,0,1.08-.07" transform="translate(-0.01)"/><path class="cls-21" d="M55.45,92.46v3.47h-1V92.5h1" transform="translate(-0.01)"/><path class="cls-20" d="M54.44,92.46v3.47a5.43,5.43,0,0,1-1-.06V92.45a7.94,7.94,0,0,1,1,0" transform="translate(-0.01)"/><path class="cls-19" d="M53.46,92.41v3.43a6.39,6.39,0,0,1-1-.11V92.3c.32,0,.65.09,1,.11" transform="translate(-0.01)"/><path class="cls-18" d="M52.48,92.3v3.43a8.35,8.35,0,0,1-1-.18V92.13l1,.17" transform="translate(-0.01)"/><path class="cls-17" d="M51.47,92.13v3.42c-.37-.07-.73-.16-1.08-.26V91.86q.53.15,1.08.27" transform="translate(-0.01)"/><path class="cls-16" d="M50.38,91.86v3.43a11.64,11.64,0,0,1-1.26-.43V91.44q.62.24,1.26.42" transform="translate(-0.01)"/><path class="cls-15" d="M49.12,91.44v3.42a11.44,11.44,0,0,1-1.5-.71V90.71a11.55,11.55,0,0,0,1.5.73" transform="translate(-0.01)"/></g><path class="cls-34" d="M98.9,15.9V12.48A3,3,0,0,1,100.63,10a9.34,9.34,0,0,1,8.49,0v3.42a9.39,9.39,0,0,0-8.54,0A3,3,0,0,0,98.9,15.9Z" transform="translate(-0.01)"/><g class="cls-35"><path class="cls-34" d="M109.12,10v3.42a6.06,6.06,0,0,0-.85-.41V9.63a5.54,5.54,0,0,1,.85.41" transform="translate(-0.01)"/><path class="cls-34" d="M108.26,9.63v3.43a5.19,5.19,0,0,0-.73-.24V9.38a7,7,0,0,1,.73.25" transform="translate(-0.01)"/><path class="cls-34" d="M107.53,9.38v3.44l-.64-.2V9.26a2.23,2.23,0,0,1,.63.15" transform="translate(-0.01)"/><path class="cls-34" d="M106.9,9.26v3.36a4,4,0,0,1-.59-.1V9.12l.59.11" transform="translate(-0.01)"/><path class="cls-34" d="M106.31,9.12v3.43l-.58-.06V9.06l.58.06" transform="translate(-0.01)"/><path class="cls-34" d="M105.73,9.06v3.43h-.6V9h.6" transform="translate(-0.01)"/><path class="cls-34" d="M105.13,9v3.42h-.62V9h.62" transform="translate(-0.01)"/><path class="cls-34" d="M104.51,9v3.43h-.66V9.08a2.94,2.94,0,0,0,.66-.05" transform="translate(-0.01)"/><path class="cls-34" d="M103.85,9.08V12.5c-.25,0-.5.07-.74.12V9.18c.25,0,.5-.08.76-.1" transform="translate(-0.01)"/><path class="cls-34" d="M103.11,9.18v3.44a8.62,8.62,0,0,0-1.14.28V9.47a8.65,8.65,0,0,1,1.14-.29" transform="translate(-0.01)"/><path class="cls-34" d="M102,9.47v3.42a6.84,6.84,0,0,0-1.37.57h-.07l.07-3.36.07,0A7.26,7.26,0,0,1,102,9.48" transform="translate(-0.01)"/><path class="cls-34" d="M100.58,10.1v3.43a4.58,4.58,0,0,0-.75.56V10.66a4.58,4.58,0,0,1,.75-.56" transform="translate(-0.01)"/><path class="cls-34" d="M99.81,10.64v3.44a3.41,3.41,0,0,0-.37.39V11.05a2.41,2.41,0,0,1,.37-.41" transform="translate(-0.01)"/><path class="cls-34" d="M99.44,11.05v3.42a3.75,3.75,0,0,0-.24.36V11.4a2.8,2.8,0,0,1,.25-.35" transform="translate(-0.01)"/><path class="cls-34" d="M99.2,11.4v3.43a1.5,1.5,0,0,0-.16.34V11.78a1.5,1.5,0,0,1,.16-.34" transform="translate(-0.01)"/><path class="cls-34" d="M99,11.78v3.37a2.13,2.13,0,0,0-.11.33v-3.4a2.24,2.24,0,0,1,.11-.34" transform="translate(-0.01)"/><path class="cls-34" d="M98.9,12.08v3.43a1.93,1.93,0,0,0,0,.34V12.42a1.93,1.93,0,0,1,0-.34" transform="translate(-0.01)"/><path class="cls-34" d="M98.9,12.42v0" transform="translate(-0.01)"/></g><polygon class="cls-36" points="121.03 16.92 121.02 20.36 109.1 13.47 109.11 10.04 121.03 16.92"/><path class="cls-36" d="M122.81,19.4v3.42A3,3,0,0,0,121,20.36V16.92A3,3,0,0,1,122.81,19.4Z" transform="translate(-0.01)"/><g class="cls-37"><path class="cls-36" d="M122.81,19.4v3.42A3,3,0,0,0,121,20.36V16.92a3,3,0,0,1,1.77,2.48" transform="translate(-0.01)"/></g><path class="cls-34" d="M108.77,35.11v3.43c0-1.46-1-2.94-2.9-4.06a15.35,15.35,0,0,0-13.89,0c-1.89,1.11-2.84,2.53-2.84,4V35.05c0-1.45,1-2.89,2.85-4a15.3,15.3,0,0,1,13.88,0C107.8,32.18,108.77,33.66,108.77,35.11Z" transform="translate(-0.01)"/><g class="cls-38"><path class="cls-34" d="M108.77,35.11v3.43c0-1.46-1-2.94-2.9-4.06a12.27,12.27,0,0,0-1.42-.67V30.38a10.87,10.87,0,0,1,1.42.68c1.93,1.12,2.9,2.58,2.9,4.05" transform="translate(-0.01)"/><path class="cls-34" d="M104.45,30.38v3.43a11.07,11.07,0,0,0-1.19-.4V30a11,11,0,0,1,1.19.41" transform="translate(-0.01)"/><path class="cls-34" d="M103.26,30v3.44c-.34-.1-.67-.18-1-.26V29.73q.53.11,1,.24" transform="translate(-0.01)"/><path class="cls-34" d="M102.27,29.73v3.42c-.33-.06-.65-.12-1-.16V29.55c.33.05.66.11,1,.18" transform="translate(-0.01)"/><path class="cls-34" d="M101.27,29.55V33c-.32-.05-.64-.09-1-.11V29.45a7.65,7.65,0,0,1,1,.1" transform="translate(-0.01)"/><path class="cls-34" d="M100.31,29.45v3.43a6.18,6.18,0,0,1-1-.05V29.4l1,.05" transform="translate(-0.01)"/><path class="cls-34" d="M99.35,29.4v3.43h-1V29.4h1" transform="translate(-0.01)"/><path class="cls-34" d="M98.34,29.4v3.42a6.7,6.7,0,0,0-1.1.06l0-3.43c.35,0,.72-.06,1.08-.07" transform="translate(-0.01)"/><path class="cls-34" d="M97.22,29.45v3.43a7.52,7.52,0,0,0-1.25.17v-3.4c.41-.07.84-.13,1.26-.17" transform="translate(-0.01)"/><path class="cls-34" d="M96,29.65v3.43a14.86,14.86,0,0,0-1.86.46V30.11A13.29,13.29,0,0,1,96,29.65" transform="translate(-0.01)"/><path class="cls-34" d="M94.14,30.11v3.43a11.28,11.28,0,0,0-2.16,1l-.12.08V31.13l.12-.06a11.16,11.16,0,0,1,2.15-.95" transform="translate(-0.01)"/><path class="cls-34" d="M91.87,31.13v3.44a7,7,0,0,0-1.24.92V32a8.59,8.59,0,0,1,1.24-.91" transform="translate(-0.01)"/><path class="cls-34" d="M90.63,32v3.44a5.43,5.43,0,0,0-.62.65V32.7a7.69,7.69,0,0,1,.62-.66" transform="translate(-0.01)"/><path class="cls-34" d="M90,32.7v3.43c-.14.19-.27.38-.39.58V33.29A6,6,0,0,1,90,32.7" transform="translate(-0.01)"/><path class="cls-34" d="M89.64,33.29v3.42c-.09.19-.18.37-.26.57V33.84c.08-.19.17-.37.26-.55" transform="translate(-0.01)"/><path class="cls-34" d="M89.36,33.84v3.44a3.68,3.68,0,0,0-.16.54V34.4a2.73,2.73,0,0,1,.15-.56" transform="translate(-0.01)"/><path class="cls-34" d="M89.21,34.4v3.42a2.76,2.76,0,0,0-.06.57V35a2.68,2.68,0,0,1,.07-.56" transform="translate(-0.01)"/></g><path class="cls-34" d="M20.8,65.53V69a5.55,5.55,0,0,0-5.05,0V65.53A5.61,5.61,0,0,1,20.8,65.53Z" transform="translate(-0.01)"/><g class="cls-39"><path class="cls-34" d="M20.8,65.53V69a4.59,4.59,0,0,0-.5-.24V65.29a4.59,4.59,0,0,1,.5.24" transform="translate(-0.01)"/><path class="cls-34" d="M20.3,65.29v3.43l-.43-.15V65.15l.43.14" transform="translate(-0.01)"/><path class="cls-34" d="M19.87,65.15v3.42l-.37-.08V65.06l.37.09" transform="translate(-0.01)"/><path class="cls-34" d="M19.5,65.06v3.43l-.36-.07V65l.36.06" transform="translate(-0.01)"/><path class="cls-34" d="M19.14,65v3.42h-.35V65h.35" transform="translate(-0.01)"/><path class="cls-34" d="M18.8,65v3.44h-.35V64.94h.36" transform="translate(-0.01)"/><path class="cls-34" d="M18.45,64.94v3.42h-.37V64.94h.37" transform="translate(-0.01)"/><path class="cls-34" d="M18.08,64.94v3.43a2.67,2.67,0,0,0-.4,0V65h.4" transform="translate(-0.01)"/><path class="cls-34" d="M17.68,65V68.4l-.45,0V65l.45-.07" transform="translate(-0.01)"/><path class="cls-34" d="M17.23,65v3.42c-.23,0-.46.1-.68.17V65.2a4,4,0,0,1,.68-.17" transform="translate(-0.01)"/><path class="cls-34" d="M16.55,65.2v3.42a3.57,3.57,0,0,0-.77.35V65.53a3.51,3.51,0,0,1,.77-.33" transform="translate(-0.01)"/></g><polygon class="cls-36" points="46.62 80.45 46.61 83.87 20.79 68.97 20.79 65.53 46.62 80.45"/><g class="cls-40"><path class="cls-36" d="M47.67,81.91v3.43a1.75,1.75,0,0,0-1-1.46V80.45a1.78,1.78,0,0,1,1,1.46" transform="translate(-0.01)"/></g><path class="cls-41" d="M151.82,27.82c3.57,2.05,3.59,5.42,0,7.52L61.1,88.09a14.34,14.34,0,0,1-12.92,0L43.36,85.3l3.28-1.91c1.38-.84,1.37-2.1,0-2.9L20.82,65.58a5.55,5.55,0,0,0-5.05,0l-3.27,1.9L7.67,64.69c-3.56-2-3.58-5.42,0-7.48L98.4,4.43a14.26,14.26,0,0,1,12.91,0ZM92,39.1a15.29,15.29,0,0,0,13.89,0c3.79-2.23,3.79-5.83,0-8a15.3,15.3,0,0,0-13.88,0c-3.78,2.22-3.8,5.82,0,8M100.67,15l11.92,6.93a9.38,9.38,0,0,0,8.48,0c2.33-1.36,2.32-3.56,0-4.92l-11.93-6.88a9.38,9.38,0,0,0-8.48,0c-2.33,1.36-2.31,3.56,0,4.91" transform="translate(-0.01)"/><polygon class="cls-42" points="15.45 69.14 12.5 67.44 12.5 67.44 15.77 65.53 15.76 68.97 15.45 69.14"/></g></g></g></g></svg>