<svg xmlns="http://www.w3.org/2000/svg" xmlns:xlink="http://www.w3.org/1999/xlink" viewBox="0 0 69.28 123.56"><defs><style>.cls-1{fill:none;}.cls-2{fill:#3d2304;}.cls-3{opacity:0.45;}.cls-4{fill:#e2ded3;}.cls-5{fill:#ecebe5;}.cls-6{fill:#503d26;}.cls-7{fill:#ccc3ad;}.cls-8{fill:url(#Polka);}</style><pattern id="Polka" data-name="Polka" width="53.36" height="53.36" patternTransform="translate(-46.98 101.15) rotate(20) scale(0.23)" patternUnits="userSpaceOnUse" viewBox="0 0 53.36 53.36"><rect class="cls-1" width="53.36" height="53.36"/><circle class="cls-2" cx="40.02" cy="53.36" r="7.34"/><circle class="cls-2" cx="13.34" cy="53.36" r="7.34"/><circle class="cls-2" cx="53.36" cy="26.68" r="7.34"/><circle class="cls-2" cx="26.68" cy="26.68" r="7.34"/><circle class="cls-2" cy="26.68" r="7.34"/><circle class="cls-2" cx="40.02" r="7.34"/><circle class="cls-2" cx="13.34" r="7.34"/></pattern></defs><title>p8_can</title><g id="圖層_2" data-name="圖層 2"><g id="p8"><g class="cls-3"><path d="M5.05,37.49a7,7,0,0,0,1.36.71,15.73,15.73,0,0,0,7.53,1.08,6.53,6.53,0,0,0,4.94-2.69,12.4,12.4,0,0,0,2-3.73c.66-2.39,1-4.88,1.5-7.56a60,60,0,0,0-11.73,2.77,17.72,17.72,0,0,0-5.93,3.29C2.43,33.41,2.57,35.73,5.05,37.49Z"/><path d="M63.11,47.43c0-1.81.17-3.62.27-5.62-1.49.67-2.79,1.33-4.15,1.86-6.78,2.63-13.89,3.48-21.07,3.81a82.57,82.57,0,0,1-17.2-1A48,48,0,0,1,6.19,42a8.71,8.71,0,0,0-.88-.37c0,.54,0,.92,0,1.3.1,3.52.29,7,.3,10.58q.13,25.47.17,50.92A4.69,4.69,0,0,0,8,108.77a28.29,28.29,0,0,0,7.45,3.33,69.09,69.09,0,0,0,19.4,2.56,64.77,64.77,0,0,0,20.37-2.83,17.67,17.67,0,0,0,6.45-3.41,2.49,2.49,0,0,0,1-2.21c-.13-1.47-.13-3-.12-4.44Q62.83,74.6,63.11,47.43Z"/><path d="M57.6,113.78A50.42,50.42,0,0,1,44,116.93a86.3,86.3,0,0,1-18.25,0,51.39,51.39,0,0,1-14.25-3.35A16.47,16.47,0,0,1,6,110.22a29.07,29.07,0,0,1-1.94-2.3c-1.55,2-1.54,3.16.11,4.84a9.3,9.3,0,0,0,2.27,1.78,37.1,37.1,0,0,0,5.27,2.37,67.5,67.5,0,0,0,19,3.13A79,79,0,0,0,53.58,118a27.19,27.19,0,0,0,8.52-3.41,11.66,11.66,0,0,0,2.59-2.42,2.44,2.44,0,0,0,0-3.1A17.55,17.55,0,0,1,57.6,113.78Z"/><path d="M56.3,9.53A22.56,22.56,0,0,0,42.2,7.44C35,8.74,27.34,13.82,25.73,23.07c-.47,2.69-.92,5.38-1.32,8.08a14,14,0,0,1-3.2,7.58,3.34,3.34,0,0,0-.31.67c15-2.85,29.81-5.87,44.9-8.13,0-2.49.08-4.88,0-7.27A15.87,15.87,0,0,0,56.3,9.53Z"/><path d="M66.42,40.12a2.57,2.57,0,0,1,.44-1.39,10.45,10.45,0,0,0,2-5.72,75.86,75.86,0,0,0,.39-9c-.24-8.1-4.15-14-11.43-17.4A24.87,24.87,0,0,0,38.55,5.43C31.38,8,26.17,12.51,23.64,19.83c-.28.8-.5,1.63-.75,2.44-2.53.46-4.89.81-7.22,1.33A34.36,34.36,0,0,0,5,27.61,11.73,11.73,0,0,0,1.25,31C-.14,33.11-.44,35.4,1.1,37.41a5.66,5.66,0,0,1,1.13,4.87,3.87,3.87,0,0,0,0,.68q.15,30.18.29,60.34a4.43,4.43,0,0,1-1,3.27,5.5,5.5,0,0,0-.13,7.49A15.87,15.87,0,0,0,5,117.21a29.9,29.9,0,0,0,9.26,3.85,84.43,84.43,0,0,0,37.09.86,36.48,36.48,0,0,0,11.54-4,12.73,12.73,0,0,0,4.25-3.64,5.57,5.57,0,0,0,.07-6.84,4.77,4.77,0,0,1-1.09-3.88,4.81,4.81,0,0,0,0-.85q0-26.07.06-52.13C66.16,47.07,66.3,43.59,66.42,40.12ZM4.69,31.36a17.72,17.72,0,0,1,5.93-3.29A60,60,0,0,1,22.35,25.3c-.51,2.68-.84,5.17-1.5,7.56a12.4,12.4,0,0,1-2,3.73,6.53,6.53,0,0,1-4.94,2.69A15.73,15.73,0,0,1,6.41,38.2a7,7,0,0,1-1.36-.71C2.57,35.73,2.43,33.41,4.69,31.36Zm58,74.85a2.49,2.49,0,0,1-1,2.21,17.67,17.67,0,0,1-6.45,3.41,64.77,64.77,0,0,1-20.37,2.83,69.09,69.09,0,0,1-19.4-2.56A28.29,28.29,0,0,1,8,108.77a4.69,4.69,0,0,1-2.26-4.39q0-25.45-.17-50.92c0-3.53-.2-7.06-.3-10.58,0-.38,0-.76,0-1.3a8.71,8.71,0,0,1,.88.37A48,48,0,0,0,21,46.49a82.57,82.57,0,0,0,17.2,1c7.18-.33,14.29-1.18,21.07-3.81,1.36-.53,2.66-1.19,4.15-1.86-.1,2-.25,3.81-.27,5.62q-.28,27.18-.54,54.34C62.56,103.25,62.56,104.74,62.69,106.21Zm2,5.94a11.66,11.66,0,0,1-2.59,2.42A27.19,27.19,0,0,1,53.58,118,79,79,0,0,1,30.69,120a67.5,67.5,0,0,1-19-3.13,37.1,37.1,0,0,1-5.27-2.37,9.3,9.3,0,0,1-2.27-1.78c-1.65-1.68-1.66-2.89-.11-4.84A29.07,29.07,0,0,0,6,110.22a16.47,16.47,0,0,0,5.5,3.36,51.39,51.39,0,0,0,14.25,3.35,86.3,86.3,0,0,0,18.25,0,50.42,50.42,0,0,0,13.59-3.15,17.55,17.55,0,0,0,7.06-4.73A2.44,2.44,0,0,1,64.69,112.15ZM65.8,31.27c-15.09,2.26-29.89,5.28-44.9,8.13a3.34,3.34,0,0,1,.31-.67,14,14,0,0,0,3.2-7.58c.4-2.7.85-5.39,1.32-8.08C27.34,13.82,35,8.74,42.2,7.44A22.56,22.56,0,0,1,56.3,9.53,15.87,15.87,0,0,1,65.79,24C65.88,26.39,65.8,28.78,65.8,31.27Z"/><path d="M19.3,42.58a3.48,3.48,0,0,0,.6.3,78.53,78.53,0,0,0,32.17-.4,30.86,30.86,0,0,0,9.83-3.65A17.24,17.24,0,0,0,65,36.28a2.17,2.17,0,0,0,.66-2.49Z"/><path d="M63.11,47.43c0-1.81.17-3.62.27-5.62-1.49.67-2.79,1.33-4.15,1.86-6.78,2.63-13.89,3.48-21.07,3.81a82.57,82.57,0,0,1-17.2-1A48,48,0,0,1,6.19,42a8.71,8.71,0,0,0-.88-.37c0,.54,0,.92,0,1.3.1,3.52.29,7,.3,10.58q.13,25.47.17,50.92A4.69,4.69,0,0,0,8,108.77a28.29,28.29,0,0,0,7.45,3.33,69.09,69.09,0,0,0,19.4,2.56,64.77,64.77,0,0,0,20.37-2.83,17.67,17.67,0,0,0,6.45-3.41,2.49,2.49,0,0,0,1-2.21c-.13-1.47-.13-3-.12-4.44Q62.83,74.6,63.11,47.43Z"/></g><path class="cls-4" d="M5.05,33.49a7,7,0,0,0,1.36.71,15.73,15.73,0,0,0,7.53,1.08,6.53,6.53,0,0,0,4.94-2.69,12.4,12.4,0,0,0,2-3.73c.66-2.39,1-4.88,1.5-7.56a60,60,0,0,0-11.73,2.77,17.72,17.72,0,0,0-5.93,3.29C2.43,29.41,2.57,31.73,5.05,33.49Z"/><path class="cls-5" d="M63.11,43.43c0-1.81.17-3.62.27-5.62-1.49.67-2.79,1.33-4.15,1.86-6.78,2.63-13.89,3.48-21.07,3.81a82.57,82.57,0,0,1-17.2-1A48,48,0,0,1,6.19,38a8.71,8.71,0,0,0-.88-.37c0,.54,0,.92,0,1.3.1,3.52.29,7,.3,10.58q.13,25.47.17,50.92A4.69,4.69,0,0,0,8,104.77a28.29,28.29,0,0,0,7.45,3.33,69.09,69.09,0,0,0,19.4,2.56,64.77,64.77,0,0,0,20.37-2.83,17.67,17.67,0,0,0,6.45-3.41,2.49,2.49,0,0,0,1-2.21c-.13-1.47-.13-3-.12-4.44Q62.83,70.6,63.11,43.43Z"/><path class="cls-4" d="M57.6,109.78A50.42,50.42,0,0,1,44,112.93a86.3,86.3,0,0,1-18.25,0,51.39,51.39,0,0,1-14.25-3.35A16.47,16.47,0,0,1,6,106.22a29.07,29.07,0,0,1-1.94-2.3c-1.55,2-1.54,3.16.11,4.84a9.3,9.3,0,0,0,2.27,1.78,37.1,37.1,0,0,0,5.27,2.37,67.5,67.5,0,0,0,19,3.13A79,79,0,0,0,53.58,114a27.19,27.19,0,0,0,8.52-3.41,11.66,11.66,0,0,0,2.59-2.42,2.44,2.44,0,0,0,0-3.1A17.55,17.55,0,0,1,57.6,109.78Z"/><path class="cls-4" d="M56.3,5.53A22.56,22.56,0,0,0,42.2,3.44C35,4.74,27.34,9.82,25.73,19.07c-.47,2.69-.92,5.38-1.32,8.08a14,14,0,0,1-3.2,7.58,3.34,3.34,0,0,0-.31.67c15-2.85,29.81-5.87,44.9-8.13,0-2.49.08-4.88,0-7.27A15.87,15.87,0,0,0,56.3,5.53Z"/><path class="cls-6" d="M66.42,36.12a2.57,2.57,0,0,1,.44-1.39,10.45,10.45,0,0,0,2-5.72,75.86,75.86,0,0,0,.39-9C69,11.87,65.11,6,57.83,2.57A24.87,24.87,0,0,0,38.55,1.43C31.38,4,26.17,8.51,23.64,15.83c-.28.8-.5,1.63-.75,2.44-2.53.46-4.89.81-7.22,1.33A34.36,34.36,0,0,0,5,23.61,11.73,11.73,0,0,0,1.25,27C-.14,29.11-.44,31.4,1.1,33.41a5.66,5.66,0,0,1,1.13,4.87,3.87,3.87,0,0,0,0,.68q.15,30.18.29,60.34a4.43,4.43,0,0,1-1,3.27,5.5,5.5,0,0,0-.13,7.49A15.87,15.87,0,0,0,5,113.21a29.9,29.9,0,0,0,9.26,3.85,84.43,84.43,0,0,0,37.09.86,36.48,36.48,0,0,0,11.54-4,12.73,12.73,0,0,0,4.25-3.64,5.57,5.57,0,0,0,.07-6.84,4.77,4.77,0,0,1-1.09-3.88,4.81,4.81,0,0,0,0-.85q0-26.07.06-52.13C66.16,43.07,66.3,39.59,66.42,36.12ZM4.69,27.36a17.72,17.72,0,0,1,5.93-3.29A60,60,0,0,1,22.35,21.3c-.51,2.68-.84,5.17-1.5,7.56a12.4,12.4,0,0,1-2,3.73,6.53,6.53,0,0,1-4.94,2.69A15.73,15.73,0,0,1,6.41,34.2a7,7,0,0,1-1.36-.71C2.57,31.73,2.43,29.41,4.69,27.36Zm58,74.85a2.49,2.49,0,0,1-1,2.21,17.67,17.67,0,0,1-6.45,3.41,64.77,64.77,0,0,1-20.37,2.83,69.09,69.09,0,0,1-19.4-2.56A28.29,28.29,0,0,1,8,104.77a4.69,4.69,0,0,1-2.26-4.39q0-25.45-.17-50.92c0-3.53-.2-7.06-.3-10.58,0-.38,0-.76,0-1.3a8.71,8.71,0,0,1,.88.37A48,48,0,0,0,21,42.49a82.57,82.57,0,0,0,17.2,1c7.18-.33,14.29-1.18,21.07-3.81,1.36-.53,2.66-1.19,4.15-1.86-.1,2-.25,3.81-.27,5.62q-.28,27.18-.54,54.34C62.56,99.25,62.56,100.74,62.69,102.21Zm2,5.94a11.66,11.66,0,0,1-2.59,2.42A27.19,27.19,0,0,1,53.58,114,79,79,0,0,1,30.69,116a67.5,67.5,0,0,1-19-3.13,37.1,37.1,0,0,1-5.27-2.37,9.3,9.3,0,0,1-2.27-1.78c-1.65-1.68-1.66-2.89-.11-4.84A29.07,29.07,0,0,0,6,106.22a16.47,16.47,0,0,0,5.5,3.36,51.39,51.39,0,0,0,14.25,3.35,86.3,86.3,0,0,0,18.25,0,50.42,50.42,0,0,0,13.59-3.15,17.55,17.55,0,0,0,7.06-4.73A2.44,2.44,0,0,1,64.69,108.15ZM65.8,27.27c-15.09,2.26-29.89,5.28-44.9,8.13a3.34,3.34,0,0,1,.31-.67,14,14,0,0,0,3.2-7.58c.4-2.7.85-5.39,1.32-8.08C27.34,9.82,35,4.74,42.2,3.44A22.56,22.56,0,0,1,56.3,5.53,15.87,15.87,0,0,1,65.79,20C65.88,22.39,65.8,24.78,65.8,27.27Z"/><path class="cls-7" d="M19.3,38.58a3.48,3.48,0,0,0,.6.3,78.53,78.53,0,0,0,32.17-.4,30.86,30.86,0,0,0,9.83-3.65A17.24,17.24,0,0,0,65,32.28a2.17,2.17,0,0,0,.66-2.49Z"/><path class="cls-8" d="M63.11,43.43c0-1.81.17-3.62.27-5.62-1.49.67-2.79,1.33-4.15,1.86-6.78,2.63-13.89,3.48-21.07,3.81a82.57,82.57,0,0,1-17.2-1A48,48,0,0,1,6.19,38a8.71,8.71,0,0,0-.88-.37c0,.54,0,.92,0,1.3.1,3.52.29,7,.3,10.58q.13,25.47.17,50.92A4.69,4.69,0,0,0,8,104.77a28.29,28.29,0,0,0,7.45,3.33,69.09,69.09,0,0,0,19.4,2.56,64.77,64.77,0,0,0,20.37-2.83,17.67,17.67,0,0,0,6.45-3.41,2.49,2.49,0,0,0,1-2.21c-.13-1.47-.13-3-.12-4.44Q62.83,70.6,63.11,43.43Z"/></g></g></svg>