<svg xmlns="http://www.w3.org/2000/svg" viewBox="0 0 206.66 123.89"><defs><style>.cls-1{opacity:0.4;}.cls-2{fill:#635647;}.cls-3{fill:#352e26;}.cls-4{fill:#503d26;}.cls-5{fill:#8fbdf2;}.cls-6{fill:#fec9a3;}.cls-7{isolation:isolate;}.cls-8{fill:#cae5fd;}.cls-9{fill:#6e3c1e;}.cls-10{fill:#fec093;}.cls-11{fill:#995023;}.cls-12{fill:#85461e;}.cls-13{fill:#feb784;}</style></defs><title>p8_paint</title><g id="圖層_2" data-name="圖層 2"><g id="p8"><g id="paint"><g class="cls-1"><polygon points="206.66 64.59 111.06 119.08 3 57.49 98.6 3 206.66 64.59"/><polygon points="206.66 69.4 111.06 123.89 111.06 119.08 206.66 64.59 206.66 69.4"/><polygon points="3 57.49 111.06 119.08 111.06 123.89 3.04 62.32 3 57.49"/><polygon points="104.15 18.11 30.49 60.92 24.54 57.48 98.2 14.68 104.15 18.11"/><polygon points="132.87 80.65 130.06 82.28 144.71 87.56 137.49 91.75 122.36 86.76 132.87 80.65"/><path d="M111.78,61.91l-5.67,3.29c-6.25,3.64-16.66,3.51-23.23-.28L74,59.77,85.3,53.19a12.77,12.77,0,0,1,11.62.14Z"/><path d="M184.44,64.47,161.77,77.64c6.26-3.64,6-9.66-.56-13.46L146.35,55.6c-6.57-3.79-17-3.92-23.23-.28L102.94,43.67c-8-4.6-20-5.18-28.21-1.48-4.39,2.07-7,5.16-7.13,8.51s2.17,6.65,6.37,9.07l8.91,5.15c6.57,3.79,17,3.92,23.23.28L94.78,71.79c-6.25,3.63-6,9.66.57,13.45l14.87,8.58c6.57,3.8,17,3.92,23.22.29l-22.66,13.16L24.54,57.48,98.2,14.68,24.54,57.48l5.95,3.44,73.66-42.81Z"/><path d="M102.69,43.53l.25.14,20.18,11.65c7.07,4.08,8.42,10.35,3.24,15l-14.58-8.41L96.92,53.33a12.77,12.77,0,0,0-11.62-.14L74,59.77c-4.2-2.42-6.51-5.72-6.37-9.07s2.74-6.44,7.13-8.51C83,38.49,95,39.07,102.69,43.53Z"/><path d="M126.36,70.32a14.42,14.42,0,0,1-2.54,1.81c-7.83,4.55-20.83,4.4-29-.34l17-9.88Z"/><path d="M161.21,64.18c6.58,3.8,6.82,9.82.56,13.46l-4.25,2.47-14.73-5.22,7.09-4.12L123.12,55.32c6.26-3.64,16.66-3.51,23.23.28Z"/><polygon points="157.52 80.11 150.53 84.17 135.9 78.89 132.87 80.65 142.79 74.89 157.52 80.11"/><path d="M123.12,55.32l26.76,15.45-7.09,4.12-9.92,5.76-10.51,6.11-.82.48L94.78,71.79c8.21,4.74,21.21,4.89,29,.34a14.42,14.42,0,0,0,2.54-1.81C131.54,65.67,130.19,59.4,123.12,55.32Z"/><polygon points="150.53 84.17 144.71 87.56 130.06 82.28 132.87 80.65 135.9 78.89 150.53 84.17"/><path d="M137.49,91.75l-4.05,2.36c-6.26,3.63-16.65,3.51-23.22-.29L95.35,85.24c-6.57-3.79-6.82-9.82-.57-13.45l26.76,15.45.82-.48Z"/></g><polygon class="cls-2" points="203.66 61.59 108.06 116.08 0 54.49 95.6 0 203.66 61.59"/><polygon class="cls-3" points="203.66 66.4 108.06 120.89 108.06 116.08 203.66 61.59 203.66 66.4"/><polygon class="cls-4" points="0 54.49 108.06 116.08 108.06 120.89 0.04 59.32 0 54.49"/><polygon class="cls-5" points="101.15 15.11 27.49 57.92 21.54 54.48 95.2 11.68 101.15 15.11"/><polygon class="cls-6" points="129.87 77.65 127.06 79.28 141.71 84.56 134.49 88.75 119.36 83.76 129.87 77.65"/><g class="cls-7"><path class="cls-6" d="M108.78,58.91l-5.67,3.29c-6.25,3.64-16.66,3.51-23.23-.28L71,56.77,82.3,50.19a12.77,12.77,0,0,1,11.62.14Z"/><path class="cls-8" d="M181.44,61.47,158.77,74.64c6.26-3.64,6-9.66-.56-13.46L143.35,52.6c-6.57-3.79-17-3.92-23.23-.28L99.94,40.67c-8-4.6-20-5.18-28.21-1.48-4.39,2.07-7,5.16-7.13,8.51s2.17,6.65,6.37,9.07l8.91,5.15c6.57,3.79,17,3.92,23.23.28L91.78,68.79c-6.25,3.63-6,9.66.57,13.45l14.87,8.58c6.57,3.8,17,3.92,23.22.29l-22.66,13.16L21.54,54.48,95.2,11.68,21.54,54.48l5.95,3.44,73.66-42.81Z"/><path class="cls-9" d="M99.69,40.53l.25.14,20.18,11.65c7.07,4.08,8.42,10.35,3.24,15l-14.58-8.41L93.92,50.33a12.77,12.77,0,0,0-11.62-.14L71,56.77c-4.2-2.42-6.51-5.72-6.37-9.07s2.74-6.44,7.13-8.51C80,35.49,92,36.07,99.69,40.53Z"/><path class="cls-10" d="M123.36,67.32a14.42,14.42,0,0,1-2.54,1.81c-7.83,4.55-20.83,4.4-29-.34l17-9.88Z"/><path class="cls-11" d="M158.21,61.18c6.58,3.8,6.82,9.82.56,13.46l-4.25,2.47-14.73-5.22,7.09-4.12L120.12,52.32c6.26-3.64,16.66-3.51,23.23.28Z"/><polygon class="cls-6" points="154.52 77.11 147.53 81.17 132.9 75.89 129.87 77.65 139.79 71.89 154.52 77.11"/><path class="cls-12" d="M120.12,52.32l26.76,15.45-7.09,4.12-9.92,5.76-10.51,6.11-.82.48L91.78,68.79c8.21,4.74,21.21,4.89,29,.34a14.42,14.42,0,0,0,2.54-1.81C128.54,62.67,127.19,56.4,120.12,52.32Z"/><polygon class="cls-13" points="147.53 81.17 141.71 84.56 127.06 79.28 129.87 77.65 132.9 75.89 147.53 81.17"/><path class="cls-11" d="M134.49,88.75l-4.05,2.36c-6.26,3.63-16.65,3.51-23.22-.29L92.35,82.24c-6.57-3.79-6.82-9.82-.57-13.45l26.76,15.45.82-.48Z"/></g></g></g></g></svg>