<svg height="512" viewBox="0 0 512 512" width="512" xmlns="http://www.w3.org/2000/svg"><g id="flat"><path d="m280 56 12.616 4.2a16.65 16.65 0 0 1 11.384 15.8 16.65 16.65 0 0 1 -11.384 15.8l-20.616 4.2v-8z" fill="#b9b9b9"/><path d="m307.138 117.428-27.138-5.428-8-24v-16h-26.667l-5.333-8-32-16v40h8l16 16 8-5.333v21.333l-34.63 5.772a16 16 0 0 0 -13.37 15.782v47.905a30 30 0 0 0 16.584 26.833l15.416 7.708-.2.6a74 74 0 0 0 0 46.8l.082.245a132.008 132.008 0 0 1 6.517 49.976l-6.399 102.379h80a121.671 121.671 0 0 1 -4.735-98.089l5.526-14.368a108 108 0 0 0 -.526-78.88l-.265-.663 11.314-11.314a16 16 0 0 0 4.686-11.313v-76.256a16 16 0 0 0 -12.862-15.689z" fill="#dbdbdb"/><path d="m228.92 204.34-4.92 19.66-14.54-7.27 4.61-23.06a28.754 28.754 0 0 0 -2.48-18.49 34.061 34.061 0 0 1 -3.59-15.21v-15.97h8v13.71a34.045 34.045 0 0 0 5.71 18.86l3.24 4.85a28.778 28.778 0 0 1 3.97 22.92z" fill="#dbdbdb"/><path d="m299.26 325.91a121.682 121.682 0 0 0 4.74 98.09h-80l6.4-102.38a131.954 131.954 0 0 0 -6.52-49.97l-.08-.25a74.074 74.074 0 0 1 -3.8-23.4h27.21a42 42 0 0 0 40.74-31.81l.05-.19 11.492 14.018a50.66 50.66 0 0 1 10.62 22.707 108 108 0 0 1 -5.322 58.815z" fill="#dbdbdb"/><path d="m299.26 325.91a121.682 121.682 0 0 0 4.74 98.09h-80l6.4-102.38a131.954 131.954 0 0 0 -6.52-49.97l-.08-.25a74.074 74.074 0 0 1 -3.8-23.4h27.21a42 42 0 0 0 40.74-31.81l.05-.19 16 16 2.38 6.42a108 108 0 0 1 -1.59 73.12z" fill="#cbcbcb"/><path d="m291.32 375.99-6.34 6.34a127 127 0 0 1 -59.04 33.43 7.967 7.967 0 0 1 -1.44.22l1.04-16.68a111.025 111.025 0 0 0 48.13-28.28l18.72-18.73a122.131 122.131 0 0 0 -1.07 23.7z" fill="#cbcbcb"/><path d="m309.35 296.46a106.273 106.273 0 0 1 -4.56 15.08l-5.53 14.37c-.43 1.12-.84 2.24-1.23 3.37l-5.05 5.05a127 127 0 0 1 -59.04 33.43 8.132 8.132 0 0 1 -1.95.24 8.014 8.014 0 0 1 -4.41-1.32l.87-13.84a7.213 7.213 0 0 1 1.61-.6 111.155 111.155 0 0 0 51.61-29.22l24.67-24.68a7.746 7.746 0 0 1 3.01-1.88z" fill="#cbcbcb"/><path d="m230.31 303.9 12.02-6.01a82.171 82.171 0 0 0 45.67-73.89 7.941 7.941 0 0 1 1.89-5.16l13.07 19.6a98 98 0 0 1 -53.47 73.76l-13.91 6.96a8.021 8.021 0 0 1 -3.57.84 7.757 7.757 0 0 1 -1.52-.15 128.59 128.59 0 0 0 -.18-15.95z" fill="#cbcbcb"/><path d="m208 424h112v32h-112z" fill="#b9b9b9"/><path d="m208 440h112v16h-112z" fill="#a0a0a0"/><g fill="#b9b9b9"><path d="m192 456h144v32h-144z"/><path d="m309.35 296.46a106.273 106.273 0 0 1 -4.56 15.08l-5.53 14.37c-.43 1.12-.84 2.24-1.23 3.37l-5.05 5.05a127 127 0 0 1 -59.04 33.43 8.132 8.132 0 0 1 -1.95.24 8.014 8.014 0 0 1 -4.41-1.32l.87-13.84a7.213 7.213 0 0 1 1.61-.6 111.155 111.155 0 0 0 51.61-29.22l24.67-24.68a7.746 7.746 0 0 1 3.01-1.88z"/><path d="m291.32 375.99-6.34 6.34a127 127 0 0 1 -59.04 33.43 7.967 7.967 0 0 1 -1.44.22l1.04-16.68a111.025 111.025 0 0 0 48.13-28.28l18.72-18.73a122.131 122.131 0 0 0 -1.07 23.7z"/><path d="m208 48a24 24 0 0 1 24-24h17.889a30.111 30.111 0 0 1 30.111 30.111 75.779 75.779 0 0 1 -8 33.889 29.9 29.9 0 0 1 -24.875-13.313l-7.125-10.687z"/><path d="m302.96 238.44a98 98 0 0 1 -53.47 73.76l-13.91 6.96a8.021 8.021 0 0 1 -3.57.84 7.757 7.757 0 0 1 -1.52-.15 128.59 128.59 0 0 0 -.18-15.95l12.02-6.01a82.171 82.171 0 0 0 45.67-73.89l.029-7.951 15.971 11.951z"/></g><path d="m192 472h144v16h-144z" fill="#a0a0a0"/><path d="m228.92 204.34-4.92 19.66-14.54-7.27 4.61-23.06a28.754 28.754 0 0 0 -2.48-18.49 34.061 34.061 0 0 1 -3.59-15.21v-11.97a4 4 0 0 1 4-4 4 4 0 0 1 4 4v9.71a34.045 34.045 0 0 0 5.71 18.86l3.24 4.85a28.778 28.778 0 0 1 3.97 22.92z" fill="#cbcbcb"/><path d="m288.029 216.049-5.666-16.972a18 18 0 0 1 .974-13.75l2.763-5.527a18.013 18.013 0 0 0 1.9-8.05v-23.75a4 4 0 0 1 4-4 4 4 0 0 1 4 4v23.751l-.9 19.822a26.022 26.022 0 0 0 5.178 16.8l11.722 15.627-8 8z" fill="#cbcbcb"/></g></svg>