<svg xmlns="http://www.w3.org/2000/svg" viewBox="0 0 204.62 118.27"><defs><style>.cls-1{isolation:isolate;}.cls-2{opacity:0.75;mix-blend-mode:multiply;}.cls-3{fill:#8c571f;}.cls-4{fill:#e9b359;}</style></defs><title>p2_ansB</title><g class="cls-1"><g id="圖層_2" data-name="圖層 2"><g id="p2"><g class="cls-2"><path d="M204.62,50.91,88.72,118.27,4,69.36,9.43,66.2c31.84-.13,51.61,29.65,83.45,24C127.6,84,109,47.76,152.57,40c14-2.48,24.69-2,32.81-.21Z"/><path d="M185.38,39.81c-8.12-1.79-18.85-2.27-32.81.21C109,47.76,127.6,84,92.88,90.2,61,95.85,41.27,66.07,9.43,66.2L4,69.36l84.72,48.91L4,69.36,119.9,2Z"/></g><path class="cls-3" d="M200.62,48.91,84.72,116.27,0,67.36,5.43,64.2c31.84-.13,51.61,29.65,83.45,24C123.6,82,105,45.76,148.57,38c14-2.48,24.69-2,32.81-.21Z"/><path class="cls-4" d="M181.38,37.81c-8.12-1.79-18.85-2.27-32.81.21C105,45.76,123.6,82,88.88,88.2,57,93.85,37.27,64.07,5.43,64.2L0,67.36l84.72,48.91L0,67.36,115.9,0Z"/></g></g></g></svg>