<svg xmlns="http://www.w3.org/2000/svg" viewBox="0 0 204.83 127.26"><defs><style>.cls-1{isolation:isolate;}.cls-2{opacity:0.75;mix-blend-mode:multiply;}.cls-3{fill:#807c79;}.cls-4{fill:#6d6358;}.cls-5{fill:#2e446b;}.cls-6{fill:#939eb2;}.cls-7{fill:#c5cbd5;}.cls-8{fill:#5a4936;}.cls-9{fill:#e9b359;}.cls-10{fill:#8c571f;}</style></defs><title>p2_ansA</title><g class="cls-1"><g id="圖層_2" data-name="圖層 2"><g id="p2"><g class="cls-2"><polygon points="204.82 78.36 120.66 127.27 4 59.91 88.16 11 204.82 78.36"/><polygon points="204.83 69.36 120.66 127.27 4 59.91 88.17 2 204.83 69.36"/><path d="M150.3,84.07A45.45,45.45,0,0,1,162.5,94l-41.84,24.32L61.43,84.07C85.89,69.86,125.68,69.86,150.3,84.07Z"/><path d="M142.09,33.13c-22.92,5.75-50.6,3.19-69.43-7.67A48.24,48.24,0,0,1,62,17.24L88.17,2Z"/><path d="M204.83,69.35,162.5,94a45.45,45.45,0,0,0-12.2-9.88c-24.62-14.21-64.41-14.21-88.87,0l59.23,34.2L4,50.91,88.17,2,62,17.24a48.24,48.24,0,0,0,10.71,8.22c18.83,10.86,46.51,13.42,69.43,7.67Z"/><path d="M142.09,33.13c-22.93,5.75-50.6,3.19-69.42-7.67a48.16,48.16,0,0,1-10.73-8.22L88.16,2Z"/><path d="M204.82,69.35,162.5,94a45.61,45.61,0,0,0-12.2-9.88c-24.62-14.21-64.41-14.21-88.86,0l59.22,34.19L4,50.91,88.16,2,61.94,17.24a48.16,48.16,0,0,0,10.73,8.22c18.82,10.86,46.49,13.42,69.42,7.67Z"/><path d="M150.3,84.07A45.61,45.61,0,0,1,162.5,94l-41.84,24.31L61.44,84.07C85.89,69.86,125.68,69.86,150.3,84.07Z"/></g><polygon class="cls-3" points="200.82 76.36 116.66 125.27 0 57.91 84.16 9 200.82 76.36"/><polygon class="cls-4" points="200.83 67.36 116.66 125.27 0 57.91 84.17 0 200.83 67.36"/><path class="cls-5" d="M146.3,82.07A45.45,45.45,0,0,1,158.5,92l-41.84,24.32L57.43,82.07C81.89,67.86,121.68,67.86,146.3,82.07Z"/><path class="cls-6" d="M138.09,31.13c-22.92,5.75-50.6,3.19-69.43-7.67A48.24,48.24,0,0,1,58,15.24L84.17,0Z"/><path class="cls-7" d="M200.83,67.35,158.5,92a45.45,45.45,0,0,0-12.2-9.88c-24.62-14.21-64.41-14.21-88.87,0l59.23,34.2L0,48.91,84.17,0,58,15.24a48.24,48.24,0,0,0,10.71,8.22c18.83,10.86,46.51,13.42,69.43,7.67Z"/><path class="cls-8" d="M138.09,31.13c-22.93,5.75-50.6,3.19-69.42-7.67a48.16,48.16,0,0,1-10.73-8.22L84.16,0Z"/><path class="cls-9" d="M200.82,67.35,158.5,92a45.61,45.61,0,0,0-12.2-9.88c-24.62-14.21-64.41-14.21-88.86,0l59.22,34.19L0,48.91,84.16,0,57.94,15.24a48.16,48.16,0,0,0,10.73,8.22c18.82,10.86,46.49,13.42,69.42,7.67Z"/><path class="cls-10" d="M146.3,82.07A45.61,45.61,0,0,1,158.5,92l-41.84,24.31L57.44,82.07C81.89,67.86,121.68,67.86,146.3,82.07Z"/></g></g></g></svg>