<svg xmlns="http://www.w3.org/2000/svg" viewBox="0 0 204.83 127.26"><defs><style>.cls-1{isolation:isolate;}.cls-2{opacity:0.75;mix-blend-mode:multiply;}.cls-3{fill:#807c79;}.cls-4{fill:#6d6358;}.cls-5{fill:#5a4936;}.cls-6{fill:#e9b359;}</style></defs><title>p2_ansD</title><g class="cls-1"><g id="圖層_2" data-name="圖層 2"><g id="p2"><g class="cls-2"><polygon points="4.01 78.36 88.17 127.26 204.83 59.91 120.67 11 4.01 78.36"/><polygon points="4 69.35 88.17 127.26 204.83 59.91 120.66 2 4 69.35"/><polygon points="204.72 50.91 141.72 87.53 41.29 90.83 4.1 69.36 82.14 24 204.72 50.91"/><polygon points="204.72 50.91 82.14 24 4.1 69.36 41.29 90.83 141.72 87.53 88.82 118.27 4.1 69.36 120 2 204.72 50.91"/></g><polygon class="cls-3" points="0.01 76.36 84.17 125.26 200.83 57.91 116.67 9 0.01 76.36"/><polygon class="cls-4" points="0 67.35 84.17 125.26 200.83 57.91 116.66 0 0 67.35"/><polygon class="cls-5" points="200.72 48.91 137.72 85.53 37.29 88.83 0.1 67.36 78.14 22 200.72 48.91"/><polygon class="cls-6" points="200.72 48.91 78.14 22 0.1 67.36 37.29 88.83 137.72 85.53 84.82 116.27 0.1 67.36 116 0 200.72 48.91"/></g></g></g></svg>