<svg xmlns="http://www.w3.org/2000/svg" viewBox="0 0 204.83 118.27"><defs><style>.cls-1{isolation:isolate;}.cls-2{opacity:0.75;mix-blend-mode:multiply;}.cls-3{fill:#e9b359;}.cls-4{fill:#5a4936;}.cls-5{fill:#8c571f;}</style></defs><title>p2_ansC</title><g class="cls-1"><g id="圖層_2" data-name="圖層 2"><g id="p2"><g class="cls-2"><polygon points="204.83 69.35 120.66 118.27 4 50.91 88.17 2 59.67 18.56 4 50.91 87.85 99.32 129.76 59.03 172.02 50.41 204.83 69.35"/><polygon points="129.76 59.03 87.85 99.32 4 50.91 59.67 18.56 129.76 59.03"/><polygon points="172.02 50.41 129.76 59.03 59.67 18.56 88.17 2 172.02 50.41"/></g><polygon class="cls-3" points="200.83 67.35 116.66 116.27 0 48.91 84.17 0 55.67 16.56 0 48.91 83.85 97.32 125.76 57.03 168.02 48.41 200.83 67.35"/><polygon class="cls-4" points="125.76 57.03 83.85 97.32 0 48.91 55.67 16.56 125.76 57.03"/><polygon class="cls-5" points="168.02 48.41 125.76 57.03 55.67 16.56 84.17 0 168.02 48.41"/></g></g></g></svg>