<svg xmlns="http://www.w3.org/2000/svg" viewBox="0 0 214.65 123.59"><defs><style>.cls-1{isolation:isolate;}.cls-2{opacity:0.75;mix-blend-mode:multiply;}.cls-3{fill:#e9ae4c;}.cls-4{fill:#f7d881;}.cls-5{fill:#f2c351;}</style></defs><title>p3_deco</title><g class="cls-1"><g id="圖層_2" data-name="圖層 2"><g id="p3"><g class="cls-2"><polygon points="170.74 21.48 136.52 41.37 131.6 38.53 165.82 18.64 170.74 21.48"/><polygon points="160.81 15.85 72.8 67 67.88 64.16 155.89 13.01 160.81 15.85"/><path d="M150.68,2l64,36.94L111.76,98.73l-64-36.94ZM72.8,67l88-51.15L155.89,13l-88,51.15L72.8,67m63.72-25.63,34.22-19.88-4.92-2.85L131.6,38.53l4.92,2.84"/><polygon points="111.76 98.73 68.97 123.59 5 86.66 47.78 61.8 111.76 98.73"/></g><polygon class="cls-3" points="165.74 19.48 131.52 39.37 126.6 36.53 160.82 16.64 165.74 19.48"/><g class="cls-1"><polygon class="cls-3" points="155.81 13.85 67.8 65 62.88 62.16 150.89 11.01 155.81 13.85"/><path class="cls-4" d="M145.68,0l64,36.94L106.76,96.73l-64-36.94ZM67.8,65l88-51.15L150.89,11l-88,51.15L67.8,65m63.72-25.63,34.22-19.88-4.92-2.85L126.6,36.53l4.92,2.84"/><polygon class="cls-5" points="106.76 96.73 63.97 121.59 0 84.66 42.78 59.8 106.76 96.73"/></g><polygon class="cls-3" points="123.77 56.54 126.31 55.06 131.93 58.3 129.38 59.78 123.77 56.54"/><path class="cls-3" d="M146.64,58.18a1.32,1.32,0,0,0,1.44,0l1.52-.88c.64-.37.74-.72.27-1a3.65,3.65,0,0,0-.9-.68l-2.07,1.2-3.18-1.84-7.57,4.41,3.46,2-2.81,1.63-6-3.44,10.94-6.36c-1.24-.13-2.53-.21-3.86-.24l.48-1.16-1.45.85a9.26,9.26,0,0,1,.91,2.43l-3.45.32,1.38.8L133.1,57.7,127,54.18l2.69-1.56,4.36,2.52a7.27,7.27,0,0,0-2.16-3.87l3-1.41a1.58,1.58,0,0,1,.35.37c.14.13.25.25.35.35l4.81-2.79,2.43,1.4-3.24,1.88c.42,0,1.06,0,1.94,0l1,0-.68,2L144,51.86l4.71,2.72c.27-.1.71-.25,1.31-.44s1-.28,1.31-.36c.79.62,1.5,1.22,2.15,1.8.88.83.58,1.65-.88,2.45l-3.72,2.16a3.68,3.68,0,0,1-3.93.11l-.42-.24c0,1.52-1.44,3.38-4.18,5.56-1.12-.32-2.29-.6-3.53-.84q4.81-3.6,4-5-.2-.68-1.8-1.68l2.82-1.64,1,.8a2.83,2.83,0,0,0,.48.36l1.24-.72Z"/><path class="cls-3" d="M114.61,67.43l.18.11c3.17,1.83,7.66,4.77,8.74,7.55a26.49,26.49,0,0,0-3.64.57c-.93-2.57-4.85-5-7.69-6.62L106.9,66l13.88-8.06,5.12,2.95-2.24,1.3.91.53,2.3-1.34L129,62.59l-2.29,1.33.86.51,3.11-1.81,2.14,1.24-1.72,1,2.19-.24a11,11,0,0,1-.75,1.73,18.46,18.46,0,0,0,3.33-1,4.85,4.85,0,0,0,.63,2.09,19.17,19.17,0,0,1-10.89.62l-1.45.85,2.3,1.33,2.06-1.71a15.67,15.67,0,0,0,1.9,1.36c-2.88,2.5-3.4,3-3.54,3.35a14.9,14.9,0,0,0-2.92-.65c.13-.4.09-1-.89-1.6l-1.25-.72-1.22.7-2.15-1.23,2.29-1.33-.87-.51-2,1.16-2.12-1.23,2-1.15-.91-.53Zm-2.16-1.25,8.7-5.05-.79-.46-8.71,5.06.8.45m8.84-2.63-2.12,1.23.91.53,2.12-1.23-.91-.53m3,1.75-2.12,1.23.87.51,2.12-1.24-.87-.5m5.6.24-1.85,1.08a10.14,10.14,0,0,0,1.45,0,5.89,5.89,0,0,0,.4-1.13"/><path class="cls-3" d="M148.88,44.48l-.57,2.1a58.79,58.79,0,0,0-6.1-.59l.63-1.9C144.75,44.15,147.4,44.25,148.88,44.48Z"/><polygon class="cls-3" points="144.67 47.98 147.29 46.45 159.98 53.78 157.36 55.31 144.67 47.98"/><g class="cls-1"><path class="cls-3" d="M188.2,37.2a50,50,0,0,0-6.57.61l.61-1.83a54.52,54.52,0,0,1,6.59-.79Z"/><path class="cls-3" d="M171.82,31.15l3.83-2.23,4.52,2.61-13.48,7.84-4.52-2.61,3.61-2.1-.69-.4L160.46,37l-2-1.16,15.47-9,2,1.16-4.8,2.79Zm-.6,2.43-1.3.75.92.53,1.3-.75-.92-.53m3.68-2.15-1.28.75.92.53,1.28-.75-.92-.53m-7.32,4.26-1.26.73.92.53,1.26-.73-.92-.53m.54-2.39,1.3-.76-.69-.4-1.3.76.69.4"/><polygon class="cls-3" points="167.94 39.19 179.85 32.27 181.77 33.38 169.86 40.3 167.94 39.19"/><path class="cls-3" d="M181.25,41.49,177,39,173.68,41l3-.85a6.76,6.76,0,0,1-.58,4.12c-.88,0-2.65,0-3.58.11a5.14,5.14,0,0,0,1-3.29l-3.27,1.9-2-1.16,16.1-9.35,2,1.15L182.24,36l-2.71,1.57L183.79,40Z"/></g><path class="cls-3" d="M171,46.93a9,9,0,0,1-3.13,2.32,17,17,0,0,0-3.24-.89c.94-.49,2.14-1.19,2.46-1.4s.36-.32,0-.52l-11-6.36-7.31,4.24L146.3,42.9l9.91-5.76L169.74,45C171,45.7,171.39,46.23,171,46.93Z"/></g></g></g></svg>