<svg xmlns="http://www.w3.org/2000/svg" xmlns:xlink="http://www.w3.org/1999/xlink" viewBox="0 0 122.53 140.47"><defs><style>.cls-1{fill:none;}.cls-2{fill:#757168;}.cls-3{opacity:0.45;}.cls-4{fill:#c9d5dd;}.cls-5{fill:#8c8f90;}.cls-6{fill:#bba082;}.cls-7{fill:#88766c;}.cls-8{fill:url(#Polka);}</style><pattern id="Polka" data-name="Polka" width="53.36" height="53.36" patternTransform="matrix(-0.2, 0, 0, 0.2, 18.88, 81.38)" patternUnits="userSpaceOnUse" viewBox="0 0 53.36 53.36"><rect class="cls-1" width="53.36" height="53.36"/><circle class="cls-2" cx="40.02" cy="53.36" r="7.34"/><circle class="cls-2" cx="13.34" cy="53.36" r="7.34"/><circle class="cls-2" cx="53.36" cy="26.68" r="7.34"/><circle class="cls-2" cx="26.68" cy="26.68" r="7.34"/><circle class="cls-2" cy="26.68" r="7.34"/><circle class="cls-2" cx="40.02" r="7.34"/><circle class="cls-2" cx="13.34" r="7.34"/></pattern></defs><title>can_bottom</title><g id="圖層_2" data-name="圖層 2"><g id="End"><g id="ball"><g class="cls-3"><path d="M18.25,41a5.87,5.87,0,0,0,5-5.93c.21-3.47.51-6.95.81-10.85-1.8,1-3.29,1.86-4.75,2.75a26.61,26.61,0,0,0-7,5.74,14.05,14.05,0,0,0-2,3.36,2.64,2.64,0,0,0,.91,3.39A8.34,8.34,0,0,0,18.25,41Z"/><path d="M62.24,18.11c-.15-.47-.25-.75-.34-1a21.87,21.87,0,0,0-6.37-9.32c-2.76-2.55-6.16-4.08-10-3.4a21.42,21.42,0,0,0-6.6,2.21c-8,4.46-12.53,11.3-13.11,20.56C25.55,31.06,25.6,35,24.4,39Z"/><path d="M23.85,41.21a3.13,3.13,0,0,0,.62.09A73.69,73.69,0,0,0,53.1,31.71a29,29,0,0,0,7.73-6.07,16.22,16.22,0,0,0,2.05-3.17,2.05,2.05,0,0,0-.13-2.42Z"/><path d="M73.55,98.11a68.12,68.12,0,0,1-10.39,4.66,59.6,59.6,0,0,1-18.84,3.83c-3.57.08-7.1-.2-10.2-2.31-.06-.05-.19,0-.34,0a2.8,2.8,0,0,0,1.64,3,12.24,12.24,0,0,0,3.85,1.29,39.3,39.3,0,0,0,7.27.24A70.51,70.51,0,0,0,76.3,99.35a31.46,31.46,0,0,0,7.62-5.74,19.93,19.93,0,0,0,2.46-3.44,2.85,2.85,0,0,0-.24-3.32C83.15,92.09,78.53,95.32,73.55,98.11Z"/><path d="M35.11,44.26A80,80,0,0,0,50.4,38.73a40.82,40.82,0,0,0,10.83-7.22,12,12,0,0,0,2.82-4.1,2.09,2.09,0,0,0,0-1.93c-1.62,1.61-3.12,3.26-4.79,4.71A46.13,46.13,0,0,1,48.06,37a75.46,75.46,0,0,1-20,6.12c-4.83.74-9.67,1.12-14.48-.19a2.24,2.24,0,0,0-.51,0L14,45a18.4,18.4,0,0,0,7.29,1.18A56.17,56.17,0,0,0,35.11,44.26Z"/><path d="M87.45,85.27a3.74,3.74,0,0,1-.67-1.16C84.87,78.54,83,73,81.07,67.4c-1.8-5.24-3.59-10.47-5.42-15.69q-3.12-8.9-6.31-17.79c-1.33-3.66-2.75-7.3-4.12-11a2.29,2.29,0,0,1-.19-.89c.1-3-.94-5.66-2.09-8.33C62,11.61,60.42,10,59,8.15a16,16,0,0,0-8.49-5.6A10.94,10.94,0,0,0,45,2.22a26.22,26.22,0,0,0-7.81,2.92A27.42,27.42,0,0,0,24.92,20.67a2.22,2.22,0,0,1-1.27,1.53,44.23,44.23,0,0,0-4,2.16,37.43,37.43,0,0,0-8.13,6.08,13,13,0,0,0-3.06,4.5c-.75,2-.65,4,.93,5.51a8.13,8.13,0,0,1,2.07,3.8c.57,2,1.13,3.9,1.78,5.82Q16.77,60.53,20.36,71q4.42,12.89,8.89,25.75c.75,2.16,1.5,4.32,2.23,6.48a3.94,3.94,0,0,1,.17,1.19A4.83,4.83,0,0,0,34,108.73a16.56,16.56,0,0,0,3.73,1.65,22.88,22.88,0,0,0,7.69.72A60.16,60.16,0,0,0,60,108.69c8.21-2.61,13.46-4.88,18.37-7.89A32.41,32.41,0,0,0,86,94.59a10.81,10.81,0,0,0,2.46-4.33A5.2,5.2,0,0,0,87.45,85.27ZM62.88,22.47a16.22,16.22,0,0,1-2.05,3.17,29,29,0,0,1-7.73,6.07A73.69,73.69,0,0,1,24.47,41.3a3.13,3.13,0,0,1-.62-.09l38.9-21.16A2.05,2.05,0,0,1,62.88,22.47ZM25.8,27.12c.58-9.26,5.07-16.1,13.11-20.56a21.42,21.42,0,0,1,6.6-2.21c3.86-.68,7.26.85,10,3.4a21.87,21.87,0,0,1,6.37,9.32c.09.29.19.57.34,1L24.4,39C25.6,35,25.55,31.06,25.8,27.12ZM11.25,39.46a2.64,2.64,0,0,1-.91-3.39,14.05,14.05,0,0,1,2-3.36,26.61,26.61,0,0,1,7-5.74c1.46-.89,2.95-1.71,4.75-2.75-.3,3.9-.6,7.38-.81,10.85a5.87,5.87,0,0,1-5,5.93A8.34,8.34,0,0,1,11.25,39.46ZM14,45l-.94-2.09a2.24,2.24,0,0,1,.51,0c4.81,1.31,9.65.93,14.48.19a75.46,75.46,0,0,0,20-6.12,46.13,46.13,0,0,0,11.15-6.76c1.67-1.45,3.17-3.1,4.79-4.71a2.09,2.09,0,0,1,0,1.93,12,12,0,0,1-2.82,4.1A40.82,40.82,0,0,1,50.4,38.73a80,80,0,0,1-15.29,5.53,56.17,56.17,0,0,1-13.83,1.9A18.4,18.4,0,0,1,14,45ZM86.38,90.17a19.93,19.93,0,0,1-2.46,3.44,31.46,31.46,0,0,1-7.62,5.74,70.51,70.51,0,0,1-29.76,9.43,39.3,39.3,0,0,1-7.27-.24,12.24,12.24,0,0,1-3.85-1.29,2.8,2.8,0,0,1-1.64-3c.15,0,.28,0,.34,0,3.1,2.11,6.63,2.39,10.2,2.31a59.6,59.6,0,0,0,18.84-3.83,68.12,68.12,0,0,0,10.39-4.66c5-2.79,9.6-6,12.59-11.26A2.85,2.85,0,0,1,86.38,90.17Z"/></g><path class="cls-4" d="M10.25,39a5.87,5.87,0,0,0,5-5.93c.21-3.47.51-6.95.81-10.85-1.8,1-3.29,1.86-4.75,2.75a26.61,26.61,0,0,0-7,5.74,14.05,14.05,0,0,0-2,3.36,2.64,2.64,0,0,0,.91,3.39A8.34,8.34,0,0,0,10.25,39Z"/><path class="cls-4" d="M54.24,16.11c-.15-.47-.25-.75-.34-1a21.87,21.87,0,0,0-6.37-9.32c-2.76-2.55-6.16-4.08-10-3.4a21.42,21.42,0,0,0-6.6,2.21C22.87,9,18.38,15.86,17.8,25.12,17.55,29.06,17.6,33,16.4,37Z"/><path class="cls-5" d="M15.85,39.21a3.13,3.13,0,0,0,.62.09A73.69,73.69,0,0,0,45.1,29.71a29,29,0,0,0,7.73-6.07,16.22,16.22,0,0,0,2.05-3.17,2.05,2.05,0,0,0-.13-2.42Z"/><path class="cls-4" d="M65.55,96.11a68.12,68.12,0,0,1-10.39,4.66,59.6,59.6,0,0,1-18.84,3.83c-3.57.08-7.1-.2-10.2-2.31-.06-.05-.19,0-.34,0a2.8,2.8,0,0,0,1.64,3,12.24,12.24,0,0,0,3.85,1.29,39.3,39.3,0,0,0,7.27.24A70.51,70.51,0,0,0,68.3,97.35a31.46,31.46,0,0,0,7.62-5.74,19.93,19.93,0,0,0,2.46-3.44,2.85,2.85,0,0,0-.24-3.32C75.15,90.09,70.53,93.32,65.55,96.11Z"/><path class="cls-4" d="M27.11,42.26A80,80,0,0,0,42.4,36.73a40.82,40.82,0,0,0,10.83-7.22,12,12,0,0,0,2.82-4.1,2.09,2.09,0,0,0,0-1.93c-1.62,1.61-3.12,3.26-4.79,4.71A46.13,46.13,0,0,1,40.06,35a75.46,75.46,0,0,1-20,6.12c-4.83.74-9.67,1.12-14.48-.19a2.24,2.24,0,0,0-.51,0L6,43a18.4,18.4,0,0,0,7.29,1.18A56.17,56.17,0,0,0,27.11,42.26Z"/><path class="cls-2" d="M79.45,83.27a3.74,3.74,0,0,1-.67-1.16C76.87,76.54,75,71,73.07,65.4c-1.8-5.24-3.59-10.47-5.42-15.69q-3.12-8.9-6.31-17.79c-1.33-3.66-2.75-7.3-4.12-11a2.29,2.29,0,0,1-.19-.89c.1-3-.94-5.66-2.09-8.33C54,9.61,52.42,8,51,6.15A16,16,0,0,0,42.55.55,10.94,10.94,0,0,0,37,.22a26.22,26.22,0,0,0-7.81,2.92A27.42,27.42,0,0,0,16.92,18.67a2.22,2.22,0,0,1-1.27,1.53,44.23,44.23,0,0,0-4,2.16,37.43,37.43,0,0,0-8.13,6.08,13,13,0,0,0-3.06,4.5c-.75,2-.65,4,.93,5.51a8.13,8.13,0,0,1,2.07,3.8c.57,2,1.13,3.9,1.78,5.82Q8.77,58.53,12.36,69q4.43,12.89,8.89,25.75c.75,2.16,1.5,4.32,2.23,6.48a3.94,3.94,0,0,1,.17,1.19A4.83,4.83,0,0,0,26,106.73a16.56,16.56,0,0,0,3.73,1.65,22.88,22.88,0,0,0,7.69.72A60.16,60.16,0,0,0,52,106.69c8.21-2.61,13.46-4.88,18.37-7.89A32.41,32.41,0,0,0,78,92.59a10.81,10.81,0,0,0,2.46-4.33A5.2,5.2,0,0,0,79.45,83.27ZM54.88,20.47a16.22,16.22,0,0,1-2.05,3.17,29,29,0,0,1-7.73,6.07A73.69,73.69,0,0,1,16.47,39.3a3.13,3.13,0,0,1-.62-.09l38.9-21.16A2.05,2.05,0,0,1,54.88,20.47ZM17.8,25.12C18.38,15.86,22.87,9,30.91,4.56a21.42,21.42,0,0,1,6.6-2.21c3.86-.68,7.26.85,10,3.4a21.87,21.87,0,0,1,6.37,9.32c.09.29.19.57.34,1L16.4,37C17.6,33,17.55,29.06,17.8,25.12ZM3.25,37.46a2.64,2.64,0,0,1-.91-3.39,14.05,14.05,0,0,1,2-3.36,26.61,26.61,0,0,1,7-5.74c1.46-.89,2.95-1.71,4.75-2.75-.3,3.9-.6,7.38-.81,10.85a5.87,5.87,0,0,1-5,5.93A8.34,8.34,0,0,1,3.25,37.46ZM6,43l-.94-2.09a2.24,2.24,0,0,1,.51,0c4.81,1.31,9.65.93,14.48.19a75.46,75.46,0,0,0,20-6.12,46.13,46.13,0,0,0,11.15-6.76c1.67-1.45,3.17-3.1,4.79-4.71a2.09,2.09,0,0,1,0,1.93,12,12,0,0,1-2.82,4.1A40.82,40.82,0,0,1,42.4,36.73a80,80,0,0,1-15.29,5.53,56.17,56.17,0,0,1-13.83,1.9A18.4,18.4,0,0,1,6,43ZM78.38,88.17a19.93,19.93,0,0,1-2.46,3.44,31.46,31.46,0,0,1-7.62,5.74,70.51,70.51,0,0,1-29.76,9.43,39.3,39.3,0,0,1-7.27-.24,12.24,12.24,0,0,1-3.85-1.29,2.8,2.8,0,0,1-1.64-3c.15,0,.28,0,.34,0,3.1,2.11,6.63,2.39,10.2,2.31a59.6,59.6,0,0,0,18.84-3.83,68.12,68.12,0,0,0,10.39-4.66c5-2.79,9.6-6,12.59-11.26A2.85,2.85,0,0,1,78.38,88.17Z"/><g class="cls-3"><path d="M117.21,73.63a6.65,6.65,0,0,1-1.34.18,13.9,13.9,0,0,1-6.58-1.38A5.79,5.79,0,0,1,106,68.7a10.87,10.87,0,0,1-.51-3.69c.17-2.19.65-4.35,1-6.73a52.53,52.53,0,0,1,8.91,5.84,15.8,15.8,0,0,1,3.93,4.53C120.62,71,119.81,72.92,117.21,73.63Z"/><path d="M66,64.33c.53-1.51,1-3.06,1.47-4.75,1,1,1.92,2,2.89,2.8,4.84,4.23,10.48,7.09,16.35,9.54a72.67,72.67,0,0,0,14.58,4.38,42.59,42.59,0,0,0,13.65.69c.23,0,.47,0,.85,0-.17.45-.27.77-.4,1.08-1.15,2.9-2.37,5.77-3.45,8.7Q104.1,107.84,96.39,129a4.16,4.16,0,0,1-3.21,3,24.93,24.93,0,0,1-7.2.51,61.28,61.28,0,0,1-16.89-3.73A57.24,57.24,0,0,1,53,120.2a15.52,15.52,0,0,1-4.32-4.77,2.17,2.17,0,0,1-.15-2.14c.55-1.18,1-2.42,1.44-3.65Q58,87,66,64.33Z"/><path d="M50.5,121.11a44.23,44.23,0,0,0,10.33,6.73A75.25,75.25,0,0,0,76,133.36a45.21,45.21,0,0,0,12.84,1.53,14.88,14.88,0,0,0,5.59-1.13c.8-.36,1.53-.88,2.31-1.33.69,2.09.32,3.1-1.55,4a8.24,8.24,0,0,1-2.43.79,33.58,33.58,0,0,1-5.1.38A59.57,59.57,0,0,1,71,134.45a69.62,69.62,0,0,1-18.39-8.63,24,24,0,0,1-6-5.41,10.35,10.35,0,0,1-1.42-2.79,2.16,2.16,0,0,1,1-2.57A15.48,15.48,0,0,0,50.5,121.11Z"/><path d="M83.09,34.91a19.88,19.88,0,0,1,12.35,2.53c5.59,3.25,10.42,9.79,9,18-.42,2.37-.86,4.74-1.35,7.11a12.44,12.44,0,0,0,.36,7.27,2.43,2.43,0,0,1,.06.65c-11.61-6.91-23-13.89-34.84-20.34.75-2.06,1.41-4.07,2.21-6A14,14,0,0,1,83.09,34.91Z"/><path d="M65.44,57.26a2.19,2.19,0,0,0,0-1.29,9.23,9.23,0,0,1,.07-5.36A63.57,63.57,0,0,1,68,43c2.64-6.66,7.68-10.39,14.75-11a22,22,0,0,1,16.36,4.89c5.19,4.26,8.14,9.63,8,16.47,0,.75-.08,1.5-.13,2.26,2,1.14,3.83,2.15,5.6,3.28a30.34,30.34,0,0,1,7.64,6.55,10.32,10.32,0,0,1,2.1,4c.52,2.15.08,4.14-1.8,5.35a5,5,0,0,0-2.42,3.7,3,3,0,0,1-.19.58q-9.24,25-18.48,50a3.86,3.86,0,0,0-.19,3,4.87,4.87,0,0,1-2.16,6.26,13.86,13.86,0,0,1-3.9,1.54,26.06,26.06,0,0,1-8.85.4,74.58,74.58,0,0,1-31.07-10.5,32.24,32.24,0,0,1-8.37-6.84,11.25,11.25,0,0,1-2.43-4.31,5,5,0,0,1,2-5.71A4.14,4.14,0,0,0,46.56,110a5,5,0,0,1,.24-.71Q54.66,87.66,62.52,66C63.56,63.11,64.49,60.18,65.44,57.26Zm53.93,11.39a15.8,15.8,0,0,0-3.93-4.53,52.53,52.53,0,0,0-8.91-5.84c-.39,2.38-.87,4.54-1,6.73A10.87,10.87,0,0,0,106,68.7a5.79,5.79,0,0,0,3.29,3.73,13.9,13.9,0,0,0,6.58,1.38,6.65,6.65,0,0,0,1.34-.18C119.81,72.92,120.62,71,119.37,68.65ZM48.56,113.29a2.17,2.17,0,0,0,.15,2.14A15.52,15.52,0,0,0,53,120.2a57.24,57.24,0,0,0,16.06,8.52A61.28,61.28,0,0,0,86,132.45a24.93,24.93,0,0,0,7.2-.51,4.16,4.16,0,0,0,3.21-3q7.71-21.13,15.53-42.25c1.08-2.93,2.3-5.8,3.45-8.7.13-.31.23-.63.4-1.08-.38,0-.62,0-.85,0a42.59,42.59,0,0,1-13.65-.69,72.67,72.67,0,0,1-14.58-4.38c-5.87-2.45-11.51-5.31-16.35-9.54-1-.85-1.85-1.79-2.89-2.8-.52,1.69-.94,3.24-1.47,4.75Q58,87,50,109.64C49.56,110.87,49.11,112.11,48.56,113.29Zm-3.46,4.33a10.35,10.35,0,0,0,1.42,2.79,24,24,0,0,0,6,5.41A69.62,69.62,0,0,0,71,134.45a59.57,59.57,0,0,0,16.71,3.14,33.58,33.58,0,0,0,5.1-.38,8.24,8.24,0,0,0,2.43-.79c1.87-.89,2.24-1.9,1.55-4-.78.45-1.51,1-2.31,1.33a14.88,14.88,0,0,1-5.59,1.13A45.21,45.21,0,0,1,76,133.36a75.25,75.25,0,0,1-15.17-5.52,44.23,44.23,0,0,1-10.33-6.73,15.48,15.48,0,0,1-4.44-6.06A2.16,2.16,0,0,0,45.1,117.62ZM68.63,50.09c11.86,6.45,23.23,13.43,34.84,20.34a2.43,2.43,0,0,0-.06-.65,12.44,12.44,0,0,1-.36-7.27c.49-2.37.93-4.74,1.35-7.11,1.46-8.17-3.37-14.71-9-18a19.88,19.88,0,0,0-12.35-2.53,14,14,0,0,0-12.25,9.15C70,46,69.38,48,68.63,50.09Z"/><path d="M103.84,73.55a3,3,0,0,1-.59.07,69.53,69.53,0,0,1-26.6-10.06,27.28,27.28,0,0,1-7.06-6,15.74,15.74,0,0,1-1.82-3.06A1.93,1.93,0,0,1,68,52.23Z"/><path d="M66,64.33c.53-1.51,1-3.06,1.47-4.75,1,1,1.92,2,2.89,2.8,4.84,4.23,10.48,7.09,16.35,9.54a72.67,72.67,0,0,0,14.58,4.38,42.59,42.59,0,0,0,13.65.69c.23,0,.47,0,.85,0-.17.45-.27.77-.4,1.08-1.15,2.9-2.37,5.77-3.45,8.7Q104.1,107.84,96.39,129a4.16,4.16,0,0,1-3.21,3,24.93,24.93,0,0,1-7.2.51,61.28,61.28,0,0,1-16.89-3.73A57.24,57.24,0,0,1,53,120.2a15.52,15.52,0,0,1-4.32-4.77,2.17,2.17,0,0,1-.15-2.14c.55-1.18,1-2.42,1.44-3.65Q58,87,66,64.33Z"/></g><path class="cls-6" d="M109.21,71.63a6.65,6.65,0,0,1-1.34.18,13.9,13.9,0,0,1-6.58-1.38A5.79,5.79,0,0,1,98,66.7,10.87,10.87,0,0,1,97.49,63c.17-2.19.65-4.35,1-6.73a52.53,52.53,0,0,1,8.91,5.84,15.8,15.8,0,0,1,3.93,4.53C112.62,69,111.81,70.92,109.21,71.63Z"/><path class="cls-6" d="M58,62.33c.53-1.51,1-3.06,1.47-4.75,1,1,1.92,2,2.89,2.8,4.84,4.23,10.48,7.09,16.35,9.54A72.67,72.67,0,0,0,93.27,74.3a42.59,42.59,0,0,0,13.65.69c.23,0,.47,0,.85,0-.17.45-.27.77-.4,1.08-1.15,2.9-2.37,5.77-3.45,8.7Q96.1,105.84,88.39,127a4.16,4.16,0,0,1-3.21,3,24.93,24.93,0,0,1-7.2.51,61.28,61.28,0,0,1-16.89-3.73A57.24,57.24,0,0,1,45,118.2a15.52,15.52,0,0,1-4.32-4.77,2.17,2.17,0,0,1-.15-2.14c.55-1.18,1-2.42,1.44-3.65Q50,85,58,62.33Z"/><path class="cls-6" d="M42.5,119.11a44.23,44.23,0,0,0,10.33,6.73A75.25,75.25,0,0,0,68,131.36a45.21,45.21,0,0,0,12.84,1.53,14.88,14.88,0,0,0,5.59-1.13c.8-.36,1.53-.88,2.31-1.33.69,2.09.32,3.1-1.55,4a8.24,8.24,0,0,1-2.43.79,33.58,33.58,0,0,1-5.1.38A59.57,59.57,0,0,1,63,132.45a69.62,69.62,0,0,1-18.39-8.63,24,24,0,0,1-6-5.41,10.35,10.35,0,0,1-1.42-2.79,2.16,2.16,0,0,1,1-2.57A15.48,15.48,0,0,0,42.5,119.11Z"/><path class="cls-6" d="M75.09,32.91a19.88,19.88,0,0,1,12.35,2.53c5.59,3.25,10.42,9.79,9,18-.42,2.37-.86,4.74-1.35,7.11a12.44,12.44,0,0,0,.36,7.27,2.43,2.43,0,0,1,.06.65c-11.61-6.91-23-13.89-34.84-20.34.75-2.06,1.41-4.07,2.21-6A14,14,0,0,1,75.09,32.91Z"/><path class="cls-2" d="M57.44,55.26A2.19,2.19,0,0,0,57.49,54a9.23,9.23,0,0,1,.07-5.36A63.57,63.57,0,0,1,60,41c2.64-6.66,7.68-10.39,14.75-11a22,22,0,0,1,16.36,4.89c5.19,4.26,8.14,9.63,8,16.47,0,.75-.08,1.5-.13,2.26,2,1.14,3.83,2.15,5.6,3.28a30.34,30.34,0,0,1,7.64,6.55,10.32,10.32,0,0,1,2.1,4c.52,2.15.08,4.14-1.8,5.35a5,5,0,0,0-2.42,3.7,3,3,0,0,1-.19.58q-9.24,25-18.48,50a3.86,3.86,0,0,0-.19,3,4.87,4.87,0,0,1-2.16,6.26,13.86,13.86,0,0,1-3.9,1.54,26.06,26.06,0,0,1-8.85.4,74.58,74.58,0,0,1-31.07-10.5,32.24,32.24,0,0,1-8.37-6.84,11.25,11.25,0,0,1-2.43-4.31,5,5,0,0,1,2-5.71A4.14,4.14,0,0,0,38.56,108a5,5,0,0,1,.24-.71Q46.66,85.66,54.52,64C55.56,61.11,56.49,58.18,57.44,55.26Zm53.93,11.39a15.8,15.8,0,0,0-3.93-4.53,52.53,52.53,0,0,0-8.91-5.84c-.39,2.38-.87,4.54-1,6.73A10.87,10.87,0,0,0,98,66.7a5.79,5.79,0,0,0,3.29,3.73,13.9,13.9,0,0,0,6.58,1.38,6.65,6.65,0,0,0,1.34-.18C111.81,70.92,112.62,69,111.37,66.65ZM40.56,111.29a2.17,2.17,0,0,0,.15,2.14A15.52,15.52,0,0,0,45,118.2a57.24,57.24,0,0,0,16.06,8.52A61.28,61.28,0,0,0,78,130.45a24.93,24.93,0,0,0,7.2-.51,4.16,4.16,0,0,0,3.21-3q7.71-21.14,15.53-42.25c1.08-2.93,2.3-5.8,3.45-8.7.13-.31.23-.63.4-1.08-.38,0-.62,0-.85,0a42.59,42.59,0,0,1-13.65-.69,72.67,72.67,0,0,1-14.58-4.38c-5.87-2.45-11.51-5.31-16.35-9.54-1-.85-1.85-1.79-2.89-2.8-.52,1.69-.94,3.24-1.47,4.75Q50,85,42,107.64C41.56,108.87,41.11,110.11,40.56,111.29Zm-3.46,4.33a10.35,10.35,0,0,0,1.42,2.79,24,24,0,0,0,6,5.41A69.62,69.62,0,0,0,63,132.45a59.57,59.57,0,0,0,16.71,3.14,33.58,33.58,0,0,0,5.1-.38,8.24,8.24,0,0,0,2.43-.79c1.87-.89,2.24-1.9,1.55-4-.78.45-1.51,1-2.31,1.33a14.88,14.88,0,0,1-5.59,1.13A45.21,45.21,0,0,1,68,131.36a75.25,75.25,0,0,1-15.17-5.52,44.23,44.23,0,0,1-10.33-6.73,15.48,15.48,0,0,1-4.44-6.06A2.16,2.16,0,0,0,37.1,115.62ZM60.63,48.09c11.86,6.45,23.23,13.43,34.84,20.34a2.43,2.43,0,0,0-.06-.65,12.44,12.44,0,0,1-.36-7.27c.49-2.37.93-4.74,1.35-7.11,1.46-8.17-3.37-14.71-9-18a19.88,19.88,0,0,0-12.35-2.53,14,14,0,0,0-12.25,9.15C62,44,61.38,46,60.63,48.09Z"/><path class="cls-7" d="M95.84,71.55a3,3,0,0,1-.59.07,69.53,69.53,0,0,1-26.6-10.06,27.28,27.28,0,0,1-7.06-6,15.74,15.74,0,0,1-1.82-3.06A1.93,1.93,0,0,1,60,50.23Z"/><path class="cls-8" d="M58,62.33c.53-1.51,1-3.06,1.47-4.75,1,1,1.92,2,2.89,2.8,4.84,4.23,10.48,7.09,16.35,9.54A72.67,72.67,0,0,0,93.27,74.3a42.59,42.59,0,0,0,13.65.69c.23,0,.47,0,.85,0-.17.45-.27.77-.4,1.08-1.15,2.9-2.37,5.77-3.45,8.7Q96.1,105.84,88.39,127a4.16,4.16,0,0,1-3.21,3,24.93,24.93,0,0,1-7.2.51,61.28,61.28,0,0,1-16.89-3.73A57.24,57.24,0,0,1,45,118.2a15.52,15.52,0,0,1-4.32-4.77,2.17,2.17,0,0,1-.15-2.14c.55-1.18,1-2.42,1.44-3.65Q50,85,58,62.33Z"/></g></g></g></svg>