<svg xmlns="http://www.w3.org/2000/svg" xmlns:xlink="http://www.w3.org/1999/xlink" viewBox="0 0 135.88 164.73"><defs><style>.cls-1{fill:none;}.cls-2{fill:#757168;}.cls-3{fill:#bba082;}.cls-4{fill:#88766c;}.cls-5{fill:url(#Polka_2);}.cls-6{opacity:0.45;}.cls-7{fill:#ded7c1;}.cls-8{fill:url(#Polka_2-3);}.cls-9{fill:#c9d5dd;}.cls-10{fill:#a3aeb7;}</style><pattern id="Polka_2" data-name="Polka 2" width="53.36" height="53.36" patternTransform="translate(1.71 106.47) rotate(20) scale(0.2)" patternUnits="userSpaceOnUse" viewBox="0 0 53.36 53.36"><rect class="cls-1" width="53.36" height="53.36"/><circle class="cls-2" cx="40.02" cy="53.36" r="7.34"/><circle class="cls-2" cx="13.34" cy="53.36" r="7.34"/><circle class="cls-2" cx="53.36" cy="26.68" r="7.34"/><circle class="cls-2" cx="26.68" cy="26.68" r="7.34"/><circle class="cls-2" cy="26.68" r="7.34"/><circle class="cls-2" cx="40.02" r="7.34"/><circle class="cls-2" cx="13.34" r="7.34"/></pattern><pattern id="Polka_2-3" data-name="Polka 2" width="53.36" height="53.36" patternTransform="matrix(-0.15, -0.13, -0.13, 0.15, 17.26, 63.19)" patternUnits="userSpaceOnUse" viewBox="0 0 53.36 53.36"><rect class="cls-1" width="53.36" height="53.36"/><circle class="cls-2" cx="40.02" cy="53.36" r="7.34"/><circle class="cls-2" cx="13.34" cy="53.36" r="7.34"/><circle class="cls-2" cx="53.36" cy="26.68" r="7.34"/><circle class="cls-2" cx="26.68" cy="26.68" r="7.34"/><circle class="cls-2" cy="26.68" r="7.34"/><circle class="cls-2" cx="40.02" r="7.34"/><circle class="cls-2" cx="13.34" r="7.34"/></pattern></defs><title>ball</title><g id="圖層_2" data-name="圖層 2"><g id="End"><g id="ball"><path class="cls-3" d="M63.84,29.6a5.89,5.89,0,0,0,1.19.63,14,14,0,0,0,6.66,1,5.77,5.77,0,0,0,4.37-2.38,11,11,0,0,0,1.75-3.3c.58-2.11.87-4.31,1.32-6.68a52.22,52.22,0,0,0-10.37,2.45,15.66,15.66,0,0,0-5.25,2.91C61.52,26,61.64,28.05,63.84,29.6Z"/><path class="cls-3" d="M115.16,38.39c0-1.6.15-3.2.24-5-1.31.59-2.47,1.17-3.67,1.64-6,2.32-12.28,3.08-18.63,3.37a73,73,0,0,1-15.2-.87,42.77,42.77,0,0,1-13.06-4,7.63,7.63,0,0,0-.78-.33c0,.48,0,.81,0,1.15.09,3.12.26,6.24.27,9.36q.12,22.5.15,45a4.14,4.14,0,0,0,2,3.88,25.12,25.12,0,0,0,6.59,2.94,60.89,60.89,0,0,0,17.14,2.27,57.21,57.21,0,0,0,18-2.51,15.65,15.65,0,0,0,5.7-3,2.19,2.19,0,0,0,.87-2c-.11-1.3-.12-2.62-.11-3.93Q114.91,62.42,115.16,38.39Z"/><path class="cls-3" d="M110.29,97.05a44.72,44.72,0,0,1-12,2.78,75.63,75.63,0,0,1-16.13,0,45.4,45.4,0,0,1-12.59-3,14.61,14.61,0,0,1-4.87-3,26.45,26.45,0,0,1-1.72-2c-1.36,1.73-1.35,2.8.1,4.28a8.25,8.25,0,0,0,2,1.58,33.56,33.56,0,0,0,4.66,2.1,59.7,59.7,0,0,0,16.77,2.76,69.61,69.61,0,0,0,20.24-1.82,24,24,0,0,0,7.53-3,10.33,10.33,0,0,0,2.29-2.14,2.17,2.17,0,0,0,0-2.75A15.42,15.42,0,0,1,110.29,97.05Z"/><path class="cls-3" d="M109.14,4.89A19.92,19.92,0,0,0,96.68,3.05C90.31,4.19,83.54,8.68,82.11,16.86,81.7,19.23,81.3,21.61,81,24a12.28,12.28,0,0,1-2.83,6.7,3.73,3.73,0,0,0-.28.59c13.28-2.51,26.36-5.18,39.7-7.18,0-2.2.07-4.32,0-6.43A14,14,0,0,0,109.14,4.89Z"/><path class="cls-2" d="M118.09,31.94a2.12,2.12,0,0,1,.39-1.24,9.27,9.27,0,0,0,1.77-5.05,64.64,64.64,0,0,0,.34-8c-.2-7.16-3.66-12.39-10.09-15.39a22,22,0,0,0-17.06-1C87.11,3.49,82.5,7.52,80.26,14c-.24.71-.43,1.43-.65,2.15-2.24.41-4.33.72-6.39,1.18a30.29,30.29,0,0,0-9.41,3.54,10.36,10.36,0,0,0-3.33,3c-1.23,1.84-1.5,3.87-.14,5.64a5,5,0,0,1,1,4.31,3.1,3.1,0,0,0,0,.61q.12,26.65.25,53.33a3.89,3.89,0,0,1-.85,2.89,4.87,4.87,0,0,0-.12,6.63,14.37,14.37,0,0,0,3.14,2.78,26.37,26.37,0,0,0,8.18,3.4,74.68,74.68,0,0,0,32.79.76,32.1,32.1,0,0,0,10.21-3.57,11.26,11.26,0,0,0,3.75-3.22,4.91,4.91,0,0,0,.06-6,4.16,4.16,0,0,1-1-3.43,4.7,4.7,0,0,0,0-.75q0-23.06.06-46.09C117.85,38.07,118,35,118.09,31.94ZM63.51,24.19a15.66,15.66,0,0,1,5.25-2.91,52.22,52.22,0,0,1,10.37-2.45c-.45,2.37-.74,4.57-1.32,6.68a11,11,0,0,1-1.75,3.3,5.77,5.77,0,0,1-4.37,2.38,14,14,0,0,1-6.66-1,5.89,5.89,0,0,1-1.19-.63C61.64,28.05,61.52,26,63.51,24.19Zm51.28,66.17a2.19,2.19,0,0,1-.87,2,15.65,15.65,0,0,1-5.7,3,57.21,57.21,0,0,1-18,2.51,60.89,60.89,0,0,1-17.14-2.27,25.12,25.12,0,0,1-6.59-2.94,4.14,4.14,0,0,1-2-3.88q0-22.5-.15-45c0-3.12-.18-6.24-.27-9.36,0-.34,0-.67,0-1.15a7.63,7.63,0,0,1,.78.33,42.77,42.77,0,0,0,13.06,4,73,73,0,0,0,15.2.87c6.35-.29,12.64-1,18.63-3.37,1.2-.47,2.36-1,3.67-1.64-.09,1.76-.22,3.36-.24,5q-.25,24-.48,48C114.67,87.74,114.68,89.06,114.79,90.36Zm1.77,5.25a10.33,10.33,0,0,1-2.29,2.14,24,24,0,0,1-7.53,3,69.61,69.61,0,0,1-20.24,1.82,59.7,59.7,0,0,1-16.77-2.76,33.56,33.56,0,0,1-4.66-2.1,8.25,8.25,0,0,1-2-1.58c-1.45-1.48-1.46-2.55-.1-4.28a26.45,26.45,0,0,0,1.72,2,14.61,14.61,0,0,0,4.87,3,45.4,45.4,0,0,0,12.59,3,75.63,75.63,0,0,0,16.13,0,44.72,44.72,0,0,0,12-2.78,15.42,15.42,0,0,0,6.24-4.19A2.17,2.17,0,0,1,116.56,95.61Zm1-71.5c-13.34,2-26.42,4.67-39.7,7.18a3.73,3.73,0,0,1,.28-.59A12.28,12.28,0,0,0,81,24c.35-2.39.75-4.77,1.16-7.14,1.43-8.18,8.2-12.67,14.57-13.81a19.92,19.92,0,0,1,12.46,1.84,14,14,0,0,1,8.39,12.79C117.61,19.79,117.54,21.91,117.54,24.11Z"/><path class="cls-4" d="M76.43,34.11a2.93,2.93,0,0,0,.53.26A69.17,69.17,0,0,0,105.4,34a27.29,27.29,0,0,0,8.69-3.22,15.19,15.19,0,0,0,2.75-2.25,1.93,1.93,0,0,0,.58-2.21Z"/><path class="cls-5" d="M115.16,38.39c0-1.6.15-3.2.24-5-1.31.59-2.47,1.17-3.67,1.64-6,2.32-12.28,3.08-18.63,3.37a73,73,0,0,1-15.2-.87,42.77,42.77,0,0,1-13.06-4,7.63,7.63,0,0,0-.78-.33c0,.48,0,.81,0,1.15.09,3.12.26,6.24.27,9.36q.12,22.5.15,45a4.14,4.14,0,0,0,2,3.88,25.12,25.12,0,0,0,6.59,2.94,60.89,60.89,0,0,0,17.14,2.27,57.21,57.21,0,0,0,18-2.51,15.65,15.65,0,0,0,5.7-3,2.19,2.19,0,0,0,.87-2c-.11-1.3-.12-2.62-.11-3.93Q114.91,62.42,115.16,38.39Z"/><g class="cls-6"><path d="M95.1,96.86A6.52,6.52,0,0,1,94,96.14a14,14,0,0,1-4.15-5.29,5.74,5.74,0,0,1-.13-5,11,11,0,0,1,2-3.16c1.54-1.56,3.3-2.91,5.13-4.49a52.2,52.2,0,0,1,3.06,10.21,15.53,15.53,0,0,1,.1,6C99.37,97.06,97.54,98,95.1,96.86Z"/><path d="M61.82,56.81c1.38-.82,2.7-1.73,4.18-2.69.15,1.43.22,2.73.42,4,1,6.35,3.47,12.17,6.39,17.81a73,73,0,0,0,8.36,12.73,42.36,42.36,0,0,0,10,9.3c.19.13.37.28.67.52l-1,.57c-2.75,1.48-5.53,2.9-8.24,4.44q-19.56,11.16-39.06,22.39a4.15,4.15,0,0,1-4.36.2,25.18,25.18,0,0,1-5.84-4.23,61.14,61.14,0,0,1-10.54-13.72A57.2,57.2,0,0,1,16,91.28a15.54,15.54,0,0,1-.24-6.44A2.18,2.18,0,0,1,17,83.11a37,37,0,0,0,3.45-1.87Q41.15,69,61.82,56.81Z"/><path d="M13.46,90.35a44.28,44.28,0,0,0,3.6,11.8,74.71,74.71,0,0,0,8.07,14A45.27,45.27,0,0,0,34,125.55a14.84,14.84,0,0,0,5,2.73c.84.23,1.74.31,2.62.47-.81,2-1.74,2.57-3.75,2.05a8.18,8.18,0,0,1-2.37-1,33.38,33.38,0,0,1-4.15-3,59.52,59.52,0,0,1-10.78-13.14A69.76,69.76,0,0,1,12,95.29a24.38,24.38,0,0,1-1.16-8,10.35,10.35,0,0,1,.71-3.05A2.16,2.16,0,0,1,14,82.86,15.53,15.53,0,0,0,13.46,90.35Z"/><path d="M93.84,45.27a19.89,19.89,0,0,1,7.83,9.87c2.2,6.09,1.69,14.2-4.67,19.52Q94.23,77,91.39,79.24A12.32,12.32,0,0,0,87,85a3.49,3.49,0,0,1-.37.54C82.17,72.82,77.94,60.16,73,47.6c1.91-1.1,3.71-2.21,5.57-3.2A14,14,0,0,1,93.84,45.27Z"/><path d="M66,51a2.18,2.18,0,0,0,.88-.95A9.19,9.19,0,0,1,70.31,46a66.34,66.34,0,0,1,6.75-4.3c6.31-3.4,12.57-3,18.38,1.06a21.93,21.93,0,0,1,9.39,14.26c1.24,6.6,0,12.61-4.43,17.78-.49.57-1,1.1-1.54,1.65.76,2.14,1.54,4.1,2.17,6.11a30.24,30.24,0,0,1,1.64,9.93,10.21,10.21,0,0,1-1,4.39c-1,2-2.6,3.23-4.82,2.94a5,5,0,0,0-4.23,1.29,3.36,3.36,0,0,1-.51.32L45.84,127.91a3.85,3.85,0,0,0-2.08,2.18,4.87,4.87,0,0,1-5.68,3.41,14.12,14.12,0,0,1-4-1.32,26.55,26.55,0,0,1-7-5.39,74.57,74.57,0,0,1-17-28A31.81,31.81,0,0,1,8,88.15a11.28,11.28,0,0,1,.91-4.86,5,5,0,0,1,5.21-3.08,4.15,4.15,0,0,0,3.45-.88,5.2,5.2,0,0,1,.64-.39q20-11.53,39.89-23.09C60.75,54.31,63.35,52.67,66,51Zm34,43.4a15.53,15.53,0,0,0-.1-6,52.2,52.2,0,0,0-3.06-10.21c-1.83,1.58-3.59,2.93-5.13,4.49a11,11,0,0,0-2,3.16,5.74,5.74,0,0,0,.13,5A14,14,0,0,0,94,96.14a6.52,6.52,0,0,0,1.15.72C97.54,98,99.37,97.06,99.94,94.44ZM17,83.11a2.18,2.18,0,0,0-1.25,1.73A15.54,15.54,0,0,0,16,91.28a57.2,57.2,0,0,0,6.83,16.85,61.14,61.14,0,0,0,10.54,13.72,25.18,25.18,0,0,0,5.84,4.23,4.15,4.15,0,0,0,4.36-.2q19.5-11.23,39.06-22.39c2.71-1.54,5.49-3,8.24-4.44l1-.57c-.3-.24-.48-.39-.67-.52a42.36,42.36,0,0,1-10-9.3,73,73,0,0,1-8.36-12.73c-2.92-5.64-5.41-11.46-6.39-17.81-.2-1.27-.27-2.57-.42-4-1.48,1-2.8,1.87-4.18,2.69Q41.15,69,20.45,81.24A37,37,0,0,1,17,83.11Zm-5.43,1.1a10.35,10.35,0,0,0-.71,3.05,24.38,24.38,0,0,0,1.16,8,69.76,69.76,0,0,0,8.54,18.43,59.52,59.52,0,0,0,10.78,13.14,33.38,33.38,0,0,0,4.15,3,8.18,8.18,0,0,0,2.37,1c2,.52,2.94,0,3.75-2.05-.88-.16-1.78-.24-2.62-.47a14.84,14.84,0,0,1-5-2.73,45.27,45.27,0,0,1-8.85-9.43,74.71,74.71,0,0,1-8.07-14,44.28,44.28,0,0,1-3.6-11.8,15.53,15.53,0,0,1,.5-7.49A2.16,2.16,0,0,0,11.57,84.21ZM73,47.6c4.94,12.56,9.17,25.22,13.63,38A3.49,3.49,0,0,0,87,85a12.32,12.32,0,0,1,4.39-5.8Q94.23,77,97,74.66c6.36-5.32,6.87-13.43,4.67-19.52a19.89,19.89,0,0,0-7.83-9.87,14,14,0,0,0-15.27-.87C76.71,45.39,74.91,46.5,73,47.6Z"/><path d="M84.9,88.21a3.48,3.48,0,0,1-.5-.33A69.58,69.58,0,0,1,70.49,63.07a27.62,27.62,0,0,1-1.55-9.13,15,15,0,0,1,.57-3.51,1.94,1.94,0,0,1,1.63-1.61C75.72,61.93,80.27,75,84.9,88.21Z"/><path d="M61.82,56.81c1.38-.82,2.7-1.73,4.18-2.69.15,1.43.22,2.73.42,4,1,6.35,3.47,12.17,6.39,17.81a73,73,0,0,0,8.36,12.73,42.36,42.36,0,0,0,10,9.3c.19.13.37.28.67.52l-1,.57c-2.75,1.48-5.53,2.9-8.24,4.44q-19.56,11.16-39.06,22.39a4.15,4.15,0,0,1-4.36.2,25.18,25.18,0,0,1-5.84-4.23,61.14,61.14,0,0,1-10.54-13.72A57.2,57.2,0,0,1,16,91.28a15.54,15.54,0,0,1-.24-6.44A2.18,2.18,0,0,1,17,83.11a37,37,0,0,0,3.45-1.87Q41.15,69,61.82,56.81Z"/></g><path class="cls-7" d="M87.1,94.86A6.52,6.52,0,0,1,86,94.14a14,14,0,0,1-4.15-5.29,5.74,5.74,0,0,1-.13-5,11,11,0,0,1,2-3.16c1.54-1.56,3.3-2.91,5.13-4.49a52.2,52.2,0,0,1,3.06,10.21,15.53,15.53,0,0,1,.1,6C91.37,95.06,89.54,96,87.1,94.86Z"/><path class="cls-7" d="M53.82,54.81c1.38-.82,2.7-1.73,4.18-2.69.15,1.43.22,2.73.42,4,1,6.35,3.47,12.17,6.39,17.81a73,73,0,0,0,8.36,12.73,42.36,42.36,0,0,0,10,9.3c.19.13.37.28.67.52l-1,.57c-2.75,1.48-5.53,2.9-8.24,4.44q-19.56,11.16-39.06,22.39a4.15,4.15,0,0,1-4.36.2,25.18,25.18,0,0,1-5.84-4.23,61.14,61.14,0,0,1-10.54-13.72A57.2,57.2,0,0,1,8,89.28a15.54,15.54,0,0,1-.24-6.44A2.18,2.18,0,0,1,9,81.11a37,37,0,0,0,3.45-1.87Q33.15,67,53.82,54.81Z"/><path class="cls-7" d="M5.46,88.35a44.28,44.28,0,0,0,3.6,11.8,74.71,74.71,0,0,0,8.07,14A45.27,45.27,0,0,0,26,123.55a14.84,14.84,0,0,0,5,2.73c.84.23,1.74.31,2.62.47-.81,2-1.74,2.57-3.75,2.05a8.18,8.18,0,0,1-2.37-1,33.38,33.38,0,0,1-4.15-3,59.52,59.52,0,0,1-10.78-13.14A69.76,69.76,0,0,1,4,93.29a24.38,24.38,0,0,1-1.16-8,10.35,10.35,0,0,1,.71-3.05A2.16,2.16,0,0,1,6,80.86,15.53,15.53,0,0,0,5.46,88.35Z"/><path class="cls-7" d="M85.84,43.27a19.89,19.89,0,0,1,7.83,9.87c2.2,6.09,1.69,14.2-4.67,19.52Q86.23,75,83.39,77.24A12.32,12.32,0,0,0,79,83a3.49,3.49,0,0,1-.37.54C74.17,70.82,69.94,58.16,65,45.6c1.91-1.1,3.71-2.21,5.57-3.2A14,14,0,0,1,85.84,43.27Z"/><path class="cls-2" d="M58,49a2.18,2.18,0,0,0,.88-.95A9.19,9.19,0,0,1,62.31,44a66.34,66.34,0,0,1,6.75-4.3c6.31-3.4,12.57-3,18.38,1.06a21.93,21.93,0,0,1,9.39,14.26c1.24,6.6,0,12.61-4.43,17.78-.49.57-1,1.1-1.54,1.65.76,2.14,1.54,4.1,2.17,6.11a30.24,30.24,0,0,1,1.64,9.93,10.21,10.21,0,0,1-1,4.39c-1,2-2.6,3.23-4.82,2.94a5,5,0,0,0-4.23,1.29,3.36,3.36,0,0,1-.51.32L37.84,125.91a3.85,3.85,0,0,0-2.08,2.18,4.87,4.87,0,0,1-5.68,3.41,14.12,14.12,0,0,1-4-1.32,26.55,26.55,0,0,1-7-5.39,74.57,74.57,0,0,1-17-28A31.81,31.81,0,0,1,0,86.15a11.28,11.28,0,0,1,.91-4.86,5,5,0,0,1,5.21-3.08,4.15,4.15,0,0,0,3.45-.88,5.2,5.2,0,0,1,.64-.39q20-11.53,39.89-23.09C52.75,52.31,55.35,50.67,58,49Zm34,43.4a15.53,15.53,0,0,0-.1-6,52.2,52.2,0,0,0-3.06-10.21c-1.83,1.58-3.59,2.93-5.13,4.49a11,11,0,0,0-2,3.16,5.74,5.74,0,0,0,.13,5A14,14,0,0,0,86,94.14a6.52,6.52,0,0,0,1.15.72C89.54,96,91.37,95.06,91.94,92.44ZM9,81.11a2.18,2.18,0,0,0-1.25,1.73A15.54,15.54,0,0,0,8,89.28a57.2,57.2,0,0,0,6.83,16.85,61.14,61.14,0,0,0,10.54,13.72,25.18,25.18,0,0,0,5.84,4.23,4.15,4.15,0,0,0,4.36-.2q19.5-11.23,39.06-22.39c2.71-1.54,5.49-3,8.24-4.44l1-.57c-.3-.24-.48-.39-.67-.52a42.36,42.36,0,0,1-10-9.3,73,73,0,0,1-8.36-12.73c-2.92-5.64-5.41-11.46-6.39-17.81-.2-1.27-.27-2.57-.42-4-1.48,1-2.8,1.87-4.18,2.69Q33.15,67,12.45,79.24A37,37,0,0,1,9,81.11Zm-5.43,1.1a10.35,10.35,0,0,0-.71,3.05,24.38,24.38,0,0,0,1.16,8,69.76,69.76,0,0,0,8.54,18.43,59.52,59.52,0,0,0,10.78,13.14,33.38,33.38,0,0,0,4.15,3,8.18,8.18,0,0,0,2.37,1c2,.52,2.94,0,3.75-2.05-.88-.16-1.78-.24-2.62-.47a14.84,14.84,0,0,1-5-2.73,45.27,45.27,0,0,1-8.85-9.43,74.71,74.71,0,0,1-8.07-14,44.28,44.28,0,0,1-3.6-11.8A15.53,15.53,0,0,1,6,80.86,2.16,2.16,0,0,0,3.57,82.21ZM65,45.6c4.94,12.56,9.17,25.22,13.63,38A3.49,3.49,0,0,0,79,83a12.32,12.32,0,0,1,4.39-5.8Q86.23,75,89,72.66c6.36-5.32,6.87-13.43,4.67-19.52a19.89,19.89,0,0,0-7.83-9.87,14,14,0,0,0-15.27-.87C68.71,43.39,66.91,44.5,65,45.6Z"/><path class="cls-3" d="M76.9,86.21a3.48,3.48,0,0,1-.5-.33A69.58,69.58,0,0,1,62.49,61.07a27.62,27.62,0,0,1-1.55-9.13,15,15,0,0,1,.57-3.51,1.94,1.94,0,0,1,1.63-1.61C67.72,59.93,72.27,73,76.9,86.21Z"/><path class="cls-8" d="M53.82,54.81c1.38-.82,2.7-1.73,4.18-2.69.15,1.43.22,2.73.42,4,1,6.35,3.47,12.17,6.39,17.81a73,73,0,0,0,8.36,12.73,42.36,42.36,0,0,0,10,9.3c.19.13.37.28.67.52l-1,.57c-2.75,1.48-5.53,2.9-8.24,4.44q-19.56,11.16-39.06,22.39a4.15,4.15,0,0,1-4.36.2,25.18,25.18,0,0,1-5.84-4.23,61.14,61.14,0,0,1-10.54-13.72A57.2,57.2,0,0,1,8,89.28a15.54,15.54,0,0,1-.24-6.44A2.18,2.18,0,0,1,9,81.11a37,37,0,0,0,3.45-1.87Q33.15,67,53.82,54.81Z"/><g class="cls-6"><path d="M84.46,86.72a5.87,5.87,0,0,0,6.76-3.85c1.39-3.19,2.86-6.36,4.47-9.92-2,.36-3.72.62-5.4,1a26.66,26.66,0,0,0-8.54,3,14.17,14.17,0,0,0-3,2.48,2.64,2.64,0,0,0-.3,3.49A8.29,8.29,0,0,0,84.46,86.72Z"/><path d="M133.63,80.26c0-.5,0-.8.05-1.1a22,22,0,0,0-2.8-10.93c-1.73-3.34-4.4-6-8.26-6.63a21.42,21.42,0,0,0-7-.18c-9.07,1.44-15.63,6.34-19.35,14.84-1.58,3.62-2.89,7.37-5.38,10.71Z"/><path d="M89.66,88.83a2.65,2.65,0,0,0,.56.3,73.57,73.57,0,0,0,30.17.78,29.11,29.11,0,0,0,9.35-3.06,16.56,16.56,0,0,0,3-2.28,2,2,0,0,0,.7-2.32Z"/><path d="M116.9,159.3a67.45,67.45,0,0,1-11.35.83,59.43,59.43,0,0,1-19-2.85c-3.39-1.15-6.61-2.62-8.8-5.66,0-.07-.18-.07-.32-.12a2.77,2.77,0,0,0,.53,3.34,12,12,0,0,0,3.18,2.53,38.75,38.75,0,0,0,6.74,2.71,70.22,70.22,0,0,0,31.19,1.32,31.41,31.41,0,0,0,9.12-2.78,19.86,19.86,0,0,0,3.5-2.39,2.85,2.85,0,0,0,.9-3.21C128,156.93,122.54,158.38,116.9,159.3Z"/><path d="M99.2,95.55a80.32,80.32,0,0,0,16.26,0,41.27,41.27,0,0,0,12.65-3.08,12,12,0,0,0,4-2.9,2.06,2.06,0,0,0,.61-1.83c-2.08,1-4.05,2-6.11,2.79a46.11,46.11,0,0,1-12.79,2.54A76,76,0,0,1,93,92c-4.8-1-9.47-2.26-13.54-5.14a2,2,0,0,0-.48-.16c.06.8.11,1.55.16,2.28a18.46,18.46,0,0,0,6.45,3.61A56.47,56.47,0,0,0,99.2,95.55Z"/><path d="M134.35,152a3.7,3.7,0,0,1-.22-1.32c.1-5.89.23-11.78.34-17.66.11-5.53.21-11.06.27-16.59q.12-9.44.16-18.88c0-3.9-.09-7.8-.13-11.7a2.49,2.49,0,0,1,.13-.9c1.11-2.76,1-5.64.88-8.54-.13-2.33-1.07-4.42-1.74-6.6A15.93,15.93,0,0,0,128,61.64a11,11,0,0,0-5.11-2.22,26.51,26.51,0,0,0-8.34.07,27.48,27.48,0,0,0-16.83,10.4,2.2,2.2,0,0,1-1.72,1,42.8,42.8,0,0,0-4.5.66,37.49,37.49,0,0,0-9.72,2.93,13.14,13.14,0,0,0-4.41,3.18c-1.39,1.63-2,3.51-1,5.5A8.14,8.14,0,0,1,77,87.45c-.14,2-.27,4-.32,6.08q-.25,11-.45,22.07-.24,13.62-.45,27.25c0,2.28-.06,4.56-.12,6.85a4,4,0,0,1-.25,1.17,4.87,4.87,0,0,0,.73,4.89,16.76,16.76,0,0,0,3,2.82,22.93,22.93,0,0,0,7,3.31,60.3,60.3,0,0,0,14.5,2.71c8.61.35,14.32,0,20-1.13a32.31,32.31,0,0,0,9.3-3.23,10.73,10.73,0,0,0,3.8-3.22A5.17,5.17,0,0,0,134.35,152Zm-1.6-67.42a16.56,16.56,0,0,1-3,2.28,29.11,29.11,0,0,1-9.35,3.06,73.57,73.57,0,0,1-30.17-.78,2.65,2.65,0,0,1-.56-.3l43.79-6.58A2,2,0,0,1,132.75,84.57ZM96.31,76.26c3.72-8.5,10.28-13.4,19.35-14.84a21.42,21.42,0,0,1,7,.18c3.86.68,6.53,3.29,8.26,6.63a22,22,0,0,1,2.8,10.93c0,.3,0,.6-.05,1.1L90.93,87C93.42,83.63,94.73,79.88,96.31,76.26ZM78.42,82.87a2.64,2.64,0,0,1,.3-3.49,14.17,14.17,0,0,1,3-2.48,26.66,26.66,0,0,1,8.54-3c1.68-.34,3.37-.6,5.4-1-1.61,3.56-3.08,6.73-4.47,9.92a5.87,5.87,0,0,1-6.76,3.85A8.29,8.29,0,0,1,78.42,82.87ZM79.1,89c0-.73-.1-1.48-.16-2.28a2,2,0,0,1,.48.16C83.49,89.76,88.16,91.06,93,92a76,76,0,0,0,20.91,1.09,46.11,46.11,0,0,0,12.79-2.54c2.06-.79,4-1.83,6.11-2.79a2.06,2.06,0,0,1-.61,1.83,12,12,0,0,1-4,2.9,41.27,41.27,0,0,1-12.65,3.08,80.32,80.32,0,0,1-16.26,0,56.47,56.47,0,0,1-13.65-2.94A18.46,18.46,0,0,1,79.1,89Zm52.58,67.23a19.86,19.86,0,0,1-3.5,2.39,31.41,31.41,0,0,1-9.12,2.78,70.22,70.22,0,0,1-31.19-1.32,38.75,38.75,0,0,1-6.74-2.71A12,12,0,0,1,78,154.84a2.77,2.77,0,0,1-.53-3.34c.14.05.28.05.32.12,2.19,3,5.41,4.51,8.8,5.66a59.43,59.43,0,0,0,19,2.85,67.45,67.45,0,0,0,11.35-.83c5.64-.92,11.08-2.37,15.68-6.28A2.85,2.85,0,0,1,131.68,156.23Z"/></g><path class="cls-9" d="M82.46,84.72a5.87,5.87,0,0,0,6.76-3.85c1.39-3.19,2.86-6.36,4.47-9.92-2,.36-3.72.62-5.4,1a26.66,26.66,0,0,0-8.54,3,14.17,14.17,0,0,0-3,2.48,2.64,2.64,0,0,0-.3,3.49A8.29,8.29,0,0,0,82.46,84.72Z"/><path class="cls-9" d="M131.63,78.26c0-.5,0-.8.05-1.1a22,22,0,0,0-2.8-10.93c-1.73-3.34-4.4-6-8.26-6.63a21.42,21.42,0,0,0-7-.18C104.59,60.86,98,65.76,94.31,74.26c-1.58,3.62-2.89,7.37-5.38,10.71Z"/><path class="cls-10" d="M87.66,86.83a2.65,2.65,0,0,0,.56.3,73.57,73.57,0,0,0,30.17.78,29.11,29.11,0,0,0,9.35-3.06,16.56,16.56,0,0,0,3-2.28,2,2,0,0,0,.7-2.32Z"/><path class="cls-9" d="M114.9,157.3a67.45,67.45,0,0,1-11.35.83,59.43,59.43,0,0,1-19-2.85c-3.39-1.15-6.61-2.62-8.8-5.66,0-.07-.18-.07-.32-.12a2.77,2.77,0,0,0,.53,3.34,12,12,0,0,0,3.18,2.53,38.75,38.75,0,0,0,6.74,2.71,70.22,70.22,0,0,0,31.19,1.32,31.41,31.41,0,0,0,9.12-2.78,19.86,19.86,0,0,0,3.5-2.39,2.85,2.85,0,0,0,.9-3.21C126,154.93,120.54,156.38,114.9,157.3Z"/><path class="cls-9" d="M97.2,93.55a80.32,80.32,0,0,0,16.26,0,41.27,41.27,0,0,0,12.65-3.08,12,12,0,0,0,4-2.9,2.06,2.06,0,0,0,.61-1.83c-2.08,1-4.05,2-6.11,2.79a46.11,46.11,0,0,1-12.79,2.54A76,76,0,0,1,91,90c-4.8-1-9.47-2.26-13.54-5.14a2,2,0,0,0-.48-.16c.06.8.11,1.55.16,2.28a18.46,18.46,0,0,0,6.45,3.61A56.47,56.47,0,0,0,97.2,93.55Z"/><path class="cls-4" d="M132.35,150a3.7,3.7,0,0,1-.22-1.32c.1-5.89.23-11.78.34-17.66.11-5.53.21-11.06.27-16.59q.12-9.44.16-18.88c0-3.9-.09-7.8-.13-11.7a2.49,2.49,0,0,1,.13-.9c1.11-2.76,1-5.64.88-8.54-.13-2.33-1.07-4.42-1.74-6.6A15.93,15.93,0,0,0,126,59.64a11,11,0,0,0-5.11-2.22,26.51,26.51,0,0,0-8.34.07,27.48,27.48,0,0,0-16.83,10.4,2.2,2.2,0,0,1-1.72,1,42.8,42.8,0,0,0-4.5.66,37.49,37.49,0,0,0-9.72,2.93,13.14,13.14,0,0,0-4.41,3.18c-1.39,1.63-2,3.51-1,5.5A8.14,8.14,0,0,1,75,85.45c-.14,2-.27,4-.32,6.08q-.25,11-.45,22.07-.24,13.62-.45,27.25c0,2.28-.06,4.56-.12,6.85a4,4,0,0,1-.25,1.17,4.87,4.87,0,0,0,.73,4.89,16.76,16.76,0,0,0,3,2.82,22.93,22.93,0,0,0,7,3.31,60.3,60.3,0,0,0,14.5,2.71c8.61.35,14.32,0,20-1.13a32.31,32.31,0,0,0,9.3-3.23,10.73,10.73,0,0,0,3.8-3.22A5.17,5.17,0,0,0,132.35,150Zm-1.6-67.42a16.56,16.56,0,0,1-3,2.28,29.11,29.11,0,0,1-9.35,3.06,73.57,73.57,0,0,1-30.17-.78,2.65,2.65,0,0,1-.56-.3l43.79-6.58A2,2,0,0,1,130.75,82.57ZM94.31,74.26c3.72-8.5,10.28-13.4,19.35-14.84a21.42,21.42,0,0,1,7,.18c3.86.68,6.53,3.29,8.26,6.63a22,22,0,0,1,2.8,10.93c0,.3,0,.6-.05,1.1L88.93,85C91.42,81.63,92.73,77.88,94.31,74.26ZM76.42,80.87a2.64,2.64,0,0,1,.3-3.49,14.17,14.17,0,0,1,3-2.48,26.66,26.66,0,0,1,8.54-3c1.68-.34,3.37-.6,5.4-1-1.61,3.56-3.08,6.73-4.47,9.92a5.87,5.87,0,0,1-6.76,3.85A8.29,8.29,0,0,1,76.42,80.87ZM77.1,87c0-.73-.1-1.48-.16-2.28a2,2,0,0,1,.48.16C81.49,87.76,86.16,89.06,91,90a76,76,0,0,0,20.91,1.09,46.11,46.11,0,0,0,12.79-2.54c2.06-.79,4-1.83,6.11-2.79a2.06,2.06,0,0,1-.61,1.83,12,12,0,0,1-4,2.9,41.27,41.27,0,0,1-12.65,3.08,80.32,80.32,0,0,1-16.26,0,56.47,56.47,0,0,1-13.65-2.94A18.46,18.46,0,0,1,77.1,87Zm52.58,67.23a19.86,19.86,0,0,1-3.5,2.39,31.41,31.41,0,0,1-9.12,2.78,70.22,70.22,0,0,1-31.19-1.32,38.75,38.75,0,0,1-6.74-2.71A12,12,0,0,1,76,152.84a2.77,2.77,0,0,1-.53-3.34c.14.05.28.05.32.12,2.19,3,5.41,4.51,8.8,5.66a59.43,59.43,0,0,0,19,2.85,67.45,67.45,0,0,0,11.35-.83c5.64-.92,11.08-2.37,15.68-6.28A2.85,2.85,0,0,1,129.68,154.23Z"/></g></g></g></svg>