<svg xmlns="http://www.w3.org/2000/svg" viewBox="0 0 59.43 26.61"><defs><style>.cls-1{fill:#231815;}.cls-2{fill:none;}.cls-3{fill:#090a0c;}</style></defs><title>logo</title><g id="圖層_2" data-name="圖層 2"><g id="End"><g id="result"><g id="footer"><g id="English"><path d="M27.26,16.41,24,16.75l.73-2.41,2.11-.22ZM25.63,9,21.38,22.9l-2.79.3L24.66,5.72l2.63-.28,6,16.21L29.79,22Z"/><path d="M42.36,15.49l3.77,4.83-3.32.35-3.32-4.88ZM37.39,7l2.22-.23c1.39-.13,2.26.07,2.9.84a3.62,3.62,0,0,1,.29,3.56c-.42.88-1,1.37-2.7,1.59l-1.82.18-.51,2.38c.62,0,3.52-.36,3.52-.36a5,5,0,0,0,4.25-3.68,6.35,6.35,0,0,0-1.2-5.88C43.21,4.18,41.41,4,39.21,4.16l-4.77.5V21.55l2.94-.31Z"/><path d="M51.29,2.9l8.14-.85V4.66l-5.18.54V19.48l-3,.31Zm-8.52.89a4.35,4.35,0,0,1,3.34,2.27l4.32-.46L50.69,3Z"/><polygon class="cls-1" points="31.26 13.65 34.11 13.35 33.64 15.73 31.52 15.95 31.26 13.65"/></g><g id="BlackCan"><path class="cls-2" d="M2.2,7.14a1.48,1.48,0,0,0,1.67-1c.33-.81.68-1.62,1.06-2.52l-1.35.27a6.51,6.51,0,0,0-2.12.81,3.49,3.49,0,0,0-.75.63.67.67,0,0,0-.06.88A2.1,2.1,0,0,0,2.2,7.14Z"/><path class="cls-2" d="M14.51,5.22V5a5.4,5.4,0,0,0-.77-2.73A2.92,2.92,0,0,0,11.63.6,5.14,5.14,0,0,0,9.88.6,6,6,0,0,0,5.11,4.44,13,13,0,0,1,3.82,7.16Z"/><path class="cls-2" d="M3.51,7.63l.14.08a18.66,18.66,0,0,0,7.59,0,7.2,7.2,0,0,0,2.33-.82,4.17,4.17,0,0,0,.74-.59.51.51,0,0,0,.16-.59Z"/><path class="cls-2" d="M10.77,25.17a17,17,0,0,1-2.84.28,15,15,0,0,1-4.8-.61A4.12,4.12,0,0,1,.89,23.47l-.08,0a.71.71,0,0,0,.15.83,2.91,2.91,0,0,0,.82.62,10.34,10.34,0,0,0,1.71.64,17.73,17.73,0,0,0,7.84.15,7.89,7.89,0,0,0,2.27-.76,5.29,5.29,0,0,0,.87-.62.72.72,0,0,0,.2-.81A7.65,7.65,0,0,1,10.77,25.17Z"/><path class="cls-2" d="M6,9.26A19.87,19.87,0,0,0,10,9.18a10.5,10.5,0,0,0,3.16-.85,2.93,2.93,0,0,0,1-.75.51.51,0,0,0,.14-.46c-.51.25-1,.52-1.51.73a11.78,11.78,0,0,1-3.2.72,19.32,19.32,0,0,1-5.26-.15A8.92,8.92,0,0,1,.93,7.21l-.12,0,0,.57a4.81,4.81,0,0,0,1.64.87A14,14,0,0,0,6,9.26Z"/><path class="cls-3" d="M15.11,23.23a.92.92,0,0,1-.06-.33c0-1.48,0-3,0-4.44s0-2.77,0-4.16c0-1.58,0-3.17-.07-4.75,0-1-.07-2-.1-2.93a.58.58,0,0,1,0-.23A4.74,4.74,0,0,0,15,4.24a6.64,6.64,0,0,0-.47-1.65A4,4,0,0,0,13,.58,2.63,2.63,0,0,0,11.68.05a6.72,6.72,0,0,0-2.1.07A6.87,6.87,0,0,0,5.42,2.83.56.56,0,0,1,5,3.09c-.38,0-.75.12-1.13.19a10,10,0,0,0-2.42.8,3.26,3.26,0,0,0-1.09.83A1.21,1.21,0,0,0,.13,6.29,2.1,2.1,0,0,1,.32,7.36c0,.51,0,1,0,1.53,0,1.85,0,3.7,0,5.55,0,2.28,0,4.56.05,6.84,0,.58,0,1.15,0,1.72a1,1,0,0,1,0,.3,1.2,1.2,0,0,0,.21,1.22,4.51,4.51,0,0,0,.75.7A5.78,5.78,0,0,0,3,26a15.06,15.06,0,0,0,3.65.6,19.92,19.92,0,0,0,5-.4A8.14,8.14,0,0,0,14,25.33,2.74,2.74,0,0,0,15,24.5,1.31,1.31,0,0,0,15.11,23.23Zm-.8-16.92a4.17,4.17,0,0,1-.74.59,7.2,7.2,0,0,1-2.33.82,18.66,18.66,0,0,1-7.59,0l-.14-.08,11-1.91A.51.51,0,0,1,14.31,6.31ZM5.11,4.44A6,6,0,0,1,9.88.6a5.14,5.14,0,0,1,1.75,0,2.92,2.92,0,0,1,2.11,1.62A5.4,5.4,0,0,1,14.51,5v.27L3.82,7.16A13,13,0,0,0,5.11,4.44ZM.65,6.2a.67.67,0,0,1,.06-.88,3.49,3.49,0,0,1,.75-.63,6.51,6.51,0,0,1,2.12-.81l1.35-.27c-.38.9-.73,1.71-1.06,2.52a1.48,1.48,0,0,1-1.67,1A2.1,2.1,0,0,1,.65,6.2ZM.86,7.74l0-.57.12,0A8.92,8.92,0,0,0,4.36,8.42a19.32,19.32,0,0,0,5.26.15,11.78,11.78,0,0,0,3.2-.72c.51-.21,1-.48,1.51-.73a.51.51,0,0,1-.14.46,2.93,2.93,0,0,1-1,.75A10.5,10.5,0,0,1,10,9.18,19.87,19.87,0,0,1,6,9.26,14,14,0,0,1,2.5,8.61,4.81,4.81,0,0,1,.86,7.74ZM14.47,24.31a5.29,5.29,0,0,1-.87.62,7.89,7.89,0,0,1-2.27.76,17.73,17.73,0,0,1-7.84-.15,10.34,10.34,0,0,1-1.71-.64A2.91,2.91,0,0,1,1,24.28a.71.71,0,0,1-.15-.83l.08,0a4.12,4.12,0,0,0,2.24,1.37,15,15,0,0,0,4.8.61,17,17,0,0,0,2.84-.28,7.65,7.65,0,0,0,3.9-1.67A.72.72,0,0,1,14.47,24.31Z"/></g></g></g></g></g></svg>